<?xml version="1.0" encoding="iso-8859-1"?>
<!-- Generator: Adobe Illustrator 19.0.0, SVG Export Plug-In . SVG Version: 6.00 Build 0)  -->
<svg version="1.1" id="Layer_1" xmlns="http://www.w3.org/2000/svg" xmlns:xlink="http://www.w3.org/1999/xlink" x="0px" y="0px"
	 viewBox="0 0 512 512" style="enable-background:new 0 0 512 512;" xml:space="preserve">
<g>
	<g>
		<path d="M256,89.044c-141.491,0-256,114.497-256,256v61.217c0,9.22,7.475,16.696,16.696,16.696h478.609
			c9.22,0,16.696-7.475,16.696-16.696v-61.217C512,203.553,397.503,89.044,256,89.044z M471.458,288.996h-76.606v-33.391h64.976
			C464.55,266.323,468.46,277.476,471.458,288.996z M52.172,255.605h64.42v33.391h-76.05
			C43.54,277.476,47.45,266.323,52.172,255.605z M294.678,389.17h-77.913V255.605h77.913V389.17z M478.609,389.565H328.07V238.909
			c0-9.22-7.475-16.696-16.696-16.696H200.07c-9.22,0-16.696,7.475-16.696,16.696v150.656H33.391v-44.522
			c0-7.648,0.388-15.205,1.145-22.656h98.75c9.22,0,16.696-7.475,16.696-16.696v-66.783c0-9.22-7.475-16.696-16.696-16.696H70.443
			c39.906-60.085,108.178-99.779,185.557-99.779s145.651,39.693,185.557,99.779h-63.4c-9.22,0-16.696,7.475-16.696,16.696v66.783
			c0,9.22,7.475,16.696,16.696,16.696h99.307c0.757,7.451,1.145,15.008,1.145,22.656V389.565z"/>
	</g>
</g>
<g>
</g>
<g>
</g>
<g>
</g>
<g>
</g>
<g>
</g>
<g>
</g>
<g>
</g>
<g>
</g>
<g>
</g>
<g>
</g>
<g>
</g>
<g>
</g>
<g>
</g>
<g>
</g>
<g>
</g>
</svg>
