<?xml version="1.0" encoding="iso-8859-1"?>
<!-- Generator: Adobe Illustrator 19.0.0, SVG Export Plug-In . SVG Version: 6.00 Build 0)  -->
<svg version="1.1" id="Layer_1" xmlns="http://www.w3.org/2000/svg" xmlns:xlink="http://www.w3.org/1999/xlink" x="0px" y="0px"
	 viewBox="0 0 512 512" style="enable-background:new 0 0 512 512;" xml:space="preserve">
<g>
	<g>
		<path d="M491.048,0H20.953C11.681,0,4.164,7.517,4.164,16.789c0,15.511,0,318.345,0,330.185c0,0.017,0.002,0.032,0.002,0.049
			c0.045,14.72,17.995,22.493,28.66,11.82c12-11.996,31.411-11.995,43.41,0c0.002,0.002,0.006,0.006,0.008,0.008
			c25.062,25.055,65.833,25.053,90.893-0.006c11.969-11.968,31.441-11.968,43.411-0.002c0.002,0.002,0.006,0.006,0.008,0.008
			c25.118,25.112,65.767,25.115,90.887,0c0.002-0.002,0.006-0.006,0.008-0.008c11.969-11.967,31.444-11.966,43.411,0.002
			c25.059,25.059,65.831,25.06,90.893,0.006c0.002-0.002,0.006-0.006,0.008-0.008c12.001-11.996,31.411-11.994,43.41,0
			c10.371,10.378,28.672,3.311,28.665-11.874c0-12.417,0-314.958,0-330.18C507.837,7.517,500.32,0,491.048,0z M370.265,33.578
			h33.578v33.578h-33.578V33.578z M303.108,33.578h33.578v33.578h-33.578V33.578z M235.951,33.578h33.578v33.578h-33.578V33.578z
			 M168.795,33.578h33.578v33.578h-33.578V33.578z M101.638,33.578h33.578v33.578h-33.578V33.578z M37.742,33.578H68.06v33.578
			H37.742V33.578z M205.632,318.498c-21.487-5.778-45.299-0.335-62.238,16.606c-10.443,10.442-26.596,11.771-38.496,3.994V218.258
			c0-27.773,22.595-50.367,50.367-50.367c27.773,0,50.367,22.595,50.367,50.367V318.498z M407.102,339.097
			c-11.9,7.777-28.055,6.448-38.496-3.994c-16.925-16.926-40.735-22.387-62.238-16.606v-100.24
			c0-27.773,22.595-50.367,50.367-50.367c27.773,0,50.367,22.595,50.367,50.367V339.097z M474.259,318.54
			c-10.983-2.954-22.595-2.954-33.578,0V218.258c0-46.287-37.658-83.945-83.945-83.945c-46.287,0-83.945,37.658-83.945,83.945
			v120.839c-10.16,6.64-23.419,6.64-33.578,0V218.258c0-46.287-37.658-83.945-83.945-83.945c-46.288,0-83.945,37.658-83.945,83.945
			V318.54c-10.983-2.954-22.595-2.954-33.578,0V100.734h436.516V318.54z M474.259,67.156h-36.837V33.578h36.837V67.156z"/>
	</g>
</g>
<g>
	<g>
		<path d="M502.919,402.26c-25.062-25.062-65.838-25.062-90.899,0c-11.968,11.968-31.445,11.968-43.413,0
			c-25.119-25.121-65.779-25.123-90.899,0c-11.968,11.968-31.444,11.968-43.413,0c-25.12-25.121-65.777-25.123-90.899,0
			c-11.97,11.968-31.444,11.968-43.413,0c-25.062-25.062-65.838-25.062-90.899,0c-6.557,6.556-6.557,17.186,0,23.743
			c6.556,6.556,17.186,6.556,23.743,0c12-11.999,31.415-11.997,43.413,0c25.062,25.062,65.838,25.062,90.899,0
			c11.969-11.968,31.444-11.968,43.413,0c25.119,25.12,65.779,25.123,90.899,0c11.968-11.968,31.445-11.968,43.413,0
			c25.062,25.062,65.838,25.062,90.899,0c12.001-11.999,31.414-11.997,43.413,0c6.556,6.556,17.186,6.556,23.743,0
			C509.476,419.446,509.476,408.815,502.919,402.26z"/>
	</g>
</g>
<g>
	<g>
		<path d="M502.919,469.416c-25.06-25.062-65.838-25.062-90.899,0c-11.968,11.968-31.445,11.968-43.413,0
			c-25.119-25.121-65.779-25.123-90.899,0c-11.968,11.968-31.444,11.968-43.413,0c-25.12-25.121-65.777-25.123-90.899,0
			c-11.969,11.968-31.444,11.968-43.413,0c-25.062-25.062-65.838-25.062-90.899,0c-6.557,6.556-6.557,17.186,0,23.743
			c6.556,6.556,17.186,6.556,23.743,0c12-11.999,31.415-11.997,43.413,0c25.062,25.062,65.838,25.062,90.899,0
			c11.97-11.968,31.444-11.968,43.413,0c25.119,25.12,65.779,25.123,90.899,0c11.968-11.968,31.445-11.968,43.413,0
			c25.062,25.062,65.838,25.062,90.899,0c12.001-11.999,31.414-11.997,43.413,0c6.556,6.556,17.186,6.556,23.743,0
			C509.475,486.604,509.475,475.973,502.919,469.416z"/>
	</g>
</g>
<g>
</g>
<g>
</g>
<g>
</g>
<g>
</g>
<g>
</g>
<g>
</g>
<g>
</g>
<g>
</g>
<g>
</g>
<g>
</g>
<g>
</g>
<g>
</g>
<g>
</g>
<g>
</g>
<g>
</g>
</svg>
