<?xml version="1.0" encoding="iso-8859-1"?>
<!-- Generator: Adobe Illustrator 19.0.0, SVG Export Plug-In . SVG Version: 6.00 Build 0)  -->
<svg version="1.1" id="Layer_1" xmlns="http://www.w3.org/2000/svg" xmlns:xlink="http://www.w3.org/1999/xlink" x="0px" y="0px"
	 viewBox="0 0 512 512" style="enable-background:new 0 0 512 512;" xml:space="preserve">
<g>
	<g>
		<path d="M356.174,0H155.826c-27.618,0-50.087,22.469-50.087,50.087v445.217c0,9.22,7.475,16.696,16.696,16.696
			c9.22,0,16.696-7.475,16.696-16.696v-27.826H372.87v27.826c0,9.22,7.475,16.696,16.696,16.696c9.22,0,16.696-7.475,16.696-16.696
			V50.087C406.261,22.469,383.792,0,356.174,0z M372.87,434.087H139.13v-66.783H372.87V434.087z M372.87,333.913H139.13V267.13
			H372.87V333.913z M372.87,233.739H139.13v-66.783H372.87V233.739z M372.87,133.565H139.13V50.087
			c0-9.206,7.49-16.696,16.696-16.696h200.348c9.206,0,16.696,7.49,16.696,16.696V133.565z"/>
	</g>
</g>
<g>
</g>
<g>
</g>
<g>
</g>
<g>
</g>
<g>
</g>
<g>
</g>
<g>
</g>
<g>
</g>
<g>
</g>
<g>
</g>
<g>
</g>
<g>
</g>
<g>
</g>
<g>
</g>
<g>
</g>
</svg>
