<?xml version="1.0" encoding="iso-8859-1"?>
<!-- Generator: Adobe Illustrator 19.0.0, SVG Export Plug-In . SVG Version: 6.00 Build 0)  -->
<svg version="1.1" id="Layer_1" xmlns="http://www.w3.org/2000/svg" xmlns:xlink="http://www.w3.org/1999/xlink" x="0px" y="0px"
	 viewBox="0 0 512 512" style="enable-background:new 0 0 512 512;" xml:space="preserve">
<g>
	<g>
		<path d="M205.913,244.87c-27.618,0-50.087,22.469-50.087,50.087c0,27.618,22.469,50.087,50.087,50.087
			c27.618,0,50.087-22.469,50.087-50.087C256,267.339,233.531,244.87,205.913,244.87z M205.913,311.652
			c-9.206,0-16.696-7.49-16.696-16.696c0-9.206,7.49-16.696,16.696-16.696c9.206,0,16.696,7.49,16.696,16.696
			C222.609,304.162,215.119,311.652,205.913,311.652z"/>
	</g>
</g>
<g>
	<g>
		<path d="M205.913,378.435c-9.22,0-16.696,7.475-16.696,16.696v33.391c0,9.22,7.475,16.696,16.696,16.696
			c9.22,0,16.696-7.475,16.696-16.696V395.13C222.609,385.91,215.133,378.435,205.913,378.435z"/>
	</g>
</g>
<g>
	<g>
		<path d="M449.391,411.826h-43.13V108.522C406.261,48.682,357.579,0,297.739,0S189.217,48.682,189.217,108.522v5.655
			c-19.433,6.893-33.391,25.455-33.391,47.24c0,0,0.017,11.248,0.05,26.405c-48.928,19.841-83.528,67.868-83.528,123.831v33.391
			H55.652c-27.618,0-50.087,22.469-50.087,50.087v66.783C5.565,489.531,28.034,512,55.652,512c1.581,0,430.019,0,434.087,0
			c9.22,0,16.696-7.475,16.696-16.696V468.87C506.435,437.416,480.846,411.826,449.391,411.826z M72.348,478.609H55.652
			c-9.206,0-16.696-7.49-16.696-16.696V395.13c0-9.206,7.49-16.696,16.696-16.696h16.696V478.609z M222.609,108.522
			c0-41.427,33.703-75.13,75.13-75.13s75.13,33.703,75.13,75.13v239.382c-5.224-1.852-10.844-2.861-16.696-2.861h-16.696v-33.391
			c0-55.963-34.6-103.988-83.528-123.832c0.033-15.157,0.05-26.409,0.05-26.429c0-21.766-13.959-40.323-33.391-47.215V108.522z
			 M372.87,395.13v16.696h-33.391v-33.391h16.696C365.38,378.435,372.87,385.924,372.87,395.13z M205.913,144.696
			c9.206,0,16.696,7.49,16.696,16.671c0,0.002-0.011,7.167-0.032,17.759c-5.461-0.683-11.021-1.038-16.663-1.038
			c-5.642,0-11.203,0.355-16.663,1.038c-0.021-10.578-0.032-17.734-0.032-17.734C189.217,152.185,196.707,144.696,205.913,144.696z
			 M272.696,468.87v9.739H105.739v-116.87v-50.087c0-55.236,44.938-100.174,100.174-100.174s100.174,44.938,100.174,100.174v105.33
			C286.408,425.988,272.696,445.852,272.696,468.87z M473.043,478.609H306.087v-9.739c0-13.042,10.609-23.652,23.652-23.652h119.652
			c13.043,0,23.652,10.611,23.652,23.652V478.609z"/>
	</g>
</g>
<g>
</g>
<g>
</g>
<g>
</g>
<g>
</g>
<g>
</g>
<g>
</g>
<g>
</g>
<g>
</g>
<g>
</g>
<g>
</g>
<g>
</g>
<g>
</g>
<g>
</g>
<g>
</g>
<g>
</g>
</svg>
