<?xml version="1.0" encoding="iso-8859-1"?>
<!-- Generator: Adobe Illustrator 19.0.0, SVG Export Plug-In . SVG Version: 6.00 Build 0)  -->
<svg version="1.1" id="Layer_1" xmlns="http://www.w3.org/2000/svg" xmlns:xlink="http://www.w3.org/1999/xlink" x="0px" y="0px"
	 viewBox="0 0 512 512" style="enable-background:new 0 0 512 512;" xml:space="preserve">
<g>
	<g>
		<path d="M495.304,5.565H16.696C7.475,5.565,0,13.04,0,22.261c0,7.906,0,458.919,0,467.478c0,9.22,7.475,16.696,16.696,16.696
			H139.13c9.22,0,16.696-7.475,16.696-16.696V306.087c0-55.236,44.938-100.174,100.174-100.174s100.174,44.938,100.174,100.174
			v183.652c0,9.22,7.475,16.696,16.696,16.696h122.435c9.22,0,16.696-7.475,16.696-16.696c0-9.426,0-459.114,0-467.478
			C512,13.04,504.525,5.565,495.304,5.565z M33.391,105.739h55.652v66.783H33.391V105.739z M122.435,473.043H33.391v-66.783h89.044
			V473.043z M122.435,372.87H33.391v-66.783h89.044V372.87z M126.661,272.696h-93.27v-66.783h134.368
			C148.018,223.323,133.439,246.456,126.661,272.696z M189.217,172.522h-66.783v-66.783h66.783V172.522z M289.391,172.522h-66.783
			v-66.783h66.783V172.522z M322.783,172.522v-66.783h66.783v66.783H322.783z M478.609,473.043h-89.044v-66.783h89.044V473.043z
			 M478.609,372.87h-89.044v-66.783h89.044V372.87z M478.609,272.696h-93.27c-6.778-26.24-21.357-49.372-41.098-66.783h134.368
			V272.696z M478.609,172.522h-55.652v-66.783h55.652V172.522z M478.609,72.348H33.391V38.957h445.217V72.348z"/>
	</g>
</g>
<g>
	<g>
		<path d="M317.156,346.006c-0.065-0.146-0.13-0.292-0.198-0.435l-45.872-96.726c-2.765-5.827-8.637-9.541-15.086-9.541
			c-0.001,0-0.003,0-0.006,0c-6.451,0.002-12.324,3.721-15.084,9.552l-46.486,98.187c-0.141,0.299-0.275,0.602-0.398,0.909
			c-17.654,43.859,14.86,91.699,61.974,91.699C304.23,439.652,336.459,389.909,317.156,346.006z M256,406.261
			c-23.376,0-39.612-23.59-31.162-45.424l31.174-65.846l30.661,64.653C296.139,381.547,280.015,406.261,256,406.261z"/>
	</g>
</g>
<g>
	<g>
		<path d="M306.087,473.043H205.913c-9.22,0-16.696,7.475-16.696,16.696s7.475,16.696,16.696,16.696h100.174
			c9.22,0,16.696-7.475,16.696-16.696S315.307,473.043,306.087,473.043z"/>
	</g>
</g>
<g>
</g>
<g>
</g>
<g>
</g>
<g>
</g>
<g>
</g>
<g>
</g>
<g>
</g>
<g>
</g>
<g>
</g>
<g>
</g>
<g>
</g>
<g>
</g>
<g>
</g>
<g>
</g>
<g>
</g>
</svg>
