<?xml version="1.0" encoding="iso-8859-1"?>
<!-- Generator: Adobe Illustrator 19.0.0, SVG Export Plug-In . SVG Version: 6.00 Build 0)  -->
<svg version="1.1" id="Layer_1" xmlns="http://www.w3.org/2000/svg" xmlns:xlink="http://www.w3.org/1999/xlink" x="0px" y="0px"
	 viewBox="0 0 512 512" style="enable-background:new 0 0 512 512;" xml:space="preserve">
<g>
	<g>
		<path d="M495.304,0H16.696c-1.75,0-3.702,0.296-5.668,1.008C4.372,3.405-0.003,9.686,0,16.701c0,18.709,0,461.67,0,478.598
			C-0.004,504.579,7.603,512,16.696,512h478.609c9.106,0,16.7-7.423,16.696-16.701c0-16.93,0-459.906,0-478.598
			C512.004,7.613,504.614,0,495.304,0z M454.998,33.391L322.783,165.606l-43.172-43.172l89.044-89.044H454.998z M389.565,146.046
			l43.172,43.172L322.783,299.172L279.611,256L389.565,146.046z M321.432,33.391L256,98.824l-65.432-65.432H321.432z
			 M299.172,189.217L256,232.389L146.046,122.435l43.172-43.172L299.172,189.217z M232.389,256L122.435,365.954l-43.172-43.172
			l109.954-109.954L232.389,256z M143.346,33.391l22.261,22.261l-43.172,43.172L57.002,33.391H143.346z M33.391,57.002
			l132.215,132.215l-43.172,43.172l-89.044-89.044V57.002z M33.391,190.567L98.824,256l-65.432,65.433V190.567z M33.391,368.654
			l22.261-22.261l43.172,43.172l-65.432,65.432V368.654z M57.002,478.609l132.215-132.215l43.172,43.172l-89.044,89.044H57.002z
			 M190.567,478.609L256,413.176l65.433,65.432H190.567z M212.828,322.783L256,279.611l109.954,109.954l-43.172,43.172
			L212.828,322.783z M368.654,478.609l-22.261-22.261l43.172-43.172l65.432,65.432H368.654z M478.609,454.998L346.394,322.783
			l43.172-43.172l89.044,89.044V454.998z M478.609,321.432L413.176,256l65.432-65.432V321.432z M478.609,143.346l-22.261,22.261
			l-43.172-43.172l65.432-65.432V143.346z"/>
	</g>
</g>
<g>
</g>
<g>
</g>
<g>
</g>
<g>
</g>
<g>
</g>
<g>
</g>
<g>
</g>
<g>
</g>
<g>
</g>
<g>
</g>
<g>
</g>
<g>
</g>
<g>
</g>
<g>
</g>
<g>
</g>
</svg>
