<?xml version="1.0" encoding="iso-8859-1"?>
<!-- Generator: Adobe Illustrator 19.0.0, SVG Export Plug-In . SVG Version: 6.00 Build 0)  -->
<svg version="1.1" id="Layer_1" xmlns="http://www.w3.org/2000/svg" xmlns:xlink="http://www.w3.org/1999/xlink" x="0px" y="0px"
	 viewBox="0 0 512.001 512.001" style="enable-background:new 0 0 512.001 512.001;" xml:space="preserve">
<g>
	<g>
		<path d="M496.052,69.772c-5.285-9.787-18.543-11.741-26.42-3.861l-91.929,91.929c-3.03-4.58-6.557-8.925-10.588-12.956
			c-4.03-4.03-8.376-7.558-12.956-10.587l91.929-91.929c7.869-7.869,5.942-21.127-3.861-26.419
			c-50.03-27.016-114.583-19.937-157.512,22.992c-26.388,26.387-40.263,62.537-38.83,99.415L31.82,227.17
			C6.146,237.174-6.51,265.995,3.341,291.59c9.855,25.753,38.711,38.691,64.56,28.708l0.239-0.092l169.975-71.677
			c3.185,4.988,6.935,9.716,11.289,14.069c4.353,4.353,9.082,8.103,14.069,11.288l-71.579,169.741l-0.199,0.491
			c-9.855,25.616,2.844,54.643,28.69,64.532c25.784,9.916,54.5-2.941,64.444-28.468l88.812-214.057
			c37.312,1.446,73.315-12.736,99.419-38.84C515.897,184.447,523.132,119.92,496.052,69.772z M226.205,217.418L55.709,289.314
			c-8.402,3.13-17.959-0.966-21.285-9.651c-3.294-8.56,0.952-18.19,9.562-21.498l0.206-0.079L228,181.823
			C224.849,193.436,224.251,205.594,226.205,217.418z M308.258,62.484c25.393-25.391,62.601-34.737,96.444-25.815l-84.704,84.704
			c-13.616-1.923-27.615-0.465-40.648,4.342C281.107,102.079,291.191,79.552,308.258,62.484z M253.999,467.605l-0.163,0.408
			c-3.287,8.552-12.872,12.884-21.526,9.55c-8.626-3.302-12.727-12.875-9.619-21.285l71.893-170.485
			c12.006,1.985,23.892,1.38,35.595-1.795L253.999,467.605z M343.573,239.057c-19.471,19.471-51.156,19.473-70.629,0
			c-19.473-19.473-19.473-51.157,0-70.63c19.469-19.469,51.156-19.473,70.629,0C363.046,187.899,363.046,219.584,343.573,239.057z
			 M449.516,203.741c-17.068,17.068-39.596,27.151-63.231,28.909c4.807-13.034,6.265-27.032,4.341-40.648l84.704-84.704
			C484.251,141.138,474.908,178.349,449.516,203.741z"/>
	</g>
</g>
<g>
	<g>
		<circle cx="305.923" cy="205.262" r="16.647"/>
	</g>
</g>
<g>
</g>
<g>
</g>
<g>
</g>
<g>
</g>
<g>
</g>
<g>
</g>
<g>
</g>
<g>
</g>
<g>
</g>
<g>
</g>
<g>
</g>
<g>
</g>
<g>
</g>
<g>
</g>
<g>
</g>
</svg>
