<?xml version="1.0" encoding="iso-8859-1"?>
<!-- Generator: Adobe Illustrator 19.0.0, SVG Export Plug-In . SVG Version: 6.00 Build 0)  -->
<svg version="1.1" id="Layer_1" xmlns="http://www.w3.org/2000/svg" xmlns:xlink="http://www.w3.org/1999/xlink" x="0px" y="0px"
	 viewBox="0 0 511.999 511.999" style="enable-background:new 0 0 511.999 511.999;" xml:space="preserve">
<g>
	<g>
		<path d="M477.772,118.812l-70.769-70.769c-19.511-19.512-51.258-19.51-70.769,0c-56.189,56.188-37.986,37.985-82.565,82.564
			l-11.795-11.794c-6.514-6.514-17.075-6.514-23.59,0l-47.179,47.179c-6.509,6.508-6.514,17.078,0,23.59l11.795,11.795
			L19.558,364.719c-26.075,26.074-26.08,68.279,0,94.36c26.011,26.012,68.344,26.016,94.36,0L277.26,295.736
			c24.508,24.508-3.238-3.238,35.384,35.384c32.52,32.52,85.43,32.519,117.949,0c6.514-6.513,6.514-17.075,0-23.59
			c-10.163-10.163-73.538-73.538-82.565-82.565l23.59-23.59l82.564,82.565c6.514,6.514,17.076,6.512,23.59-0.001
			C523.406,238.309,523.41,164.446,477.772,118.812z M90.328,435.489c-13.009,13.006-34.173,13.006-47.18,0
			c-13.036-13.038-13.041-34.14,0-47.18l11.795-11.795l47.18,47.18L90.328,435.489z M125.712,400.104l-47.18-47.179L206.49,224.967
			l47.18,47.18L125.712,400.104z M300.85,272.147l-94.36-94.361l23.59-23.59c3.87,3.87,90.472,90.471,94.361,94.36L300.85,272.147z
			 M348.031,272.146l45.159,45.159c-18.6,8.861-41.577,5.604-56.955-9.774l-11.794-11.794L348.031,272.146z M324.44,201.376
			l-47.18-47.179l23.59-23.591l47.18,47.18L324.44,201.376z M464.806,247.385c-3.776-3.776-132.89-132.891-140.367-140.368
			l35.385-35.384c6.505-6.503,17.086-6.503,23.59,0l70.77,70.77C482.938,171.155,486.117,215.291,464.806,247.385z"/>
	</g>
</g>
<g>
</g>
<g>
</g>
<g>
</g>
<g>
</g>
<g>
</g>
<g>
</g>
<g>
</g>
<g>
</g>
<g>
</g>
<g>
</g>
<g>
</g>
<g>
</g>
<g>
</g>
<g>
</g>
<g>
</g>
</svg>
