<?xml version="1.0" encoding="iso-8859-1"?>
<!-- Generator: Adobe Illustrator 19.0.0, SVG Export Plug-In . SVG Version: 6.00 Build 0)  -->
<svg version="1.1" id="Layer_1" xmlns="http://www.w3.org/2000/svg" xmlns:xlink="http://www.w3.org/1999/xlink" x="0px" y="0px"
	 viewBox="0 0 512 512" style="enable-background:new 0 0 512 512;" xml:space="preserve">
<g>
	<g>
		<path d="M495.262,54.463c-0.624-8.737-7.895-15.507-16.653-15.507h-66.783c-8.759,0-16.029,6.77-16.653,15.507l-15.588,218.232
			h-46.683L317.185,21.219c-0.55-8.799-7.847-15.654-16.663-15.654h-66.783c-8.816,0-16.114,6.855-16.663,15.654l-15.717,251.477
			h-67.793v-33.391h16.696c9.22,0,16.696-7.475,16.696-16.696s-7.475-16.696-16.696-16.696c-14.043,0-119.101,0-133.565,0
			C7.475,205.913,0,213.388,0,222.609s7.475,16.696,16.696,16.696h16.696v33.391H16.696C7.475,272.696,0,280.171,0,289.391v200.348
			c0,9.22,7.475,16.696,16.696,16.696h478.609c9.22,0,16.696-7.475,16.696-16.696V289.391
			C512,288.471,495.328,55.381,495.262,54.463z M427.372,72.348h35.691l2.385,33.391h-40.461L427.372,72.348z M422.601,139.13
			h45.232l2.385,33.391h-50.002L422.601,139.13z M417.831,205.913h54.772l4.771,66.783H413.06L417.831,205.913z M249.424,38.957
			h35.413l2.087,33.391h-39.587L249.424,38.957z M245.25,105.739h43.76l2.087,33.391h-47.934L245.25,105.739z M241.076,172.522
			h52.108l6.261,100.174h-64.63L241.076,172.522z M66.783,239.304h33.391v33.391H66.783V239.304z M478.609,473.043H33.391V306.087
			c11.458,0,433.443,0,445.217,0V473.043z"/>
	</g>
</g>
<g>
	<g>
		<path d="M422.957,339.478H89.044c-9.22,0-16.696,7.475-16.696,16.696v66.783c0,9.22,7.475,16.696,16.696,16.696h333.913
			c9.22,0,16.696-7.475,16.696-16.696v-66.783C439.652,346.953,432.177,339.478,422.957,339.478z M155.826,406.261h-50.087V372.87
			h50.087V406.261z M239.304,406.261h-50.087V372.87h50.087V406.261z M322.783,406.261h-50.087V372.87h50.087V406.261z
			 M406.261,406.261h-50.087V372.87h50.087V406.261z"/>
	</g>
</g>
<g>
</g>
<g>
</g>
<g>
</g>
<g>
</g>
<g>
</g>
<g>
</g>
<g>
</g>
<g>
</g>
<g>
</g>
<g>
</g>
<g>
</g>
<g>
</g>
<g>
</g>
<g>
</g>
<g>
</g>
</svg>
