<?xml version="1.0" encoding="iso-8859-1"?>
<!-- Generator: Adobe Illustrator 19.0.0, SVG Export Plug-In . SVG Version: 6.00 Build 0)  -->
<svg version="1.1" id="Layer_1" xmlns="http://www.w3.org/2000/svg" xmlns:xlink="http://www.w3.org/1999/xlink" x="0px" y="0px"
	 viewBox="0 0 512 512" style="enable-background:new 0 0 512 512;" xml:space="preserve">
<g>
	<g>
		<path d="M443.13,72.348H68.87C30.895,72.348,0,103.243,0,141.217v229.565c0,37.975,30.895,68.87,68.87,68.87H443.13
			c37.975,0,68.87-30.895,68.87-68.87V141.217C512,103.243,481.105,72.348,443.13,72.348z M478.609,370.783
			c0,19.563-15.915,35.478-35.478,35.478H68.87c-19.563,0-35.478-15.915-35.478-35.478V141.217
			c0-19.563,15.915-35.478,35.478-35.478H443.13c19.563,0,35.478,15.915,35.478,35.478V370.783z"/>
	</g>
</g>
<g>
	<g>
		<path d="M361.739,139.13H150.261c-9.22,0-16.696,7.475-16.696,16.696v200.348c0,9.22,7.475,16.696,16.696,16.696h211.478
			c9.22,0,16.696-7.475,16.696-16.696V155.826C378.435,146.606,370.96,139.13,361.739,139.13z M345.043,339.478H166.957V172.522
			h178.087V339.478z"/>
	</g>
</g>
<g>
	<g>
		<path d="M83.478,205.913c-9.22,0-16.696,7.475-16.696,16.696v66.783c0,9.22,7.475,16.696,16.696,16.696
			s16.696-7.475,16.696-16.696v-66.783C100.174,213.388,92.699,205.913,83.478,205.913z"/>
	</g>
</g>
<g>
	<g>
		<circle cx="428.522" cy="256" r="16.696"/>
	</g>
</g>
<g>
	<g>
		<path d="M301.197,238.63l-33.388-33.389c-6.609-6.609-17.2-6.417-23.617,0l-33.388,33.389c-6.52,6.52-6.52,17.091,0,23.611
			c6.518,6.52,17.09,6.52,23.609-0.001l4.891-4.891v37.608c0,9.22,7.475,16.696,16.696,16.696c9.22,0,16.696-7.475,16.696-16.696
			V257.35l4.891,4.891c6.519,6.52,17.091,6.521,23.611,0C307.718,255.721,307.718,245.15,301.197,238.63z"/>
	</g>
</g>
<g>
</g>
<g>
</g>
<g>
</g>
<g>
</g>
<g>
</g>
<g>
</g>
<g>
</g>
<g>
</g>
<g>
</g>
<g>
</g>
<g>
</g>
<g>
</g>
<g>
</g>
<g>
</g>
<g>
</g>
</svg>
