<?xml version="1.0" encoding="iso-8859-1"?>
<!-- Generator: Adobe Illustrator 19.0.0, SVG Export Plug-In . SVG Version: 6.00 Build 0)  -->
<svg version="1.1" id="Layer_1" xmlns="http://www.w3.org/2000/svg" xmlns:xlink="http://www.w3.org/1999/xlink" x="0px" y="0px"
	 viewBox="0 0 512 512" style="enable-background:new 0 0 512 512;" xml:space="preserve">
<g>
	<g>
		<path d="M507.11,255.325l-50.763-50.763V94.609c0-9.22-7.475-16.696-16.696-16.696h-66.783c-9.22,0-16.696,7.475-16.696,16.696
			v9.78L267.805,16.02c-6.519-6.519-17.091-6.519-23.611,0C238.017,22.196,13.781,246.432,4.889,255.324
			c-6.519,6.52-6.519,17.092,0,23.611c6.52,6.519,17.091,6.519,23.611,0l27.152-27.15v232.389c0,9.22,7.475,16.696,16.696,16.696
			h367.304c9.22,0,16.696-7.475,16.696-16.696V251.785l27.152,27.152c6.52,6.52,17.091,6.52,23.611,0
			C513.63,272.417,513.63,261.846,507.11,255.325z M422.956,467.478H89.043V218.394L256,51.437
			c8.681,8.681,158.348,158.348,166.957,166.957V467.478z M422.956,171.172l-33.391-33.391v-26.476h33.391V171.172z"/>
	</g>
</g>
<g>
	<g>
		<path d="M371.758,208.298c-1.438-6.253-6.361-11.119-12.54-12.54c-44.63-10.237-84.636-8.147-118.909,6.214
			c-78.466,32.876-104.112,122.741-72.311,173.934l-28.95,28.949c-6.519,6.52-6.519,17.092,0.001,23.612
			c6.521,6.52,17.091,6.52,23.611,0l28.964-28.964c50.31,30.959,141.267,6.982,174.241-72.29
			C380.054,293.108,382.036,253.099,371.758,208.298z M256,231.786c18.824-7.224,40.612-10.088,64.416-8.294L256,287.908V231.786z
			 M222.608,251.935v69.364l-29.905,29.905C181.337,323.584,191.007,280.08,222.608,251.935z M216.415,374.714l29.67-29.67h69.669
			C286.692,377.135,243.496,385.573,216.415,374.714z M336.284,311.652h-56.806l64.736-64.736
			C346.506,273.495,342.857,294.758,336.284,311.652z"/>
	</g>
</g>
<g>
</g>
<g>
</g>
<g>
</g>
<g>
</g>
<g>
</g>
<g>
</g>
<g>
</g>
<g>
</g>
<g>
</g>
<g>
</g>
<g>
</g>
<g>
</g>
<g>
</g>
<g>
</g>
<g>
</g>
</svg>
