<?xml version="1.0" encoding="iso-8859-1"?>
<!-- Generator: Adobe Illustrator 19.0.0, SVG Export Plug-In . SVG Version: 6.00 Build 0)  -->
<svg version="1.1" id="Layer_1" xmlns="http://www.w3.org/2000/svg" xmlns:xlink="http://www.w3.org/1999/xlink" x="0px" y="0px"
	 viewBox="0 0 512.001 512.001" style="enable-background:new 0 0 512.001 512.001;" xml:space="preserve">
<g>
	<g>
		<path d="M339.479,200.348H172.522c-9.22,0-16.696,7.475-16.696,16.696c0,9.22,7.475,16.696,16.696,16.696h166.957
			c9.22,0,16.696-7.475,16.696-16.696C356.174,207.823,348.699,200.348,339.479,200.348z"/>
	</g>
</g>
<g>
	<g>
		<path d="M507.111,255.326l-50.763-50.763V94.609c0-9.22-7.475-16.696-16.696-16.696H372.87c-9.22,0-16.696,7.475-16.696,16.696
			v9.78L267.805,16.02c-6.519-6.519-17.091-6.519-23.611,0C238.116,22.099,13.779,246.436,4.89,255.325
			c-6.52,6.519-6.52,17.091,0,23.611c6.52,6.52,17.092,6.52,23.611,0l27.152-27.15v232.389c0,9.22,7.475,16.696,16.696,16.696
			c12.031,0,359.633,0,367.304,0c9.22,0,16.696-7.475,16.696-16.696V251.785l27.152,27.152c6.52,6.52,17.091,6.52,23.611,0
			C513.631,272.418,513.631,261.846,507.111,255.326z M356.174,467.479H155.827v-33.391h200.348V467.479z M356.174,400.696H155.827
			v-33.391h200.348V400.696z M356.174,333.913H155.827v-33.391h200.348V333.913z M422.957,467.479h-33.391V283.827
			c0-9.22-7.475-16.696-16.696-16.696H139.131c-9.22,0-16.696,7.475-16.696,16.696v183.652H89.044V218.394L256.001,51.437
			c8.681,8.681,158.347,158.347,166.957,166.957V467.479z M422.957,171.172l-33.391-33.391v-26.476h33.391V171.172z"/>
	</g>
</g>
<g>
</g>
<g>
</g>
<g>
</g>
<g>
</g>
<g>
</g>
<g>
</g>
<g>
</g>
<g>
</g>
<g>
</g>
<g>
</g>
<g>
</g>
<g>
</g>
<g>
</g>
<g>
</g>
<g>
</g>
</svg>
