<?xml version="1.0" encoding="iso-8859-1"?>
<!-- Generator: Adobe Illustrator 19.0.0, SVG Export Plug-In . SVG Version: 6.00 Build 0)  -->
<svg version="1.1" id="Layer_1" xmlns="http://www.w3.org/2000/svg" xmlns:xlink="http://www.w3.org/1999/xlink" x="0px" y="0px"
	 viewBox="0 0 512 512" style="enable-background:new 0 0 512 512;" xml:space="preserve">
<g>
	<g>
		<path d="M456.348,311.652H342.687c13.344-75.455,12.407-71.464,18.297-104.347c12.446-69.482,23.772-126.957-22.345-173.075
			C316.566,12.157,287.216,0,256,0s-60.566,12.157-82.639,34.231c-46.244,46.244-34.743,103.828-22.345,173.068
			c5.924,33.082,4.916,28.695,18.297,104.353H55.652c-27.618,0-50.087,22.469-50.087,50.087v33.391
			c0,21.766,13.959,40.323,33.391,47.215v19.567c0,27.618,22.469,50.087,50.087,50.087h333.913
			c27.618,0,50.087-22.469,50.087-50.087v-19.567c19.433-6.892,33.391-25.45,33.391-47.215v-33.391
			C506.435,334.121,483.966,311.652,456.348,311.652z M196.971,57.842c15.768-15.767,36.732-24.45,59.029-24.45
			s43.262,8.683,59.028,24.45c31.513,31.514,26.476,68.837,13.088,143.577c-6.017,33.586-4.877,28.518-19.339,110.235H203.222
			c-14.31-80.868-13.32-76.625-19.338-110.239C170.502,126.672,165.467,89.346,196.971,57.842z M439.652,461.913
			c0,9.206-7.49,16.696-16.696,16.696H89.044c-9.206,0-16.696-7.49-16.696-16.696v-16.696h367.304V461.913z M473.043,395.13
			c0,9.206-7.49,16.696-16.696,16.696H55.652c-9.206,0-16.696-7.49-16.696-16.696v-33.391c0-9.206,7.49-16.696,16.696-16.696
			c7.756,0,393.451,0,400.696,0c9.206,0,16.696,7.49,16.696,16.696V395.13z"/>
	</g>
</g>
<g>
	<g>
		<path d="M291.404,81.436c-5.491-5.472-17.389-14.654-35.408-14.654c-18.061,0-29.946,9.202-35.423,14.687
			c-6.516,6.525-6.508,17.095,0.018,23.611c6.524,6.514,17.094,6.509,23.611-0.018c2.227-2.231,6.082-4.89,11.795-4.89
			c5.709,0,9.584,2.67,11.832,4.911c6.529,6.509,17.1,6.493,23.611-0.036C297.95,98.517,297.934,87.946,291.404,81.436z"/>
	</g>
</g>
<g>
</g>
<g>
</g>
<g>
</g>
<g>
</g>
<g>
</g>
<g>
</g>
<g>
</g>
<g>
</g>
<g>
</g>
<g>
</g>
<g>
</g>
<g>
</g>
<g>
</g>
<g>
</g>
<g>
</g>
</svg>
