<?xml version="1.0" encoding="iso-8859-1"?>
<!-- Generator: Adobe Illustrator 19.0.0, SVG Export Plug-In . SVG Version: 6.00 Build 0)  -->
<svg version="1.1" id="Layer_1" xmlns="http://www.w3.org/2000/svg" xmlns:xlink="http://www.w3.org/1999/xlink" x="0px" y="0px"
	 viewBox="0 0 512 512" style="enable-background:new 0 0 512 512;" xml:space="preserve">
<g>
	<g>
		<path d="M507.109,171.847L406.935,71.673c-3.13-3.132-7.376-4.891-11.805-4.891h-116.87V16.696c0-9.22-7.475-16.696-16.696-16.696
			h-66.783c-9.22,0-16.696,7.475-16.696,16.696v50.087H16.696C7.475,66.783,0,74.258,0,83.478v200.348
			c0,9.22,7.475,16.696,16.696,16.696h161.391v194.783c0,9.22,7.475,16.696,16.696,16.696h66.783c9.22,0,16.696-7.475,16.696-16.696
			V300.522h116.87c4.429,0,8.675-1.759,11.805-4.891l100.174-100.174C513.631,188.938,513.631,178.366,507.109,171.847z
			 M211.478,33.391h33.391v33.391h-33.391V33.391z M244.87,478.609h-33.391V300.522h33.391V478.609z M388.215,267.131
			c-18.304,0-336.406,0-354.824,0V100.174c3.377,0,347.482,0,354.824,0l83.478,83.478L388.215,267.131z"/>
	</g>
</g>
<g>
	<g>
		<path d="M217.043,200.348H83.478c-9.22,0-16.696,7.475-16.696,16.696c0,9.22,7.475,16.696,16.696,16.696h133.565
			c9.22,0,16.696-7.475,16.696-16.696C233.739,207.823,226.264,200.348,217.043,200.348z"/>
	</g>
</g>
<g>
	<g>
		<path d="M372.87,133.565H83.478c-9.22,0-16.696,7.475-16.696,16.696s7.475,16.696,16.696,16.696H372.87
			c9.22,0,16.696-7.475,16.696-16.696S382.09,133.565,372.87,133.565z"/>
	</g>
</g>
<g>
</g>
<g>
</g>
<g>
</g>
<g>
</g>
<g>
</g>
<g>
</g>
<g>
</g>
<g>
</g>
<g>
</g>
<g>
</g>
<g>
</g>
<g>
</g>
<g>
</g>
<g>
</g>
<g>
</g>
</svg>
