<?xml version="1.0" encoding="iso-8859-1"?>
<!-- Generator: Adobe Illustrator 19.0.0, SVG Export Plug-In . SVG Version: 6.00 Build 0)  -->
<svg version="1.1" id="Layer_1" xmlns="http://www.w3.org/2000/svg" xmlns:xlink="http://www.w3.org/1999/xlink" x="0px" y="0px"
	 viewBox="0 0 512 512" style="enable-background:new 0 0 512 512;" xml:space="preserve">
<g>
	<g>
		<path d="M495.304,356.174h-16.696v-235.13c0-36.057-29.334-65.391-65.391-65.391H98.788c-36.135,0-65.396,29.123-65.391,65.278
			c0.009,69.636,0.028,169.015,0.057,235.244H16.696C7.475,356.174,0,363.649,0,372.87v7.652c0,41.81,34.016,75.826,75.826,75.826
			h360.348c41.81,0,75.826-34.016,75.826-75.826v-7.652C512,363.649,504.525,356.174,495.304,356.174z M98.788,89.043h314.429
			c17.645,0,32,14.355,32,32v235.13H66.845c-0.029-66.226-0.048-165.61-0.057-235.248C66.786,103.273,81.065,89.043,98.788,89.043z
			 M436.174,422.957H75.826c-20.296,0-37.31-14.322-41.464-33.391c5.287,0,437.996,0,443.277,0
			C473.484,408.635,456.47,422.957,436.174,422.957z"/>
	</g>
</g>
<g>
	<g>
		<path d="M295.631,127.325c-6.519-6.52-17.091-6.52-23.611,0L105.064,294.282c-6.52,6.52-6.52,17.091,0,23.611
			c6.519,6.52,17.091,6.521,23.611,0l166.957-166.957C302.151,144.416,302.151,133.845,295.631,127.325z"/>
	</g>
</g>
<g>
	<g>
		<path d="M406.936,127.325c-6.52-6.521-17.092-6.521-23.611,0L216.369,294.282c-6.52,6.52-6.52,17.091,0,23.611
			c6.519,6.52,17.091,6.521,23.611,0l166.956-166.957C413.457,144.416,413.457,133.846,406.936,127.325z"/>
	</g>
</g>
<g>
</g>
<g>
</g>
<g>
</g>
<g>
</g>
<g>
</g>
<g>
</g>
<g>
</g>
<g>
</g>
<g>
</g>
<g>
</g>
<g>
</g>
<g>
</g>
<g>
</g>
<g>
</g>
<g>
</g>
</svg>
