<?xml version="1.0" encoding="iso-8859-1"?>
<!-- Generator: Adobe Illustrator 19.0.0, SVG Export Plug-In . SVG Version: 6.00 Build 0)  -->
<svg version="1.1" id="Layer_1" xmlns="http://www.w3.org/2000/svg" xmlns:xlink="http://www.w3.org/1999/xlink" x="0px" y="0px"
	 viewBox="0 0 512.001 512.001" style="enable-background:new 0 0 512.001 512.001;" xml:space="preserve">
<g>
	<g>
		<path d="M445.217,107.428V22.271c0-13.328-14.889-21.268-25.956-13.892l-54.643,36.429c-24.332,16.221-66.326,27.55-102.123,27.55
			h-99.191c-42.849,0-79.26,28.069-91.827,66.783h-21.39C22.469,139.14,0,161.609,0,189.227c0,27.618,22.469,50.087,50.087,50.087
			h21.39c6.052,18.641,17.63,34.812,32.796,46.571l26.012,182.086c3.133,21.934,22.204,38.474,44.36,38.474h43.374
			c27.271,0,48.213-24.18,44.359-51.148l-11.802-82.612c28.1-2.147,51.278-23.026,56.026-51.239l1.685-10.012
			c21.646,4.847,42.037,12.684,56.331,22.214l54.643,36.429c11.006,7.338,25.956-0.477,25.956-13.892v-85.158
			c38.057-7.756,66.783-41.484,66.783-81.799C512.001,148.914,483.275,115.185,445.217,107.428z M66.783,205.923H50.087
			c-9.206,0-16.696-7.49-16.696-16.696s7.49-16.696,16.696-16.696h16.696V205.923z M218.018,473.053h-43.374
			c-5.646,0-10.506-4.215-11.304-9.804l-22.841-159.881c7.315,1.779,14.95,2.728,22.804,2.728h44.029l4.771,33.391h-4.601
			c-9.22,0-16.696,7.475-16.696,16.696s7.475,16.696,16.696,16.696h9.371l4.771,33.391h-14.141c-9.22,0-16.696,7.475-16.696,16.696
			c0,9.22,7.475,16.696,16.696,16.696h18.912l2.908,20.358C230.305,466.898,224.976,473.053,218.018,473.053z M273.674,315.904
			c-2.297,13.65-14.002,23.561-27.841,23.583l-4.77-33.389c23.23,0,25.864-0.117,34.184,0.459L273.674,315.904z M345.045,287.176
			c-29.132-10.402-60.171-14.471-82.549-14.471h-99.191c-34.81,0-63.131-28.32-63.131-63.131v-40.696
			c0-34.809,28.32-63.13,63.131-63.13h99.191c22.377,0,53.416-4.068,82.549-14.471V287.176z M411.826,122.444
			c0,4.892,0,197.615,0,202.543c-31.666-21.11-29.796-19.913-33.391-22.113V75.58c3.639-2.225,1.877-1.103,33.391-22.113V122.444z
			 M445.217,236.454v-94.452c19.435,6.891,33.391,25.46,33.391,47.226S464.652,229.563,445.217,236.454z"/>
	</g>
</g>
<g>
</g>
<g>
</g>
<g>
</g>
<g>
</g>
<g>
</g>
<g>
</g>
<g>
</g>
<g>
</g>
<g>
</g>
<g>
</g>
<g>
</g>
<g>
</g>
<g>
</g>
<g>
</g>
<g>
</g>
</svg>
