<?xml version="1.0" encoding="iso-8859-1"?>
<!-- Generator: Adobe Illustrator 19.0.0, SVG Export Plug-In . SVG Version: 6.00 Build 0)  -->
<svg version="1.1" id="Layer_1" xmlns="http://www.w3.org/2000/svg" xmlns:xlink="http://www.w3.org/1999/xlink" x="0px" y="0px"
	 viewBox="0 0 512 512" style="enable-background:new 0 0 512 512;" xml:space="preserve">
<g>
	<g>
		<path d="M370.783,0H141.217c-37.975,0-68.87,30.895-68.87,68.87V443.13c0,37.975,30.895,68.87,68.87,68.87h229.565
			c37.975,0,68.87-30.895,68.87-68.87V68.87C439.652,30.895,408.757,0,370.783,0z M406.261,443.13
			c0,19.563-15.915,35.478-35.478,35.478H141.217c-19.563,0-35.478-15.915-35.478-35.478V68.87
			c0-19.563,15.915-35.478,35.478-35.478h229.565c19.563,0,35.478,15.915,35.478,35.478V443.13z"/>
	</g>
</g>
<g>
	<g>
		<path d="M356.174,133.565H155.826c-9.22,0-16.696,7.475-16.696,16.696v211.478c0,9.22,7.475,16.696,16.696,16.696h200.348
			c9.22,0,16.696-7.475,16.696-16.696V150.261C372.87,141.04,365.394,133.565,356.174,133.565z M339.478,345.043H172.522V166.957
			h166.957V345.043z"/>
	</g>
</g>
<g>
	<g>
		<path d="M289.391,66.783h-66.783c-9.22,0-16.696,7.475-16.696,16.696s7.475,16.696,16.696,16.696h66.783
			c9.22,0,16.696-7.475,16.696-16.696S298.612,66.783,289.391,66.783z"/>
	</g>
</g>
<g>
	<g>
		<circle cx="256" cy="428.522" r="16.696"/>
	</g>
</g>
<g>
	<g>
		<path d="M301.198,238.63l-33.39-33.389c-6.575-6.574-17.194-6.421-23.617,0l-33.388,33.389c-6.52,6.519-6.52,17.091,0,23.611
			c6.519,6.519,17.091,6.519,23.611,0l4.891-4.891v37.606c0,9.22,7.475,16.696,16.696,16.696s16.696-7.475,16.696-16.696V257.35
			l4.891,4.891c6.52,6.52,17.091,6.52,23.611,0C307.719,255.722,307.719,245.15,301.198,238.63z"/>
	</g>
</g>
<g>
</g>
<g>
</g>
<g>
</g>
<g>
</g>
<g>
</g>
<g>
</g>
<g>
</g>
<g>
</g>
<g>
</g>
<g>
</g>
<g>
</g>
<g>
</g>
<g>
</g>
<g>
</g>
<g>
</g>
</svg>
