<?xml version="1.0" encoding="iso-8859-1"?>
<!-- Generator: Adobe Illustrator 19.0.0, SVG Export Plug-In . SVG Version: 6.00 Build 0)  -->
<svg version="1.1" id="Layer_1" xmlns="http://www.w3.org/2000/svg" xmlns:xlink="http://www.w3.org/1999/xlink" x="0px" y="0px"
	 viewBox="0 0 512 512" style="enable-background:new 0 0 512 512;" xml:space="preserve">
<g>
	<g>
		<path d="M456.348,0H55.652C28.034,0,5.565,22.469,5.565,50.087v200.348c0,27.618,22.469,50.087,50.087,50.087h50.087v33.391
			H55.652c-9.22,0-16.696,7.475-16.696,16.696s7.475,16.696,16.696,16.696h150.261v128c0,9.22,7.475,16.696,16.696,16.696h66.783
			c9.22,0,16.696-7.475,16.696-16.696v-128h150.261c9.22,0,16.696-7.475,16.696-16.696s-7.475-16.696-16.696-16.696h-50.087v-33.391
			h50.087c27.618,0,50.087-22.469,50.087-50.087V50.087C506.435,22.469,483.966,0,456.348,0z M205.913,333.913H139.13v-33.391
			h66.783V333.913z M272.696,478.609h-33.391V300.522h33.391V478.609z M372.87,333.913h-66.783v-33.391h66.783V333.913z
			 M473.043,250.435c0,9.206-7.49,16.696-16.696,16.696c-14.142,0-380.671,0-400.696,0c-9.206,0-16.696-7.49-16.696-16.696V50.087
			c0-9.206,7.49-16.696,16.696-16.696h50.087v33.391H89.044c-9.22,0-16.696,7.475-16.696,16.696s7.475,16.696,16.696,16.696h66.783
			c9.22,0,16.696-7.475,16.696-16.696s-7.475-16.696-16.696-16.696H139.13V33.391h100.174v33.391h-16.696
			c-9.22,0-16.696,7.475-16.696,16.696s7.475,16.696,16.696,16.696h66.783c9.22,0,16.696-7.475,16.696-16.696
			s-7.475-16.696-16.696-16.696h-16.696V33.391H372.87v33.391h-16.696c-9.22,0-16.696,7.475-16.696,16.696
			s7.475,16.696,16.696,16.696h66.783c9.22,0,16.696-7.475,16.696-16.696s-7.475-16.696-16.696-16.696h-16.696V33.391h50.087
			c9.206,0,16.696,7.49,16.696,16.696V250.435z"/>
	</g>
</g>
<g>
</g>
<g>
</g>
<g>
</g>
<g>
</g>
<g>
</g>
<g>
</g>
<g>
</g>
<g>
</g>
<g>
</g>
<g>
</g>
<g>
</g>
<g>
</g>
<g>
</g>
<g>
</g>
<g>
</g>
</svg>
