<?xml version="1.0" encoding="iso-8859-1"?>
<!-- Generator: Adobe Illustrator 19.0.0, SVG Export Plug-In . SVG Version: 6.00 Build 0)  -->
<svg version="1.1" id="Layer_1" xmlns="http://www.w3.org/2000/svg" xmlns:xlink="http://www.w3.org/1999/xlink" x="0px" y="0px"
	 viewBox="0 0 512 512" style="enable-background:new 0 0 512 512;" xml:space="preserve">
<g>
	<g>
		<path d="M509.128,174.29L442.413,74.217c-3.096-4.645-8.308-7.434-13.891-7.434H233.739V16.696c0-9.22-7.475-16.696-16.696-16.696
			H116.87c-9.22,0-16.696,7.475-16.696,16.696v50.087H83.478c-5.582,0-10.795,2.789-13.892,7.435L2.866,174.297
			C1.007,177.074,0,180.35,0,183.652v311.652C0,504.525,7.475,512,16.696,512h478.609c9.22,0,16.696-7.475,16.696-16.696V183.652
			C512,180.455,511.031,177.08,509.128,174.29z M133.565,33.391h66.783v33.391h-66.783V33.391z M92.414,100.174h327.174
			l44.522,66.783H47.892L92.414,100.174z M478.609,478.609H33.391V200.348h445.217V478.609z"/>
	</g>
</g>
<g>
	<g>
		<path d="M217.043,233.739H83.478c-9.22,0-16.696,7.475-16.696,16.696V384c0,9.22,7.475,16.696,16.696,16.696h133.565
			c9.22,0,16.696-7.475,16.696-16.696V250.435C233.739,241.214,226.264,233.739,217.043,233.739z M100.174,267.13h33.391v33.391
			h-33.391V267.13z M200.348,367.304H100.174v-33.391h100.174V367.304z M200.348,300.522h-33.391V267.13h33.391V300.522z"/>
	</g>
</g>
<g>
	<g>
		<path d="M428.522,233.739H294.957c-9.22,0-16.696,7.475-16.696,16.696V384c0,9.22,7.475,16.696,16.696,16.696h133.565
			c9.22,0,16.696-7.475,16.696-16.696V250.435C445.217,241.214,437.742,233.739,428.522,233.739z M311.652,267.13h33.391v33.391
			h-33.391V267.13z M411.826,367.304H311.652v-33.391h100.174V367.304z M411.826,300.522h-33.391V267.13h33.391V300.522z"/>
	</g>
</g>
<g>
</g>
<g>
</g>
<g>
</g>
<g>
</g>
<g>
</g>
<g>
</g>
<g>
</g>
<g>
</g>
<g>
</g>
<g>
</g>
<g>
</g>
<g>
</g>
<g>
</g>
<g>
</g>
<g>
</g>
</svg>
