<?xml version="1.0" encoding="iso-8859-1"?>
<!-- Generator: Adobe Illustrator 19.0.0, SVG Export Plug-In . SVG Version: 6.00 Build 0)  -->
<svg version="1.1" id="Layer_1" xmlns="http://www.w3.org/2000/svg" xmlns:xlink="http://www.w3.org/1999/xlink" x="0px" y="0px"
	 viewBox="0 0 512 512" style="enable-background:new 0 0 512 512;" xml:space="preserve">
<g>
	<g>
		<path d="M461.911,33.388H298.359L274.131,5.699c-6.651-7.602-18.485-7.594-25.13,0l-24.229,27.689H50.089
			c-27.618,0-50.087,22.469-50.087,50.087v278.259c0,27.618,22.468,50.087,50.087,50.087h50.087v83.478
			c0,14.898,18.056,22.252,28.5,11.805l95.283-95.283h237.953c27.618,0,50.087-22.469,50.087-50.087V83.474
			C511.998,55.856,489.529,33.388,461.911,33.388z M261.566,42.046l80.075,91.515h-29.989c-9.22,0-16.696,7.475-16.696,16.696
			v116.869h-66.782V150.256c0-9.22-7.475-16.696-16.696-16.696h-29.989L261.566,42.046z M478.608,361.733
			c0,9.206-7.49,16.696-16.696,16.696H217.044c-4.429,0-8.675,1.76-11.805,4.891l-71.673,71.672v-59.867
			c0-9.22-7.475-16.696-16.696-16.696H50.089c-9.206,0-16.696-7.49-16.696-16.695V83.474c0-9.206,7.49-16.695,16.696-16.695h145.466
			l-63.423,72.484c-9.435,10.784-1.737,27.689,12.565,27.689h50.087v116.869c0,9.22,7.475,16.696,16.696,16.696h100.173
			c9.22,0,16.696-7.475,16.696-16.696V166.952h50.087c14.329,0,21.982-16.925,12.565-27.689l-63.423-72.484h134.336
			c9.206,0,16.696,7.49,16.696,16.695V361.733z"/>
	</g>
</g>
<g>
</g>
<g>
</g>
<g>
</g>
<g>
</g>
<g>
</g>
<g>
</g>
<g>
</g>
<g>
</g>
<g>
</g>
<g>
</g>
<g>
</g>
<g>
</g>
<g>
</g>
<g>
</g>
<g>
</g>
</svg>
