<?xml version="1.0" encoding="iso-8859-1"?>
<!-- Generator: Adobe Illustrator 19.0.0, SVG Export Plug-In . SVG Version: 6.00 Build 0)  -->
<svg version="1.1" id="Layer_1" xmlns="http://www.w3.org/2000/svg" xmlns:xlink="http://www.w3.org/1999/xlink" x="0px" y="0px"
	 viewBox="0 0 512 512" style="enable-background:new 0 0 512 512;" xml:space="preserve">
<g>
	<g>
		<path d="M503.074,231.667c-35.678-52.563-88.161-94.352-151.147-115.589c6.242-10.672,9.678-22.943,9.678-35.578
			c0-38.847-31.605-70.451-70.451-70.451c-12.819,0-24.838,3.458-35.203,9.465c-10.638-6.154-22.763-9.465-35.248-9.465
			c-38.847,0-70.451,31.605-70.451,70.451c0,12.646,3.44,24.924,9.691,35.601C98.285,136.925,45.393,177.983,8.939,231.665
			c-18.478,27.212-7.141,64.767,23.269,77.8l12.124,5.196c-9.871,24.469-15.246,49.968-15.246,74.403
			c0,66.335,39.394,112.888,106.487,112.888h240.709c66.979,0,106.438-46.918,106.438-113.537c0-24.266-5.278-49.545-14.971-73.797
			l12.047-5.163C510.264,296.397,521.5,258.817,503.074,231.667z M291.153,45.275c19.423,0,35.226,15.802,35.226,35.226
			c0,9.809-4.145,19.18-11.257,25.809c-17.175-3.377-34.801-5.252-52.821-5.61c-4.128-5.89-6.373-12.921-6.373-20.198
			C255.928,61.077,271.73,45.275,291.153,45.275z M220.702,45.275c3.006,0,5.968,0.391,8.828,1.13
			c-5.616,10.111-8.828,21.733-8.828,34.096c0,7.454,1.182,14.778,3.438,21.737c-9.251,0.944-18.387,2.305-27.397,4.079
			c-7.118-6.627-11.266-16.001-11.266-25.816C185.476,61.077,201.278,45.275,220.702,45.275z M376.282,466.726H135.573
			c-48.249,0-71.262-31.743-71.262-77.662c0-24.543,6.674-50.531,18.718-74.843c0.297-0.525,0.577-1.065,0.824-1.63
			c31.527-62.198,92.807-106.284,172.074-106.284c78.439,0,140.729,42.87,172.607,106.715c0.181,0.379,0.362,0.759,0.565,1.12
			c11.842,24.097,18.394,49.876,18.394,74.272C447.494,434.701,424.312,466.726,376.282,466.726z M465.92,277.077l-13.717,5.879
			c-40.169-68.313-110.778-111.876-196.277-111.876c-81.895,0-154.246,41.385-195.96,111.957l-13.884-5.95
			c-10.004-4.287-14.075-16.691-8.003-25.633c49.887-73.467,129.288-115.601,217.842-115.601
			c88.682,0,168.142,42.133,218.006,115.597C479.987,260.379,475.931,272.787,465.92,277.077z"/>
	</g>
</g>
<g>
</g>
<g>
</g>
<g>
</g>
<g>
</g>
<g>
</g>
<g>
</g>
<g>
</g>
<g>
</g>
<g>
</g>
<g>
</g>
<g>
</g>
<g>
</g>
<g>
</g>
<g>
</g>
<g>
</g>
</svg>
