<?xml version="1.0" encoding="iso-8859-1"?>
<!-- Generator: Adobe Illustrator 19.0.0, SVG Export Plug-In . SVG Version: 6.00 Build 0)  -->
<svg version="1.1" id="Layer_1" xmlns="http://www.w3.org/2000/svg" xmlns:xlink="http://www.w3.org/1999/xlink" x="0px" y="0px"
	 viewBox="0 0 512 512" style="enable-background:new 0 0 512 512;" xml:space="preserve">
<g>
	<g>
		<path d="M461.913,133.565h-50.087V83.478C411.826,37.448,374.378,0,328.348,0H183.652c-46.03,0-83.478,37.448-83.478,83.478
			v50.087H50.087C22.469,133.565,0,156.034,0,183.652v278.261C0,489.531,22.469,512,50.087,512h411.826
			C489.531,512,512,489.531,512,461.913V183.652C512,156.034,489.531,133.565,461.913,133.565z M133.565,83.478
			c0-27.618,22.469-50.087,50.087-50.087h144.696c27.618,0,50.087,22.469,50.087,50.087v50.087h-33.391V83.478
			c0-9.22-7.475-16.696-16.696-16.696H183.652c-9.22,0-16.696,7.475-16.696,16.696v50.087h-33.391V83.478z M311.652,100.174v33.391
			H200.348v-33.391H311.652z M478.609,461.913c0,9.206-7.49,16.696-16.696,16.696H50.087c-9.206,0-16.696-7.49-16.696-16.696
			v-187.35l150.261,56.592V384c0,9.22,7.475,16.696,16.696,16.696h111.304c9.22,0,16.696-7.475,16.696-16.696v-52.845
			l150.261-56.592V461.913z M294.957,333.913v33.391h-77.913v-33.391H294.957z M217.043,300.522V267.13h77.913v33.391H217.043z
			 M478.609,238.882l-150.261,56.592v-45.039c0-9.22-7.475-16.696-16.696-16.696H200.348c-9.22,0-16.696,7.475-16.696,16.696v45.039
			L33.391,238.882v-55.23c0-9.206,7.49-16.696,16.696-16.696c13.532,0,391.984,0,411.826,0c9.206,0,16.696,7.49,16.696,16.696
			V238.882z"/>
	</g>
</g>
<g>
</g>
<g>
</g>
<g>
</g>
<g>
</g>
<g>
</g>
<g>
</g>
<g>
</g>
<g>
</g>
<g>
</g>
<g>
</g>
<g>
</g>
<g>
</g>
<g>
</g>
<g>
</g>
<g>
</g>
</svg>
