<?xml version="1.0" encoding="iso-8859-1"?>
<!-- Generator: Adobe Illustrator 19.0.0, SVG Export Plug-In . SVG Version: 6.00 Build 0)  -->
<svg version="1.1" id="Layer_1" xmlns="http://www.w3.org/2000/svg" xmlns:xlink="http://www.w3.org/1999/xlink" x="0px" y="0px"
	 viewBox="0 0 512 512" style="enable-background:new 0 0 512 512;" xml:space="preserve">
<g>
	<g>
		<path d="M448,139.184v-16.749c0-9.22-7.475-16.696-16.696-16.696c-9.22,0-16.696,7.475-16.696,16.696v16.696h-36.174V55.652
			c0-27.618-22.469-50.087-50.087-50.087H183.652c-27.618,0-50.087,22.469-50.087,50.087v83.478h-30.609v-16.696
			c0-9.22-7.475-16.696-16.696-16.696s-16.696,7.475-16.696,16.696v16.696h-3.478C29.647,139.13,0,168.777,0,205.217v235.13
			c0,36.44,29.647,66.087,66.087,66.087h379.826c36.44,0,66.087-29.647,66.087-66.087v-235.13
			C512,169.478,483.476,140.291,448,139.184z M166.957,55.652c0-9.206,7.49-16.696,16.696-16.696h144.696
			c9.206,0,16.696,7.49,16.696,16.696v16.696H166.957V55.652z M166.957,105.739h178.087v33.391H166.957V105.739z M478.609,440.348
			c0,18.028-14.668,32.696-32.696,32.696H66.087c-18.028,0-32.696-14.668-32.696-32.696v-235.13
			c0-18.028,14.668-32.696,32.696-32.696h379.826c18.028,0,32.696,14.668,32.696,32.696V440.348z"/>
	</g>
</g>
<g>
</g>
<g>
</g>
<g>
</g>
<g>
</g>
<g>
</g>
<g>
</g>
<g>
</g>
<g>
</g>
<g>
</g>
<g>
</g>
<g>
</g>
<g>
</g>
<g>
</g>
<g>
</g>
<g>
</g>
</svg>
