<?xml version="1.0" encoding="iso-8859-1"?>
<!-- Generator: Adobe Illustrator 19.0.0, SVG Export Plug-In . SVG Version: 6.00 Build 0)  -->
<svg version="1.1" id="Layer_1" xmlns="http://www.w3.org/2000/svg" xmlns:xlink="http://www.w3.org/1999/xlink" x="0px" y="0px"
	 viewBox="0 0 512 512" style="enable-background:new 0 0 512 512;" xml:space="preserve">
<g>
	<g>
		<circle cx="150.261" cy="389.565" r="16.696"/>
	</g>
</g>
<g>
	<g>
		<path d="M183.652,172.522H83.478c-9.22,0-16.696,7.475-16.696,16.696V256c0,9.22,7.475,16.696,16.696,16.696h100.174
			c9.22,0,16.696-7.475,16.696-16.696v-66.783C200.348,179.997,192.873,172.522,183.652,172.522z M166.957,239.304h-66.783v-33.391
			h66.783V239.304z"/>
	</g>
</g>
<g>
	<g>
		<path d="M317.217,105.739H116.87c-9.22,0-16.696,7.475-16.696,16.696c0,9.22,7.475,16.696,16.696,16.696h200.348
			c9.22,0,16.696-7.475,16.696-16.696C333.913,113.214,326.438,105.739,317.217,105.739z"/>
	</g>
</g>
<g>
	<g>
		<path d="M495.304,372.87h-61.217V122.435c0-46.03-37.448-83.478-83.478-83.478H83.478C37.448,38.957,0,76.405,0,122.435v267.13
			c0,9.22,7.475,16.696,16.696,16.696h51.767c7.756,38.057,41.484,66.783,81.799,66.783c40.314,0,74.042-28.725,81.799-66.783
			c12.916,0,235.203,0,246.549,0v16.696c0,9.22,7.475,16.696,16.696,16.696S512,432.177,512,422.957v-33.391
			C512,380.345,504.525,372.87,495.304,372.87z M150.261,439.652c-27.618,0-50.087-22.469-50.087-50.087
			c0-27.618,22.469-50.087,50.087-50.087c27.618,0,50.087,22.469,50.087,50.087C200.348,417.183,177.879,439.652,150.261,439.652z
			 M333.913,372.87H267.13V205.913h66.783V372.87z M400.696,372.87h-33.391V189.217c0-9.22-7.475-16.696-16.696-16.696H250.435
			c-9.22,0-16.696,7.475-16.696,16.696V372.87h-1.68c-7.756-38.057-41.484-66.783-81.799-66.783
			c-40.314,0-74.042,28.725-81.799,66.783H33.391V122.435c0-27.618,22.469-50.087,50.087-50.087h267.13
			c27.618,0,50.087,22.469,50.087,50.087V372.87z"/>
	</g>
</g>
<g>
</g>
<g>
</g>
<g>
</g>
<g>
</g>
<g>
</g>
<g>
</g>
<g>
</g>
<g>
</g>
<g>
</g>
<g>
</g>
<g>
</g>
<g>
</g>
<g>
</g>
<g>
</g>
<g>
</g>
</svg>
