<?xml version="1.0" encoding="iso-8859-1"?>
<!-- Generator: Adobe Illustrator 19.0.0, SVG Export Plug-In . SVG Version: 6.00 Build 0)  -->
<svg version="1.1" id="Layer_1" xmlns="http://www.w3.org/2000/svg" xmlns:xlink="http://www.w3.org/1999/xlink" x="0px" y="0px"
	 viewBox="0 0 512.003 512.003" style="enable-background:new 0 0 512.003 512.003;" xml:space="preserve">
<g>
	<g>
		<path d="M496.481,83.827l-68.306-68.304c-20.695-20.694-54.367-20.695-75.063-0.001c-20.19,20.19-20.719,52.509-1.648,73.334
			L184.159,256.159l-11.948-11.947c-19.808-19.81-51.873-19.813-71.683,0C65.659,279.08,44.419,300.32,4.949,339.791
			c-6.599,6.597-6.599,17.296,0,23.894c6.598,6.599,17.296,6.599,23.894,0l59.737-59.737l23.896,23.896l-59.737,59.734
			c-6.599,6.597-6.599,17.296,0,23.894c6.598,6.599,17.296,6.599,23.894,0l59.737-59.737l23.894,23.894l-59.737,59.737
			c-6.598,6.597-6.598,17.296,0,23.894c6.599,6.598,17.296,6.598,23.894,0l59.737-59.737l23.896,23.896l-59.737,59.737
			c-6.598,6.597-6.598,17.296,0,23.894c6.599,6.599,17.296,6.599,23.894,0c1.272-1.272,94.329-94.329,95.579-95.579
			c19.764-19.764,19.764-51.921,0-71.684l-11.947-11.947l167.304-167.305c20.797,19.044,53.118,18.568,73.332-1.648
			C517.176,138.195,517.176,104.521,496.481,83.827z M243.896,387.579l-11.947,11.947L112.476,280.052l11.948-11.947
			c6.604-6.604,17.289-6.604,23.894,0l95.579,95.579C250.5,370.288,250.5,380.976,243.896,387.579z M231.949,303.948l-23.896-23.896
			L375.317,112.79l23.894,23.894L231.949,303.948z M472.584,134.995c-7.533,7.536-19.735,7.539-27.271,0c-0.001,0-0.001,0-0.001,0
			l-68.305-68.306c-7.536-7.533-7.539-19.734,0-27.273c7.538-7.538,19.737-7.537,27.274,0l68.305,68.305
			C480.122,115.258,480.123,127.458,472.584,134.995z"/>
	</g>
</g>
<g>
</g>
<g>
</g>
<g>
</g>
<g>
</g>
<g>
</g>
<g>
</g>
<g>
</g>
<g>
</g>
<g>
</g>
<g>
</g>
<g>
</g>
<g>
</g>
<g>
</g>
<g>
</g>
<g>
</g>
</svg>
