<?xml version="1.0" encoding="iso-8859-1"?>
<!-- Generator: Adobe Illustrator 19.0.0, SVG Export Plug-In . SVG Version: 6.00 Build 0)  -->
<svg version="1.1" id="Layer_1" xmlns="http://www.w3.org/2000/svg" xmlns:xlink="http://www.w3.org/1999/xlink" x="0px" y="0px"
	 viewBox="0 0 512 512" style="enable-background:new 0 0 512 512;" xml:space="preserve">
<g>
	<g>
		<path d="M461.913,389.566h-94.609v-33.391h50.087c9.22,0,16.696-7.475,16.696-16.696V239.305c0-9.22-7.475-16.696-16.696-16.696
			h-50.087v-50.087c0-64.442-52.428-116.87-116.87-116.87H83.478C37.448,55.653,0,93.102,0,139.132v166.956
			c0,64.442,52.428,116.87,116.87,116.87c17.475,0,333.133,0,345.043,0c9.206,0,16.696,7.489,16.696,16.696
			c0,9.22,7.475,16.693,16.696,16.693S512,448.869,512,439.649C512,412.034,489.531,389.566,461.913,389.566z M367.304,256.001
			h33.391v66.783h-33.391V256.001z M333.913,389.566H116.87c-46.03,0-83.478-37.448-83.478-83.478V139.132
			c0-27.618,22.469-50.087,50.087-50.087h166.957c46.03,0,83.478,37.448,83.478,83.478
			C333.913,182.281,333.913,376.84,333.913,389.566z"/>
	</g>
</g>
<g>
	<g>
		<path d="M183.652,122.436c-64.442,0-116.87,52.428-116.87,116.87s52.428,116.87,116.87,116.87s116.87-52.428,116.87-116.87
			S248.094,122.436,183.652,122.436z M183.652,322.784c-46.03,0-83.478-37.448-83.478-83.478s37.448-83.478,83.478-83.478
			s83.478,37.448,83.478,83.478S229.682,322.784,183.652,322.784z"/>
	</g>
</g>
<g>
</g>
<g>
</g>
<g>
</g>
<g>
</g>
<g>
</g>
<g>
</g>
<g>
</g>
<g>
</g>
<g>
</g>
<g>
</g>
<g>
</g>
<g>
</g>
<g>
</g>
<g>
</g>
<g>
</g>
</svg>
