<?xml version="1.0" encoding="iso-8859-1"?>
<!-- Generator: Adobe Illustrator 19.0.0, SVG Export Plug-In . SVG Version: 6.00 Build 0)  -->
<svg version="1.1" id="Layer_1" xmlns="http://www.w3.org/2000/svg" xmlns:xlink="http://www.w3.org/1999/xlink" x="0px" y="0px"
	 viewBox="0 0 512 512" style="enable-background:new 0 0 512 512;" xml:space="preserve">
<g>
	<g>
		<path d="M405.936,180.378L372.545,13.421C370.985,5.618,364.132,0,356.174,0H155.826c-7.958,0-14.811,5.618-16.371,13.421
			l-33.391,166.957c-2.066,10.328,5.845,19.97,16.371,19.97h116.87v213.158c-32.661,6.656-58.446,32.442-65.103,65.103h-18.375
			c-9.22,0-16.696,7.475-16.696,16.696S146.606,512,155.826,512c7.954,0,192.388,0,200.348,0c9.22,0,16.696-7.475,16.696-16.696
			s-7.475-16.696-16.696-16.696h-18.375c-6.656-32.661-32.442-58.446-65.103-65.103V200.348h33.391v50.087
			c0,9.22,7.475,16.696,16.696,16.696s16.696-7.475,16.696-16.696v-50.087h50.087C400.097,200.348,408.001,190.7,405.936,180.378z
			 M303.227,478.609h-94.453c6.891-19.435,25.46-33.391,47.226-33.391S296.336,459.174,303.227,478.609z M142.8,166.957
			l26.713-133.565h172.974L369.2,166.957H142.8z"/>
	</g>
</g>
<g>
</g>
<g>
</g>
<g>
</g>
<g>
</g>
<g>
</g>
<g>
</g>
<g>
</g>
<g>
</g>
<g>
</g>
<g>
</g>
<g>
</g>
<g>
</g>
<g>
</g>
<g>
</g>
<g>
</g>
</svg>
