<?xml version="1.0" encoding="iso-8859-1"?>
<!-- Generator: Adobe Illustrator 19.0.0, SVG Export Plug-In . SVG Version: 6.00 Build 0)  -->
<svg version="1.1" id="Layer_1" xmlns="http://www.w3.org/2000/svg" xmlns:xlink="http://www.w3.org/1999/xlink" x="0px" y="0px"
	 viewBox="0 0 512 512" style="enable-background:new 0 0 512 512;" xml:space="preserve">
<g>
	<g>
		<path d="M489.739,278.261h-16.696V83.478c0-9.22-7.475-16.696-16.696-16.696h-50.087V16.696c0-9.22-7.475-16.696-16.696-16.696
			h-267.13c-9.22,0-16.696,7.475-16.696,16.696v50.087H55.652c-9.22,0-16.696,7.475-16.696,16.696v194.783H22.261
			c-9.22,0-16.696,7.475-16.696,16.696s7.475,16.696,16.696,16.696h16.696c0,19.636,0,163.857,0,183.652
			c0,9.22,7.475,16.696,16.696,16.696c7.306,0,392.614,0,400.696,0c9.22,0,16.696-7.475,16.696-16.696c0-19.624,0-164.033,0-183.652
			h16.696c9.22,0,16.696-7.475,16.696-16.696S498.96,278.261,489.739,278.261z M139.13,33.391H372.87v33.391H139.13V33.391z
			 M339.478,178.087h33.391v100.174h-33.391V178.087z M205.913,144.696v-44.522h100.174v44.522H205.913z M306.087,178.087v100.174
			h-33.391V178.087H306.087z M239.304,178.087v100.174h-33.391V178.087H239.304z M72.348,100.174c10.637,0,89.859,0,100.174,0
			v44.522H72.348V100.174z M172.522,178.087v100.174H139.13V178.087H172.522z M72.348,178.087h33.391v100.174H72.348V178.087z
			 M72.348,378.435h33.391v33.391H72.348V378.435z M239.304,478.609h-33.391v-33.391h33.391V478.609z M208.785,411.826
			c6.892-19.433,25.45-33.391,47.215-33.391s40.323,13.959,47.215,33.391H208.785z M306.087,478.609h-33.391v-33.391h33.391V478.609
			z M439.652,411.826h-33.391v-33.391h33.391V411.826z M439.652,345.043h-50.087c-9.22,0-16.696,7.475-16.696,16.696v66.783
			c0,9.22,7.475,16.696,16.696,16.696h50.087v33.391H339.478v-50.087c0-46.03-37.448-83.478-83.478-83.478
			s-83.478,37.448-83.478,83.478v50.087H72.348v-33.391h50.087c9.22,0,16.696-7.475,16.696-16.696v-66.783
			c0-9.22-7.475-16.696-16.696-16.696H72.348v-33.391h367.304V345.043z M439.652,278.261h-33.391V178.087h33.391V278.261z
			 M439.652,144.696H339.478v-44.522c10.637,0,89.859,0,100.174,0V144.696z"/>
	</g>
</g>
<g>
</g>
<g>
</g>
<g>
</g>
<g>
</g>
<g>
</g>
<g>
</g>
<g>
</g>
<g>
</g>
<g>
</g>
<g>
</g>
<g>
</g>
<g>
</g>
<g>
</g>
<g>
</g>
<g>
</g>
</svg>
