<?xml version="1.0" encoding="iso-8859-1"?>
<!-- Generator: Adobe Illustrator 19.0.0, SVG Export Plug-In . SVG Version: 6.00 Build 0)  -->
<svg version="1.1" id="Layer_1" xmlns="http://www.w3.org/2000/svg" xmlns:xlink="http://www.w3.org/1999/xlink" x="0px" y="0px"
	 viewBox="0 0 512 512" style="enable-background:new 0 0 512 512;" xml:space="preserve">
<g>
	<g>
		<path d="M494.933,0C489.796,0,28.385,0,17.067,0C7.641,0,0,7.641,0,17.067v477.867C0,504.359,7.641,512,17.067,512
			c5.045,0,466.332,0,477.867,0c9.425,0,17.067-7.641,17.067-17.067V17.067C512,7.641,504.359,0,494.933,0z M324.267,102.4h54.124
			c5.151,14.527,16.682,26.059,31.209,31.209v39.983c-14.527,5.151-26.059,16.682-31.209,31.209h-54.124V102.4z M187.733,477.867
			h-153.6v-34.133h153.6V477.867z M187.733,409.6h-153.6v-34.133h153.6V409.6z M187.733,341.333h-153.6V307.2h153.6V341.333z
			 M187.733,204.8h-54.124c-5.151-14.527-16.682-26.059-31.209-31.209v-39.982c14.527-5.151,26.059-16.682,31.209-31.209h54.124
			V204.8z M187.733,68.267h-68.267c-9.425,0-17.067,7.641-17.067,17.067c0,9.411-7.656,17.067-17.067,17.067
			c-9.425,0-17.067,7.641-17.067,17.067v68.267c0,9.425,7.641,17.067,17.067,17.067c9.411,0,17.067,7.656,17.067,17.067
			c0,9.425,7.641,17.067,17.067,17.067h68.267c0,12.352,0,21.782,0,34.133h-153.6V34.133h153.6V68.267z M290.133,477.867h-68.267
			c0-12.295,0-165.112,0-170.667h68.267C290.133,312.754,290.133,465.571,290.133,477.867z M290.133,273.067h-68.267
			c0-9.004,0-229.936,0-238.933h68.267C290.133,43.133,290.133,264.069,290.133,273.067z M477.867,477.867h-153.6v-34.133h153.6
			V477.867z M477.867,409.6h-153.6v-34.133h153.6V409.6z M477.867,341.333h-153.6V307.2h153.6V341.333z M477.867,273.067h-153.6
			c0-12.352,0-21.782,0-34.133h68.267c9.425,0,17.067-7.641,17.067-17.067c0-9.411,7.656-17.067,17.067-17.067
			c9.425,0,17.067-7.641,17.067-17.067v-68.267c0-9.425-7.641-17.067-17.067-17.067c-9.411,0-17.067-7.656-17.067-17.067
			c0-9.425-7.641-17.067-17.067-17.067h-68.267V34.133h153.6V273.067z"/>
	</g>
</g>
<g>
</g>
<g>
</g>
<g>
</g>
<g>
</g>
<g>
</g>
<g>
</g>
<g>
</g>
<g>
</g>
<g>
</g>
<g>
</g>
<g>
</g>
<g>
</g>
<g>
</g>
<g>
</g>
<g>
</g>
</svg>
