<?xml version="1.0" encoding="iso-8859-1"?>
<!-- Generator: Adobe Illustrator 19.0.0, SVG Export Plug-In . SVG Version: 6.00 Build 0)  -->
<svg version="1.1" id="Layer_1" xmlns="http://www.w3.org/2000/svg" xmlns:xlink="http://www.w3.org/1999/xlink" x="0px" y="0px"
	 viewBox="0 0 512 512" style="enable-background:new 0 0 512 512;" xml:space="preserve">
<g>
	<g>
		<path d="M461.913,111.304H343.364c-2.168-10.642-6.379-20.547-12.186-29.305l53.497-53.497c6.52-6.52,6.52-17.091,0-23.611
			c-6.519-6.52-17.091-6.52-23.611,0l-53.497,53.497c-13.2-8.752-29.011-13.866-46.002-13.866c-16.99,0-32.801,5.113-46.002,13.866
			L162.067,4.89c-6.519-6.52-17.091-6.52-23.611,0s-6.52,17.091,0,23.611l53.497,53.497c-5.808,8.759-10.017,18.664-12.186,29.306
			H50.087C22.469,111.305,0,133.774,0,161.392v300.522c0,27.618,22.469,50.087,50.087,50.087h411.826
			c27.618,0,50.087-22.469,50.087-50.087V161.391C512,133.773,489.532,111.304,461.913,111.304z M261.565,77.912
			c21.766,0,40.323,13.96,47.215,33.391H214.35C221.243,91.872,239.801,77.912,261.565,77.912z M478.609,461.912
			c0,9.206-7.49,16.696-16.696,16.696H50.087c-9.206,0-16.696-7.49-16.696-16.696V161.391c0-9.206,7.49-16.696,16.696-16.696
			h411.826c9.206,0,16.696,7.49,16.696,16.696V461.912z"/>
	</g>
</g>
<g>
	<g>
		<path d="M328.348,178.086H83.479c-9.22,0-16.696,7.475-16.696,16.696v233.739c0,9.22,7.475,16.696,16.696,16.696h244.87
			c9.22,0,16.696-7.475,16.696-16.696V194.782C345.044,185.562,337.569,178.086,328.348,178.086z M311.652,411.826H100.174V211.478
			h211.478V411.826z"/>
	</g>
</g>
<g>
	<g>
		<circle cx="411.826" cy="211.478" r="16.696"/>
	</g>
</g>
<g>
	<g>
		<circle cx="411.826" cy="278.26" r="16.696"/>
	</g>
</g>
<g>
	<g>
		<path d="M428.522,345.043h-33.391c-9.22,0-16.696,7.475-16.696,16.696s7.475,16.696,16.696,16.696h33.391
			c9.22,0,16.696-7.475,16.696-16.696S437.742,345.043,428.522,345.043z"/>
	</g>
</g>
<g>
	<g>
		<path d="M428.522,411.826h-33.391c-9.22,0-16.696,7.475-16.696,16.696s7.475,16.696,16.696,16.696h33.391
			c9.22,0,16.696-7.475,16.696-16.696S437.742,411.826,428.522,411.826z"/>
	</g>
</g>
<g>
</g>
<g>
</g>
<g>
</g>
<g>
</g>
<g>
</g>
<g>
</g>
<g>
</g>
<g>
</g>
<g>
</g>
<g>
</g>
<g>
</g>
<g>
</g>
<g>
</g>
<g>
</g>
<g>
</g>
</svg>
