<?xml version="1.0" encoding="iso-8859-1"?>
<!-- Generator: Adobe Illustrator 19.0.0, SVG Export Plug-In . SVG Version: 6.00 Build 0)  -->
<svg version="1.1" id="Layer_1" xmlns="http://www.w3.org/2000/svg" xmlns:xlink="http://www.w3.org/1999/xlink" x="0px" y="0px"
	 viewBox="0 0 512 512" style="enable-background:new 0 0 512 512;" xml:space="preserve">
<g>
	<g>
		<path d="M467.131,0H44.87C20.128,0,0,20.128,0,44.87v355.478c0,24.741,20.128,44.869,44.87,44.869h71.999v16.696
			c0,27.618,22.469,50.087,50.087,50.087c27.618,0,50.087-22.469,50.087-50.087v-16.696h250.088
			c24.741,0,44.869-20.128,44.869-44.869V44.87C512,20.128,491.872,0,467.131,0z M126.782,345.043
			c-14.672,0-26.608-11.937-26.608-26.608v-6.783h66.783v6.783c0,14.671-11.936,26.608-26.608,26.608H126.782z M166.957,166.957
			v111.304h-66.783V166.957H166.957z M100.174,133.565v-6.783c0-14.671,11.936-26.608,26.608-26.608h13.566
			c14.672,0,26.608,11.937,26.608,26.608v6.783H100.174z M183.652,461.913c0,9.206-7.49,16.696-16.696,16.696
			s-16.696-7.49-16.696-16.696v-16.696h33.391V461.913z M478.609,400.348c0,6.33-5.149,11.479-11.479,11.479H150.261v-34.225
			c28.381-4.74,50.087-29.46,50.087-59.166V126.782c0-33.083-26.916-60-60-60h-13.566c-33.084,0-60,26.917-60,60v191.653
			c0,29.706,21.706,54.426,50.087,59.166v34.225H44.87c-6.33,0-11.479-5.149-11.479-11.478V44.87c0-6.33,5.149-11.479,11.479-11.479
			h422.261c6.329,0,11.478,5.149,11.478,11.479V400.348z"/>
	</g>
</g>
<g>
	<g>
		<path d="M407.13,66.783H282.957c-21.001,0-38.087,17.086-38.087,38.087v35.131c0,21,17.086,38.086,38.087,38.086h124.174
			c21,0,38.086-17.086,38.086-38.087v-35.13C445.217,83.869,428.131,66.783,407.13,66.783z M411.827,140h-0.001
			c0,2.589-2.107,4.696-4.696,4.696H282.957c-2.589,0-4.696-2.107-4.696-4.696v-35.13c0-2.589,2.107-4.696,4.696-4.696h124.174
			c2.589,0,4.696,2.107,4.696,4.696V140z"/>
	</g>
</g>
<g>
	<g>
		<circle cx="278.261" cy="228.174" r="16.696"/>
	</g>
</g>
<g>
	<g>
		<circle cx="278.261" cy="294.956" r="16.696"/>
	</g>
</g>
<g>
	<g>
		<circle cx="278.261" cy="361.739" r="16.696"/>
	</g>
</g>
<g>
	<g>
		<circle cx="345.043" cy="228.174" r="16.696"/>
	</g>
</g>
<g>
	<g>
		<circle cx="345.043" cy="294.956" r="16.696"/>
	</g>
</g>
<g>
	<g>
		<circle cx="345.043" cy="361.739" r="16.696"/>
	</g>
</g>
<g>
	<g>
		<circle cx="411.826" cy="228.174" r="16.696"/>
	</g>
</g>
<g>
	<g>
		<circle cx="411.826" cy="294.956" r="16.696"/>
	</g>
</g>
<g>
	<g>
		<circle cx="411.826" cy="361.739" r="16.696"/>
	</g>
</g>
<g>
</g>
<g>
</g>
<g>
</g>
<g>
</g>
<g>
</g>
<g>
</g>
<g>
</g>
<g>
</g>
<g>
</g>
<g>
</g>
<g>
</g>
<g>
</g>
<g>
</g>
<g>
</g>
<g>
</g>
</svg>
