<?xml version="1.0" encoding="iso-8859-1"?>
<!-- Generator: Adobe Illustrator 19.0.0, SVG Export Plug-In . SVG Version: 6.00 Build 0)  -->
<svg version="1.1" id="Layer_1" xmlns="http://www.w3.org/2000/svg" xmlns:xlink="http://www.w3.org/1999/xlink" x="0px" y="0px"
	 viewBox="0 0 512 512" style="enable-background:new 0 0 512 512;" xml:space="preserve">
<g>
	<g>
		<path d="M495.304,33.391H150.261c-9.22,0-16.696,7.475-16.696,16.696v50.087h-33.391V16.696C100.174,7.475,92.699,0,83.478,0
			H16.696C7.475,0,0,7.475,0,16.696v478.609C0,504.525,7.475,512,16.696,512h66.783c9.22,0,16.696-7.475,16.696-16.696V200.348
			h33.391v50.087c0,9.22,7.475,16.696,16.696,16.696h345.043c9.22,0,16.696-7.475,16.696-16.696V50.087
			C512,40.867,504.525,33.391,495.304,33.391z M66.783,478.609H33.391V33.391h33.391V478.609z M133.565,166.957h-33.391v-33.391
			h33.391V166.957z M478.609,233.739H166.957V66.783h311.652V233.739z"/>
	</g>
</g>
<g>
	<g>
		<path d="M317.217,166.957H217.043c-9.22,0-16.696,7.475-16.696,16.696c0,9.22,7.475,16.696,16.696,16.696h100.174
			c9.22,0,16.696-7.475,16.696-16.696C333.913,174.432,326.438,166.957,317.217,166.957z"/>
	</g>
</g>
<g>
	<g>
		<path d="M417.391,100.174H217.043c-9.22,0-16.696,7.475-16.696,16.696s7.475,16.696,16.696,16.696h200.348
			c9.22,0,16.696-7.475,16.696-16.696S426.612,100.174,417.391,100.174z"/>
	</g>
</g>
<g>
</g>
<g>
</g>
<g>
</g>
<g>
</g>
<g>
</g>
<g>
</g>
<g>
</g>
<g>
</g>
<g>
</g>
<g>
</g>
<g>
</g>
<g>
</g>
<g>
</g>
<g>
</g>
<g>
</g>
</svg>
