<?xml version="1.0" encoding="iso-8859-1"?>
<!-- Generator: Adobe Illustrator 19.0.0, SVG Export Plug-In . SVG Version: 6.00 Build 0)  -->
<svg version="1.1" id="Layer_1" xmlns="http://www.w3.org/2000/svg" xmlns:xlink="http://www.w3.org/1999/xlink" x="0px" y="0px"
	 viewBox="0 0 512 512" style="enable-background:new 0 0 512 512;" xml:space="preserve">
<g>
	<g>
		<path d="M506.435,250.435C506.435,112.021,394.427,0,256,0C117.586,0,5.565,112.008,5.565,250.435
			c0,25.19,3.901,61.053,12.515,89.15c-7.865,10.955-12.515,24.366-12.515,38.85c0,36.824,29.959,66.783,66.783,66.783
			c0,36.824,29.959,66.783,66.783,66.783s66.783-29.959,66.783-66.783V311.652c0-36.824-29.959-66.783-66.783-66.783
			s-66.783,29.959-66.783,66.783c-9.136,0-17.847,1.848-25.784,5.182c-4.666-20.139-7.608-44.858-7.608-66.4
			c0-49.141,16.425-94.513,44.062-130.934c16.442,23.977,46.82,32.424,72.676,22.081c64.683-25.872,135.929-25.873,200.613,0.001
			c25.971,10.388,56.3,1.798,72.675-22.082c27.635,36.421,44.061,81.793,44.061,130.934c0,21.542-2.941,46.26-7.608,66.4
			c-7.937-3.335-16.648-5.182-25.784-5.182c0-36.824-29.959-66.783-66.783-66.783s-66.783,29.959-66.783,66.783v133.565
			c0,36.824,29.959,66.783,66.783,66.783s66.783-29.959,66.783-66.783c36.824,0,66.783-29.959,66.783-66.783
			c0-14.484-4.65-27.895-12.515-38.85C502.534,311.487,506.435,275.625,506.435,250.435z M105.739,311.652
			c0-18.412,14.979-33.391,33.391-33.391c18.412,0,33.391,14.979,33.391,33.391v133.565c0,18.412-14.979,33.391-33.391,33.391
			c-18.412,0-33.391-14.979-33.391-33.391V311.652z M72.348,345.043v66.783c-18.412,0-33.391-14.979-33.391-33.391
			C38.957,360.023,53.936,345.043,72.348,345.043z M368.708,110.581c-72.68-29.073-152.733-29.074-225.416-0.001
			c-15.647,6.258-32.184-2.915-36.46-17.657C145.753,56.045,198.279,33.391,256,33.391s110.247,22.654,149.168,59.531
			C400.895,107.652,384.371,116.842,368.708,110.581z M406.261,445.217c0,18.412-14.979,33.391-33.391,33.391
			c-18.412,0-33.391-14.979-33.391-33.391V311.652c0-18.412,14.979-33.391,33.391-33.391c18.412,0,33.391,14.979,33.391,33.391
			V445.217z M439.652,411.826v-66.783c18.412,0,33.391,14.979,33.391,33.391C473.043,396.847,458.064,411.826,439.652,411.826z"/>
	</g>
</g>
<g>
</g>
<g>
</g>
<g>
</g>
<g>
</g>
<g>
</g>
<g>
</g>
<g>
</g>
<g>
</g>
<g>
</g>
<g>
</g>
<g>
</g>
<g>
</g>
<g>
</g>
<g>
</g>
<g>
</g>
</svg>
