<?xml version="1.0" encoding="iso-8859-1"?>
<!-- Generator: Adobe Illustrator 19.0.0, SVG Export Plug-In . SVG Version: 6.00 Build 0)  -->
<svg version="1.1" id="Layer_1" xmlns="http://www.w3.org/2000/svg" xmlns:xlink="http://www.w3.org/1999/xlink" x="0px" y="0px"
	 viewBox="0 0 512 512" style="enable-background:new 0 0 512 512;" xml:space="preserve">
<g>
	<g>
		<path d="M389.566,66.778h-75.131L269.357,6.673c-6.681-8.907-20.047-8.887-26.713,0l-45.079,60.105h-75.131
			c-27.618,0-50.088,22.469-50.088,50.088v345.047c0,27.618,22.469,50.088,50.088,50.088h267.133
			c27.618,0,50.088-22.469,50.088-50.088V116.865C439.654,89.247,417.185,66.778,389.566,66.778z M256,44.516l66.783,89.044h-33.389
			c-9.221,0-16.696,7.474-16.696,16.696l-0.002,61.218h-33.392v-61.218c0-9.221-7.475-16.696-16.696-16.696h-33.392L256,44.516z
			 M406.262,461.912c0,9.206-7.49,16.696-16.696,16.696H122.433c-9.206,0-16.696-7.49-16.696-16.696V116.865
			c0-9.206,7.49-16.696,16.696-16.696h50.087l-30.052,40.07c-8.235,10.98-0.388,26.713,13.357,26.713h50.087v61.218
			c0,9.221,7.475,16.696,16.696,16.696h66.783c9.221,0,16.696-7.474,16.696-16.696l0.002-61.218h50.085
			c13.724,0,21.603-15.717,13.357-26.713l-30.052-40.07h50.087c9.206,0,16.696,7.49,16.696,16.696V461.912z"/>
	</g>
</g>
<g>
	<g>
		<path d="M356.175,278.258h-27.107c-9.221,0-16.696,7.475-16.696,16.696c0,9.221,7.475,16.696,16.696,16.696h27.107
			c9.221,0,16.696-7.475,16.696-16.696C372.871,285.733,365.395,278.258,356.175,278.258z"/>
	</g>
</g>
<g>
	<g>
		<path d="M262.284,278.258H155.825c-9.221,0-16.696,7.475-16.696,16.696c0,9.221,7.475,16.696,16.696,16.696h106.459
			c9.221,0,16.696-7.475,16.696-16.696C278.98,285.733,271.505,278.258,262.284,278.258z"/>
	</g>
</g>
<g>
	<g>
		<path d="M356.175,345.041h-200.35c-9.221,0-16.696,7.475-16.696,16.696c0,9.221,7.475,16.696,16.696,16.696h200.35
			c9.221,0,16.696-7.475,16.696-16.696C372.871,352.517,365.395,345.041,356.175,345.041z"/>
	</g>
</g>
<g>
	<g>
		<path d="M356.175,411.825h-200.35c-9.221,0-16.696,7.475-16.696,16.696c0,9.221,7.475,16.696,16.696,16.696h200.35
			c9.221,0,16.696-7.475,16.696-16.696C372.871,419.3,365.395,411.825,356.175,411.825z"/>
	</g>
</g>
<g>
</g>
<g>
</g>
<g>
</g>
<g>
</g>
<g>
</g>
<g>
</g>
<g>
</g>
<g>
</g>
<g>
</g>
<g>
</g>
<g>
</g>
<g>
</g>
<g>
</g>
<g>
</g>
<g>
</g>
</svg>
