<?xml version="1.0" encoding="iso-8859-1"?>
<!-- Generator: Adobe Illustrator 19.0.0, SVG Export Plug-In . SVG Version: 6.00 Build 0)  -->
<svg version="1.1" id="Layer_1" xmlns="http://www.w3.org/2000/svg" xmlns:xlink="http://www.w3.org/1999/xlink" x="0px" y="0px"
	 viewBox="0 0 512.002 512.002" style="enable-background:new 0 0 512.002 512.002;" xml:space="preserve">
<g>
	<g>
		<path d="M406.806,128.801l-47.289-47.288c-19.683-19.684-51.412-19.52-70.932,0l-0.001,0.001
			c-19.552,19.551-19.655,51.278,0.001,70.93l47.288,47.288c19.556,19.557,51.378,19.555,70.933,0
			C426.363,180.177,426.363,148.356,406.806,128.801z M383.161,176.089c-0.336,0.336-0.689,0.643-1.044,0.944
			c-6.566,5.548-16.41,5.246-22.601-0.944l-47.288-47.288c-6.529-6.53-6.503-17.141,0-23.644c0,0,0,0,0.001-0.001
			c6.449-6.451,17.063-6.576,23.643,0l47.289,47.289C389.68,158.963,389.681,169.569,383.161,176.089z"/>
	</g>
</g>
<g>
	<g>
		<path d="M454.093,81.511l-47.288-47.289c-45.629-45.629-119.877-45.63-165.508,0c-41.618,41.618-45.277,107.04-10.981,152.844
			L28.501,388.885c-6.529,6.529-6.529,17.115,0,23.644l47.288,47.288c6.528,6.529,17.115,6.53,23.644,0l11.822-11.822l59.11,59.11
			c6.528,6.529,17.115,6.53,23.644,0l47.283-47.283c0.002-0.002,0.003-0.003,0.006-0.006c0.002-0.002,0.003-0.003,0.006-0.006
			l47.282-47.282c6.529-6.529,6.529-17.115,0-23.644l-59.11-59.11l71.765-71.765c45.484,34.163,110.864,31,152.853-10.99
			C499.831,201.282,499.836,127.253,454.093,81.511z M253.119,400.708l-23.644,23.644l-11.823-11.821
			c-6.528-6.528-17.115-6.529-23.644,0c-6.528,6.529-6.528,17.115,0,23.644l11.821,11.821l-23.644,23.644l-47.288-47.288
			c8.809-8.809,63.892-63.892,70.932-70.933L253.119,400.708z M430.449,223.377c-32.671,32.67-85.546,32.673-118.219,0
			c-6.525-6.526-17.117-6.528-23.644,0c0,0-195.863,195.862-200.975,200.974l-23.644-23.644l200.974-200.975
			c6.529-6.529,6.529-17.115,0-23.644c-32.593-32.594-32.593-85.627,0-118.22c32.594-32.593,85.626-32.593,118.22,0l47.288,47.289
			C463.118,137.825,463.123,190.704,430.449,223.377z"/>
	</g>
</g>
<g>
</g>
<g>
</g>
<g>
</g>
<g>
</g>
<g>
</g>
<g>
</g>
<g>
</g>
<g>
</g>
<g>
</g>
<g>
</g>
<g>
</g>
<g>
</g>
<g>
</g>
<g>
</g>
<g>
</g>
</svg>
