<?xml version="1.0" encoding="iso-8859-1"?>
<!-- Generator: Adobe Illustrator 19.0.0, SVG Export Plug-In . SVG Version: 6.00 Build 0)  -->
<svg version="1.1" id="Layer_1" xmlns="http://www.w3.org/2000/svg" xmlns:xlink="http://www.w3.org/1999/xlink" x="0px" y="0px"
	 viewBox="0 0 512 512" style="enable-background:new 0 0 512 512;" xml:space="preserve">
<g>
	<g>
		<path d="M461.913,0H50.087C22.469,0,0,22.469,0,50.087v300.522c0,27.618,22.469,50.087,50.087,50.087h139.13v77.913h-55.652
			c-9.22,0-16.696,7.475-16.696,16.696S124.345,512,133.565,512c8.616,0,232.701,0,244.87,0c9.22,0,16.696-7.475,16.696-16.696
			s-7.475-16.696-16.696-16.696h-55.652v-77.913h139.13c27.618,0,50.087-22.469,50.087-50.087V50.087
			C512,22.469,489.531,0,461.913,0z M289.391,478.609h-66.783v-77.913h66.783V478.609z M478.609,350.609
			c0,9.206-7.49,16.696-16.696,16.696c-5.109,0-399.895,0-411.826,0c-9.206,0-16.696-7.49-16.696-16.696V50.087
			c0-9.206,7.49-16.696,16.696-16.696h411.826c9.206,0,16.696,7.49,16.696,16.696V350.609z"/>
	</g>
</g>
<g>
	<g>
		<path d="M428.522,66.783H83.478c-9.22,0-16.696,7.475-16.696,16.696v233.739c0,9.22,7.475,16.696,16.696,16.696h345.043
			c9.22,0,16.696-7.475,16.696-16.696V83.478C445.217,74.258,437.742,66.783,428.522,66.783z M411.826,300.522H100.174V100.174
			h311.652V300.522z"/>
	</g>
</g>
<g>
	<g>
		<path d="M301.197,171.847l-33.388-33.389c-6.605-6.604-17.209-6.407-23.617,0l-33.388,33.389c-6.52,6.519-6.52,17.091,0,23.611
			c6.518,6.519,17.09,6.519,23.609-0.001l4.891-4.891v59.868c0,9.22,7.475,16.696,16.696,16.696c9.22,0,16.696-7.475,16.696-16.696
			v-59.867l4.891,4.891c6.52,6.52,17.091,6.52,23.611,0C307.718,188.939,307.718,178.367,301.197,171.847z"/>
	</g>
</g>
<g>
</g>
<g>
</g>
<g>
</g>
<g>
</g>
<g>
</g>
<g>
</g>
<g>
</g>
<g>
</g>
<g>
</g>
<g>
</g>
<g>
</g>
<g>
</g>
<g>
</g>
<g>
</g>
<g>
</g>
</svg>
