<?xml version="1.0" encoding="iso-8859-1"?>
<!-- Generator: Adobe Illustrator 19.0.0, SVG Export Plug-In . SVG Version: 6.00 Build 0)  -->
<svg version="1.1" id="Layer_1" xmlns="http://www.w3.org/2000/svg" xmlns:xlink="http://www.w3.org/1999/xlink" x="0px" y="0px"
	 viewBox="0 0 512.001 512.001" style="enable-background:new 0 0 512.001 512.001;" xml:space="preserve">
<g>
	<g>
		<path d="M339.478,294.958c0,46.03,37.448,83.478,83.478,83.478s83.478-37.448,83.478-83.478c0-2.232-0.54-4.832-1.537-6.997
			l-58.535-126.826c15.854-8.418,26.681-25.096,26.681-44.263c0-27.618-22.469-50.087-50.087-50.087H306.087V50.09
			c0-28.08-23.445-51.563-52.754-50.018c-26.589,1.392-47.418,24.191-47.42,51.903l-0.001,14.81H89.045
			c-27.618,0-50.087,22.469-50.087,50.087c0,19.168,10.827,35.845,26.681,44.263L7.104,287.962c-0.933,2.025-1.537,4.63-1.537,6.997
			c0,46.031,37.448,83.478,83.478,83.478s83.478-37.448,83.478-83.478c0-2.224-0.539-4.831-1.537-6.997l-55.848-121.003h90.776
			v244.868h-83.478c-27.618,0-50.087,22.469-50.087,50.087v33.391c0,9.22,7.475,16.696,16.696,16.696h333.912
			c9.22,0,16.696-7.475,16.696-16.696v-33.391c0-27.618-22.469-50.087-50.087-50.087h-83.478l0.002-244.868h90.774l-55.848,121.003
			C340.01,290.143,339.478,292.743,339.478,294.958z M256,166.959c5.854,0,11.472-1.018,16.698-2.873l-0.002,247.741h-33.391
			v-247.74C244.531,165.94,250.147,166.959,256,166.959z M239.305,116.872c0-9.206,7.49-16.696,16.696-16.696
			s16.696,7.49,16.696,16.696s-7.49,16.696-16.696,16.696S239.305,126.079,239.305,116.872z M239.305,51.98
			c0.001-9.779,7.078-18.106,15.774-18.561c9.647-0.521,17.617,7.133,17.617,16.672v19.567c-5.226-1.853-10.842-2.872-16.696-2.872
			c-5.853,0-11.471,1.018-16.697,2.873L239.305,51.98z M89.045,345.045c-21.768,0-40.335-13.956-47.226-33.391h94.451
			C129.38,331.089,110.812,345.045,89.045,345.045z M129.733,278.263H48.356l40.688-88.158L129.733,278.263z M89.045,133.568
			c-9.206,0-16.696-7.49-16.696-16.696s7.49-16.696,16.696-16.696h119.741c-1.853,5.226-2.872,10.843-2.872,16.696
			s1.018,11.47,2.872,16.696H89.045z M389.565,445.219c9.207,0,16.696,7.49,16.696,16.696v16.696H105.74v-16.696
			c0-9.206,7.49-16.696,16.696-16.696H389.565z M303.216,133.568c1.853-5.226,2.872-10.843,2.872-16.696s-1.018-11.47-2.872-16.696
			h119.741c9.206,0,16.696,7.49,16.696,16.696s-7.49,16.696-16.696,16.696H303.216z M422.956,190.105l40.688,88.158h-81.378
			L422.956,190.105z M470.181,311.654c-6.89,19.435-25.457,33.391-47.225,33.391s-40.335-13.956-47.226-33.391H470.181z"/>
	</g>
</g>
<g>
</g>
<g>
</g>
<g>
</g>
<g>
</g>
<g>
</g>
<g>
</g>
<g>
</g>
<g>
</g>
<g>
</g>
<g>
</g>
<g>
</g>
<g>
</g>
<g>
</g>
<g>
</g>
<g>
</g>
</svg>
