<?xml version="1.0" encoding="iso-8859-1"?>
<!-- Generator: Adobe Illustrator 19.0.0, SVG Export Plug-In . SVG Version: 6.00 Build 0)  -->
<svg version="1.1" id="Layer_1" xmlns="http://www.w3.org/2000/svg" xmlns:xlink="http://www.w3.org/1999/xlink" x="0px" y="0px"
	 viewBox="0 0 512 512" style="enable-background:new 0 0 512 512;" xml:space="preserve">
<g>
	<g>
		<path d="M460.8,34.133c-28.232,0-51.2,22.968-51.2,51.2c0,9.425,7.641,17.067,17.067,17.067s17.067-7.641,17.067-17.067
			c0-9.411,7.656-17.067,17.067-17.067c9.411,0,17.067,7.656,17.067,17.067v256c0,4.342-0.832,8.522-2.331,12.389
			c-9.998-46.053-51.066-80.656-100.069-80.656c-39.978,0-74.673,23.032-91.529,56.521c-16.901-11.069-38.976-11.069-55.876,0
			c-16.855-33.489-51.55-56.521-91.529-56.521c-49.912,0-91.59,35.898-100.592,83.228c-1.165-3.18-1.808-6.603-1.808-10.161v-260.8
			c0-9.411,7.656-17.067,17.067-17.067c9.411,0,17.067,7.656,17.067,17.067c0,9.425,7.641,17.067,17.067,17.067
			S102.4,94.759,102.4,85.333c0-28.232-22.968-51.2-51.2-51.2S0,57.102,0,85.333v260.8c0,25.797,15.305,48.442,38.312,58.301
			c12.527,42.4,51.816,73.432,98.221,73.432c59.914,0,107.558-51.606,101.951-111.949l5.583-5.583c6.58-6.579,17.284-6.579,23.865,0
			l5.583,5.583c-5.596,60.227,41.923,111.949,101.952,111.949c47.142,0,86.939-32.024,98.797-75.459
			C497.185,390.994,512,367.568,512,341.333v-256C512,57.102,489.032,34.133,460.8,34.133z M136.533,443.733
			c-37.642,0-68.267-30.624-68.267-68.267S98.891,307.2,136.533,307.2c37.642,0,68.267,30.624,68.267,68.267
			S174.176,443.733,136.533,443.733z M375.467,443.733c-37.642,0-68.267-30.624-68.267-68.267s30.624-68.267,68.267-68.267
			c37.642,0,68.267,30.624,68.267,68.267S413.109,443.733,375.467,443.733z"/>
	</g>
</g>
<g>
</g>
<g>
</g>
<g>
</g>
<g>
</g>
<g>
</g>
<g>
</g>
<g>
</g>
<g>
</g>
<g>
</g>
<g>
</g>
<g>
</g>
<g>
</g>
<g>
</g>
<g>
</g>
<g>
</g>
</svg>
