<?xml version="1.0" encoding="iso-8859-1"?>
<!-- Generator: Adobe Illustrator 19.0.0, SVG Export Plug-In . SVG Version: 6.00 Build 0)  -->
<svg version="1.1" id="Layer_1" xmlns="http://www.w3.org/2000/svg" xmlns:xlink="http://www.w3.org/1999/xlink" x="0px" y="0px"
	 viewBox="0 0 512 512" style="enable-background:new 0 0 512 512;" xml:space="preserve">
<g>
	<g>
		<path d="M436.312,79.026c-5.531-7.376-15.996-8.872-23.373-3.339l-125.31,93.983l-57.553-28.777
			c-5.656-2.829-12.426-2.219-17.484,1.576L79.026,242.643c-7.376,5.533-8.872,15.998-3.339,23.374
			c3.28,4.374,8.293,6.679,13.37,6.679c3.485,0,7.001-1.089,10.004-3.34l125.31-93.983l57.553,28.777
			c5.655,2.828,12.425,2.218,17.484-1.576L432.973,102.4C440.349,96.867,441.845,86.402,436.312,79.026z"/>
	</g>
</g>
<g>
	<g>
		<path d="M456.348,0H55.652C24.966,0,0,24.966,0,55.652v400.696C0,487.034,24.966,512,55.652,512h400.696
			C487.034,512,512,487.034,512,456.348V55.652C512,24.966,487.034,0,456.348,0z M478.609,456.348
			c0,12.275-9.986,22.261-22.261,22.261h-16.696V189.217c0-9.22-7.475-16.696-16.696-16.696c-9.22,0-16.696,7.475-16.696,16.696
			v289.391H372.87V239.304c0-9.22-7.475-16.696-16.696-16.696c-9.22,0-16.696,7.475-16.696,16.696v239.304h-33.391V289.391
			c0-9.22-7.475-16.696-16.696-16.696s-16.696,7.475-16.696,16.696v189.217h-33.391v-222.61c0-9.22-7.475-16.696-16.696-16.696
			s-16.696,7.475-16.696,16.696v222.61h-33.391V306.087c0-9.22-7.475-16.696-16.696-16.696s-16.696,7.475-16.696,16.696v172.522
			h-33.391V356.174c0-9.22-7.475-16.696-16.696-16.696c-9.22,0-16.696,7.475-16.696,16.696v122.435H55.652
			c-12.275,0-22.261-9.986-22.261-22.261V55.652c0-12.275,9.986-22.261,22.261-22.261h400.696c12.275,0,22.261,9.986,22.261,22.261
			V456.348z"/>
	</g>
</g>
<g>
</g>
<g>
</g>
<g>
</g>
<g>
</g>
<g>
</g>
<g>
</g>
<g>
</g>
<g>
</g>
<g>
</g>
<g>
</g>
<g>
</g>
<g>
</g>
<g>
</g>
<g>
</g>
<g>
</g>
</svg>
