<?xml version="1.0" encoding="iso-8859-1"?>
<!-- Generator: Adobe Illustrator 19.0.0, SVG Export Plug-In . SVG Version: 6.00 Build 0)  -->
<svg version="1.1" id="Layer_1" xmlns="http://www.w3.org/2000/svg" xmlns:xlink="http://www.w3.org/1999/xlink" x="0px" y="0px"
	 viewBox="0 0 512 512" style="enable-background:new 0 0 512 512;" xml:space="preserve">
<g>
	<g>
		<path d="M461.913,5.565H50.087C22.469,5.565,0,28.034,0,55.652v100.174c0,9.22,7.475,16.696,16.696,16.696h16.696v283.826
			c0,27.618,22.469,50.087,50.087,50.087h345.043c27.618,0,50.087-22.469,50.087-50.087V172.522h16.696
			c9.22,0,16.696-7.475,16.696-16.696V55.652C512,28.034,489.531,5.565,461.913,5.565z M445.217,456.348
			c0,9.206-7.49,16.696-16.696,16.696H83.478c-9.206,0-16.696-7.49-16.696-16.696V172.522h66.783v16.696
			c0,9.22,7.475,16.696,16.696,16.696s16.696-7.475,16.696-16.696v-16.696h178.087v16.696c0,9.22,7.475,16.696,16.696,16.696
			s16.696-7.475,16.696-16.696v-16.696h66.783V456.348z M478.609,139.13c-10.458,0-88.862,0-100.174,0v-16.696
			c0-9.22-7.475-16.696-16.696-16.696s-16.696,7.475-16.696,16.696v16.696H166.957v-16.696c0-9.22-7.475-16.696-16.696-16.696
			s-16.696,7.475-16.696,16.696v16.696c-12.705,0-85.759,0-100.174,0V55.652c0-9.206,7.49-16.696,16.696-16.696h411.826
			c9.206,0,16.696,7.49,16.696,16.696V139.13z"/>
	</g>
</g>
<g>
	<g>
		<path d="M328.348,306.087h-16.696v-33.391h50.087c9.22,0,16.696-7.475,16.696-16.696c0-9.22-7.475-16.696-16.696-16.696h-66.783
			c-9.22,0-16.696,7.475-16.696,16.696v66.783c0,9.22,7.475,16.696,16.696,16.696h33.391c9.206,0,16.696,7.49,16.696,16.696
			c0,9.206-7.49,16.696-16.696,16.696h-33.391c-9.22,0-16.696,7.475-16.696,16.696c0,9.22,7.475,16.696,16.696,16.696h33.391
			c27.618,0,50.087-22.469,50.087-50.087C378.435,328.556,355.966,306.087,328.348,306.087z"/>
	</g>
</g>
<g>
	<g>
		<path d="M217.043,372.87H170.38c3.927-7.514,11.263-12.459,22.176-19.314c17.38-10.914,41.183-25.862,41.183-64.165
			c0-27.618-22.469-50.087-50.087-50.087c-27.618,0-50.087,22.469-50.087,50.087c0,9.22,7.475,16.696,16.696,16.696
			s16.696-7.475,16.696-16.696c0-9.206,7.49-16.696,16.696-16.696c9.206,0,16.696,7.49,16.696,16.696
			c0,19-8.294,25.051-25.549,35.888c-17.401,10.928-41.234,25.894-41.234,64.286c0,9.22,7.475,16.696,16.696,16.696h66.783
			c9.22,0,16.696-7.475,16.696-16.696C233.739,380.345,226.264,372.87,217.043,372.87z"/>
	</g>
</g>
<g>
</g>
<g>
</g>
<g>
</g>
<g>
</g>
<g>
</g>
<g>
</g>
<g>
</g>
<g>
</g>
<g>
</g>
<g>
</g>
<g>
</g>
<g>
</g>
<g>
</g>
<g>
</g>
<g>
</g>
</svg>
