<?xml version="1.0" encoding="iso-8859-1"?>
<!-- Generator: Adobe Illustrator 19.0.0, SVG Export Plug-In . SVG Version: 6.00 Build 0)  -->
<svg version="1.1" id="Layer_1" xmlns="http://www.w3.org/2000/svg" xmlns:xlink="http://www.w3.org/1999/xlink" x="0px" y="0px"
	 viewBox="0 0 511.999 511.999" style="enable-background:new 0 0 511.999 511.999;" xml:space="preserve">
<g>
	<g>
		<path d="M507.109,277.585l-66.783-66.783c-3.131-3.131-7.377-4.89-11.805-4.89H306.086c0-3.017,0-146.966,0-150.261
			c0-27.618-22.469-50.087-50.087-50.087c-27.618,0-50.087,22.469-50.087,50.087v16.696H83.478c-4.428,0-8.674,1.76-11.805,4.891
			L4.89,144.021c-6.52,6.52-6.52,17.091,0,23.611l66.783,66.783c3.13,3.13,7.377,4.89,11.805,4.89h122.435
			c0,3.102,0,244.617,0,250.435c0,9.22,7.475,16.696,16.696,16.696h66.783c9.22,0,16.696-7.475,16.696-16.696v-116.87h122.435
			c4.428,0,8.674-1.76,11.805-4.891l66.783-66.783C513.629,294.675,513.629,284.105,507.109,277.585z M205.912,205.912H90.393
			l-50.087-50.087l50.087-50.087h115.519V205.912z M272.695,473.043h-33.391V372.869h33.391V473.043z M272.695,339.478h-33.391
			V239.304h33.391V339.478z M272.695,205.912h-33.391V105.739h33.391V205.912z M272.695,72.347h-33.391V55.652
			c0-9.206,7.49-16.696,16.696-16.696c9.206,0,16.696,7.49,16.696,16.696V72.347z M421.605,339.478H306.086V239.304h115.519
			l50.086,50.087L421.605,339.478z"/>
	</g>
</g>
<g>
</g>
<g>
</g>
<g>
</g>
<g>
</g>
<g>
</g>
<g>
</g>
<g>
</g>
<g>
</g>
<g>
</g>
<g>
</g>
<g>
</g>
<g>
</g>
<g>
</g>
<g>
</g>
<g>
</g>
</svg>
