<?xml version="1.0" encoding="iso-8859-1"?>
<!-- Generator: Adobe Illustrator 19.0.0, SVG Export Plug-In . SVG Version: 6.00 Build 0)  -->
<svg version="1.1" id="Layer_1" xmlns="http://www.w3.org/2000/svg" xmlns:xlink="http://www.w3.org/1999/xlink" x="0px" y="0px"
	 viewBox="0 0 512 512" style="enable-background:new 0 0 512 512;" xml:space="preserve">
<g>
	<g>
		<path d="M467.478,0H178.087c-9.22,0-16.696,7.475-16.696,16.696v50.087h-50.087c-9.22,0-16.696,7.475-16.696,16.696v50.087H44.522
			c-9.22,0-16.696,7.475-16.696,16.696v345.043c0,9.22,7.475,16.696,16.696,16.696h289.391c9.22,0,16.696-7.475,16.696-16.696
			v-50.087h50.087c9.22,0,16.696-7.475,16.696-16.696v-50.087h50.087c9.22,0,16.696-7.475,16.696-16.696V16.696
			C484.174,7.475,476.699,0,467.478,0z M317.217,478.609h-256V166.957h256V478.609z M384,411.826h-33.391V150.261
			c0-9.22-7.475-16.696-16.696-16.696H128v-33.391h256V411.826z M450.783,345.043h-33.391V83.478c0-9.22-7.475-16.696-16.696-16.696
			H194.783V33.391h256V345.043z"/>
	</g>
</g>
<g>
	<g>
		<path d="M267.13,211.478H111.304c-9.22,0-16.696,7.475-16.696,16.696c0,9.22,7.475,16.696,16.696,16.696H267.13
			c9.22,0,16.696-7.475,16.696-16.696C283.826,218.953,276.351,211.478,267.13,211.478z"/>
	</g>
</g>
<g>
	<g>
		<path d="M267.13,278.261h-41.75c-9.22,0-16.696,7.475-16.696,16.696s7.475,16.696,16.696,16.696h41.75
			c9.22,0,16.696-7.475,16.696-16.696S276.351,278.261,267.13,278.261z"/>
	</g>
</g>
<g>
	<g>
		<path d="M158.598,278.261h-47.293c-9.22,0-16.696,7.475-16.696,16.696s7.475,16.696,16.696,16.696h47.293
			c9.22,0,16.696-7.475,16.696-16.696S167.818,278.261,158.598,278.261z"/>
	</g>
</g>
<g>
	<g>
		<path d="M267.13,345.043H111.304c-9.22,0-16.696,7.475-16.696,16.696s7.475,16.696,16.696,16.696H267.13
			c9.22,0,16.696-7.475,16.696-16.696S276.351,345.043,267.13,345.043z"/>
	</g>
</g>
<g>
	<g>
		<path d="M267.13,411.826h-77.913c-9.22,0-16.696,7.475-16.696,16.696s7.475,16.696,16.696,16.696h77.913
			c9.22,0,16.696-7.475,16.696-16.696S276.351,411.826,267.13,411.826z"/>
	</g>
</g>
<g>
</g>
<g>
</g>
<g>
</g>
<g>
</g>
<g>
</g>
<g>
</g>
<g>
</g>
<g>
</g>
<g>
</g>
<g>
</g>
<g>
</g>
<g>
</g>
<g>
</g>
<g>
</g>
<g>
</g>
</svg>
