<?xml version="1.0" encoding="iso-8859-1"?>
<!-- Generator: Adobe Illustrator 19.0.0, SVG Export Plug-In . SVG Version: 6.00 Build 0)  -->
<svg version="1.1" id="Layer_1" xmlns="http://www.w3.org/2000/svg" xmlns:xlink="http://www.w3.org/1999/xlink" x="0px" y="0px"
	 viewBox="0 0 512 512" style="enable-background:new 0 0 512 512;" xml:space="preserve">
<g>
	<g>
		<path d="M495.304,100.174c9.22,0,16.696-7.475,16.696-16.696s-7.475-16.696-16.696-16.696h-16.696V33.391h16.696
			c9.22,0,16.696-7.475,16.696-16.696S504.525,0,495.304,0h-66.783c-9.22,0-16.696,7.475-16.696,16.696s7.475,16.696,16.696,16.696
			h16.696v33.391h-16.696c-9.22,0-16.696,7.475-16.696,16.696s7.475,16.696,16.696,16.696h16.696v33.391H233.739V16.696
			c0-9.22-7.475-16.696-16.696-16.696H16.696C7.475,0,0,7.475,0,16.696v478.609C0,504.525,7.475,512,16.696,512
			c12.325,0,473.138,0,478.609,0c9.22,0,16.696-7.475,16.696-16.696V150.261c0-9.22-7.475-16.696-16.696-16.696h-16.696v-33.391
			H495.304z M200.348,478.609c-5.433,0-154.928,0-166.957,0V33.391h166.957V478.609z M411.826,478.609H300.522v-33.391h111.304
			V478.609z M411.826,411.826H300.522v-33.391h111.304V411.826z M411.826,345.043H300.522v-33.391h111.304V345.043z
			 M478.609,478.609h-33.391V294.957c0-9.22-7.475-16.696-16.696-16.696H283.826c-9.22,0-16.696,7.475-16.696,16.696v183.652
			h-33.391V166.957h244.87V478.609z"/>
	</g>
</g>
<g>
	<g>
		<path d="M150.261,66.783H83.478c-9.22,0-16.696,7.475-16.696,16.696v133.565c0,9.22,7.475,16.696,16.696,16.696h66.783
			c9.22,0,16.696-7.475,16.696-16.696V83.478C166.957,74.258,159.481,66.783,150.261,66.783z M133.565,200.348h-33.391v-33.391
			h33.391V200.348z M133.565,133.565h-33.391v-33.391h33.391V133.565z"/>
	</g>
</g>
<g>
	<g>
		<path d="M150.261,267.13H83.478c-9.22,0-16.696,7.475-16.696,16.696v133.565c0,9.22,7.475,16.696,16.696,16.696h66.783
			c9.22,0,16.696-7.475,16.696-16.696V283.826C166.957,274.606,159.481,267.13,150.261,267.13z M133.565,400.696h-33.391v-33.391
			h33.391V400.696z M133.565,333.913h-33.391v-33.391h33.391V333.913z"/>
	</g>
</g>
<g>
	<g>
		<path d="M428.522,200.348H283.826c-9.22,0-16.696,7.475-16.696,16.696c0,9.22,7.475,16.696,16.696,16.696h144.696
			c9.22,0,16.696-7.475,16.696-16.696C445.217,207.823,437.742,200.348,428.522,200.348z"/>
	</g>
</g>
<g>
</g>
<g>
</g>
<g>
</g>
<g>
</g>
<g>
</g>
<g>
</g>
<g>
</g>
<g>
</g>
<g>
</g>
<g>
</g>
<g>
</g>
<g>
</g>
<g>
</g>
<g>
</g>
<g>
</g>
</svg>
