<?xml version="1.0" encoding="iso-8859-1"?>
<!-- Generator: Adobe Illustrator 19.0.0, SVG Export Plug-In . SVG Version: 6.00 Build 0)  -->
<svg version="1.1" id="Layer_1" xmlns="http://www.w3.org/2000/svg" xmlns:xlink="http://www.w3.org/1999/xlink" x="0px" y="0px"
	 viewBox="0 0 512.002 512.002" style="enable-background:new 0 0 512.002 512.002;" xml:space="preserve">
<g>
	<g>
		<path d="M500.944,223.301c-14.166-35.551-42.349-63.805-79.361-79.559c-28.889-12.298-60.755-15.839-91.052-10.594
			c17.544-36.178,53.238-62.427,95.335-65.954c14.581-1.221,20.635-19.358,9.72-29.096c-55.944-49.902-142.823-53.393-202.135,5.121
			c-30.581,30.169-48.119,71.659-48.119,113.828v32.101l-143.713,59.53C7.597,262.771-8.616,301.913,5.475,335.934
			c14.127,34.1,53.151,50.268,87.257,36.143l92.602-38.358v111.499c0,36.824,29.959,66.783,66.783,66.783
			s66.783-29.959,66.783-66.783V278.396l5.205-2.156c55.689-23.072,120.93,0.765,148.526,54.259
			c6.731,13.045,25.784,11.657,30.602-2.155C515.143,294.202,514.332,256.898,500.944,223.301z M185.334,297.577l-105.381,43.65
			c-17.05,7.061-36.565-1.016-43.628-18.07c-7.046-17.011,1.061-36.583,18.071-43.628l130.938-54.237V297.577z M285.508,445.219
			c0,18.412-14.979,33.391-33.391,33.391s-33.391-14.979-33.391-33.391c0-4.689,0-146.682,0-153.68
			c9.831,5.702,21.231,8.984,33.391,8.984c12.16,0,23.56-3.282,33.391-8.984V445.219z M252.117,267.132
			c-18.412,0-33.391-14.979-33.391-33.391s14.979-33.391,33.391-33.391s33.391,14.979,33.391,33.391
			S270.529,267.132,252.117,267.132z M288.433,154.095c-0.049,0.214-0.089,0.43-0.129,0.646c-1.365,6.996-2.239,14.116-2.6,21.314
			c-9.875-5.772-21.346-9.097-33.586-9.097c-12.16,0-23.56,3.282-33.391,8.985v-18.895c-0.001-33.293,13.915-66.119,38.179-90.055
			c35.348-34.875,83.421-42.2,125.468-23.837c-21.506,8.17-41.018,21.267-56.975,38.535
			C306.468,102.171,293.806,127.195,288.433,154.095z M478.2,281.115c-39.457-41.868-101.554-59-159.299-38.619v-58.843
			c0-4.582,0.275-9.11,0.804-13.57c28.607-9.163,60.473-7.673,88.801,4.383c28.761,12.242,50.575,33.976,61.42,61.196
			C475.729,250.224,478.493,265.686,478.2,281.115z"/>
	</g>
</g>
<g>
</g>
<g>
</g>
<g>
</g>
<g>
</g>
<g>
</g>
<g>
</g>
<g>
</g>
<g>
</g>
<g>
</g>
<g>
</g>
<g>
</g>
<g>
</g>
<g>
</g>
<g>
</g>
<g>
</g>
</svg>
