<?xml version="1.0" encoding="iso-8859-1"?>
<!-- Generator: Adobe Illustrator 19.0.0, SVG Export Plug-In . SVG Version: 6.00 Build 0)  -->
<svg version="1.1" id="Layer_1" xmlns="http://www.w3.org/2000/svg" xmlns:xlink="http://www.w3.org/1999/xlink" x="0px" y="0px"
	 viewBox="0 0 512.001 512.001" style="enable-background:new 0 0 512.001 512.001;" xml:space="preserve">
<g>
	<g>
		<path d="M489.909,71.08l-83.15-56.086c-22.977-15.496-54.118-9.45-69.62,13.533c-3.253,4.823-5.541,10.015-6.932,15.349
			c-22.955-14.897-53.55-8.667-68.853,14.023c-5.315,7.88-8.213,16.895-8.544,26.164c-15.43,0.61-30.385,8.288-39.662,22.042
			c-13.43,19.91-10.607,46.083,5.386,62.753l-45.269,45.271l-3.847-3.847c-17.47-17.471-45.754-17.477-63.227,0l-27.489,27.485
			c-1.887,1.887-3.262,4.208-4.039,6.535l-22.392,67.179l-26.404,26.403c-14.342,14.342-16.204,36.501-5.6,52.881l-0.665,0.665
			c-26.132,26.131-26.137,68.428,0,94.563c26.13,26.132,68.426,26.137,94.563,0.001l0.665-0.665
			c16.437,10.642,38.58,8.703,52.881-5.6l26.406-26.405l67.178-22.393c2.374-0.79,4.605-2.138,6.46-3.972
			c0.023-0.023,0.05-0.042,0.074-0.067l27.487-27.488c17.432-17.432,17.432-45.795,0-63.227l-3.847-3.847l67.427-67.428l6.372,4.298
			c8.58,5.787,18.322,8.558,27.968,8.558c16.126,0,31.975-7.746,41.652-22.091c5.309-7.871,8.207-16.874,8.542-26.131
			c16.036-0.647,30.631-8.683,39.663-22.072c10.565-15.663,11.071-35.202,3.023-50.941c6.742-3.713,12.735-9.015,17.326-15.823
			C518.905,117.774,512.835,86.543,489.909,71.08z M245.951,188.72l28.236,19.046l-53.641,53.641l-23.641-23.64L245.951,188.72z
			 M43.241,462.354c-13.068-13.068-13.067-34.214,0-47.282l47.282,47.282C77.457,475.418,56.309,475.422,43.241,462.354z
			 M144.07,456.088c-3.455,3.455-9.077,3.455-12.531,0c-7.666-7.666-73.422-73.422-82.031-82.031
			c-3.456-3.456-3.456-9.078-0.001-12.533l17.375-17.374c5.423,5.423,89.265,89.264,94.564,94.563L144.07,456.088z M189.601,419.587
			L86.008,315.994l11.82-35.461l127.234,127.233L189.601,419.587z M271.676,375.764l-15.668,15.667L114.164,249.587l15.668-15.668
			c4.404-4.405,11.539-4.406,15.946,0c14.527,14.527,111.511,111.511,125.898,125.898
			C276.071,364.213,276.071,371.367,271.676,375.764z M267.828,308.689c-15.547-15.546-11.556-11.554-23.642-23.641l58.237-58.237
			l28.236,19.046L267.828,308.689z M407.17,236.972c-5.153,7.641-15.562,9.667-23.207,4.511
			c-4.537-3.06-129.455-87.319-138.584-93.478c-7.658-5.164-9.68-15.546-4.511-23.207c5.164-7.657,15.544-9.679,23.206-4.51
			l138.586,93.478C410.32,218.934,412.336,229.312,407.17,236.972z M455.375,188.768c-5.167,7.661-15.549,9.677-23.205,4.51
			c-0.001,0-0.001,0-0.001,0L293.582,99.8c-7.661-5.168-9.677-15.545-4.51-23.207c5.167-7.659,15.546-9.677,23.206-4.51
			c0,0,122.509,82.633,138.585,93.478C458.505,170.715,460.529,181.126,455.375,188.768z M475.725,122.004
			c-4.773,7.078-13.995,9.347-21.435,5.54l-86.535-58.37c-6.282-5.455-7.667-14.884-2.899-21.953
			c5.158-7.646,15.531-9.688,23.206-4.51l83.151,56.086C478.855,103.952,480.88,114.363,475.725,122.004z"/>
	</g>
</g>
<g>
</g>
<g>
</g>
<g>
</g>
<g>
</g>
<g>
</g>
<g>
</g>
<g>
</g>
<g>
</g>
<g>
</g>
<g>
</g>
<g>
</g>
<g>
</g>
<g>
</g>
<g>
</g>
<g>
</g>
</svg>
