<?xml version="1.0" encoding="iso-8859-1"?>
<!-- Generator: Adobe Illustrator 19.0.0, SVG Export Plug-In . SVG Version: 6.00 Build 0)  -->
<svg version="1.1" id="Layer_1" xmlns="http://www.w3.org/2000/svg" xmlns:xlink="http://www.w3.org/1999/xlink" x="0px" y="0px"
	 viewBox="0 0 512 512" style="enable-background:new 0 0 512 512;" xml:space="preserve">
<g>
	<g>
		<path d="M478.318,364.815l33.391-178.085c1.924-10.264-5.958-19.772-16.409-19.772h-50.087v-41.739l6.678,5.009
			c7.376,5.533,17.842,4.037,23.374-3.339c5.533-7.376,4.037-17.841-3.339-23.374L338.362,3.341c-5.937-4.452-14.098-4.452-20.035,0
			L184.764,103.514c-7.376,5.533-8.872,15.998-3.339,23.374c5.533,7.376,15.998,8.871,23.374,3.339l6.678-5.009v41.739h-63.052
			L130.129,43.811c-2.232-24.619-23.171-43.809-47.958-43.809H16.695C7.475,0.002,0,7.477,0,16.698
			c0,9.22,7.475,16.695,16.695,16.695h65.475c7.667,0,14.132,5.987,14.721,13.631c0.03,0.393,0.075,0.784,0.132,1.173
			c2.711,18.249,52.49,353.311,55.101,370.894c-14.454,8.795-24.126,24.698-24.126,42.82c0,27.618,22.469,50.087,50.087,50.087
			c21.765,0,40.323-13.959,47.215-33.391h156.003c6.892,19.432,25.449,33.391,47.215,33.391c27.618,0,50.087-22.469,50.087-50.087
			c0-27.618-22.469-50.086-50.087-50.086c-21.765,0-40.323,13.959-47.215,33.391H225.3c-6.163-17.376-21.655-30.362-40.428-32.919
			l-5.031-33.863h282.067C469.943,378.434,476.838,372.712,478.318,364.815z M428.518,445.216c9.206,0,16.695,7.49,16.695,16.695
			c0,9.206-7.49,16.695-16.695,16.695c-9.206,0-16.695-7.49-16.695-16.695C411.823,452.705,419.312,445.216,428.518,445.216z
			 M244.867,100.175l83.478-62.608l83.478,62.608v66.782h-33.391v-16.695c0-27.618-22.469-50.086-50.087-50.086
			s-50.086,22.469-50.086,50.086v16.695h-33.391V100.175z M345.04,150.262v16.695h-33.391v-16.695
			c0-9.206,7.49-16.695,16.695-16.695C337.551,133.566,345.04,141.056,345.04,150.262z M194.781,461.9c0,0.003,0,0.007,0,0.011
			s0,0.007,0,0.011c-0.006,9.2-7.492,16.684-16.695,16.684c-9.206,0-16.696-7.49-16.696-16.695c0-9.206,7.49-16.695,16.696-16.695
			C187.288,445.216,194.774,452.7,194.781,461.9z M174.881,345.043l-21.496-144.694h321.798l-27.13,144.694H174.881z"/>
	</g>
</g>
<g>
</g>
<g>
</g>
<g>
</g>
<g>
</g>
<g>
</g>
<g>
</g>
<g>
</g>
<g>
</g>
<g>
</g>
<g>
</g>
<g>
</g>
<g>
</g>
<g>
</g>
<g>
</g>
<g>
</g>
</svg>
