<?xml version="1.0" encoding="iso-8859-1"?>
<!-- Generator: Adobe Illustrator 19.0.0, SVG Export Plug-In . SVG Version: 6.00 Build 0)  -->
<svg version="1.1" id="Layer_1" xmlns="http://www.w3.org/2000/svg" xmlns:xlink="http://www.w3.org/1999/xlink" x="0px" y="0px"
	 viewBox="0 0 511.999 511.999" style="enable-background:new 0 0 511.999 511.999;" xml:space="preserve">
<g>
	<g>
		<path d="M507.788,209.578c-1.66-9.074-10.364-15.088-19.437-13.424c-9.074,1.66-15.084,10.362-13.424,19.437
			c13.213,72.218-9.759,146.194-61.452,197.887c-41.99,41.99-97.917,65.116-157.476,65.116c-53.941,0-104.902-18.969-145.229-53.741
			l23.186-23.186c9.351-9.351,4.6-25.336-8.262-28.132L35.145,353.85c-11.876-2.577-22.449,8.006-19.87,19.87l19.684,90.547
			c2.808,12.918,18.82,17.576,28.132,8.262l24.012-24.012c46.678,41.047,106.025,63.481,168.896,63.481
			c68.483,0,132.798-26.6,181.097-74.9C496.55,377.644,522.977,292.591,507.788,209.578z M61.104,427.274l-7.667-35.264
			l35.264,7.667L61.104,427.274z"/>
	</g>
</g>
<g>
	<g>
		<path d="M496.726,138.28l-19.685-90.549c-2.798-12.872-18.789-17.609-28.132-8.262l-24.012,24.012
			C378.218,22.436,318.87,0.001,256.001,0.001c-68.483,0-132.798,26.6-181.097,74.9c-59.454,59.452-85.881,144.508-70.692,227.52
			c1.661,9.082,10.37,15.084,19.437,13.424c9.074-1.66,15.084-10.362,13.424-19.437c-13.213-72.218,9.76-146.195,61.453-197.887
			c41.99-41.99,97.917-65.116,157.476-65.116c53.941,0,104.902,18.969,145.229,53.741l-23.186,23.186
			c-9.351,9.351-4.6,25.336,8.262,28.132l90.549,19.684C488.774,160.74,499.295,150.1,496.726,138.28z M423.299,112.321
			l27.598-27.598l7.667,35.263L423.299,112.321z"/>
	</g>
</g>
<g>
	<g>
		<path d="M399.532,209.118L265.909,108.901c-5.938-4.454-14.105-4.454-20.043,0L112.242,209.118
			c-12.79,9.593-6.002,30.065,10.022,30.065h16.703v116.92c0,9.224,7.478,16.703,16.703,16.703h200.435
			c9.224,0,16.703-7.478,16.703-16.703v-116.92h16.703C405.498,239.183,412.351,218.733,399.532,209.118z M339.401,339.4H172.373
			V239.183h167.029V339.4z M172.373,205.777l83.514-62.636l83.514,62.636H172.373z"/>
	</g>
</g>
<g>
</g>
<g>
</g>
<g>
</g>
<g>
</g>
<g>
</g>
<g>
</g>
<g>
</g>
<g>
</g>
<g>
</g>
<g>
</g>
<g>
</g>
<g>
</g>
<g>
</g>
<g>
</g>
<g>
</g>
</svg>
