<?xml version="1.0" encoding="iso-8859-1"?>
<!-- Generator: Adobe Illustrator 19.0.0, SVG Export Plug-In . SVG Version: 6.00 Build 0)  -->
<svg version="1.1" id="Layer_1" xmlns="http://www.w3.org/2000/svg" xmlns:xlink="http://www.w3.org/1999/xlink" x="0px" y="0px"
	 viewBox="0 0 512 512" style="enable-background:new 0 0 512 512;" xml:space="preserve">
<g>
	<g>
		<circle cx="389.565" cy="83.478" r="16.696"/>
	</g>
</g>
<g>
	<g>
		<path d="M400,0H112C71.723,0,38.957,32.767,38.957,73.044v365.913C38.957,479.233,71.723,512,112,512h288
			c40.277,0,73.043-32.767,73.043-73.043V73.044C473.043,32.767,440.277,0,400,0z M439.652,438.957
			c0,21.865-17.788,39.652-39.652,39.652H112c-21.865,0-39.652-17.788-39.652-39.652v-272h367.304V438.957z M439.652,133.565H72.348
			V73.044c0-21.865,17.788-39.652,39.652-39.652h288c21.865,0,39.652,17.788,39.652,39.652V133.565z"/>
	</g>
</g>
<g>
	<g>
		<path d="M256,200.348c-64.442,0-116.87,52.428-116.87,116.87c0,64.442,52.428,116.87,116.87,116.87
			c64.64,0,116.87-52.626,116.87-116.87C372.87,252.783,320.437,200.348,256,200.348z M256,400.696
			c-46.03,0-83.478-37.448-83.478-83.478S209.97,233.739,256,233.739c11.87,0,23.158,2.507,33.391,6.991
			c-29.452,12.908-50.087,42.326-50.087,76.487s20.635,63.579,50.087,76.487C279.158,398.189,267.87,400.696,256,400.696z
			 M322.738,367.303c-27.598-0.024-50.042-22.483-50.042-50.086c0-27.602,22.445-50.061,50.042-50.086
			c10.504,13.962,16.74,31.308,16.74,50.086C339.478,335.996,333.242,353.341,322.738,367.303z"/>
	</g>
</g>
<g>
	<g>
		<path d="M172.522,66.783H139.13c-9.22,0-16.696,7.475-16.696,16.696s7.475,16.696,16.696,16.696h33.391
			c9.22,0,16.696-7.475,16.696-16.696S181.742,66.783,172.522,66.783z"/>
	</g>
</g>
<g>
	<g>
		<path d="M272.696,66.783h-33.391c-9.22,0-16.696,7.475-16.696,16.696s7.475,16.696,16.696,16.696h33.391
			c9.22,0,16.696-7.475,16.696-16.696S281.916,66.783,272.696,66.783z"/>
	</g>
</g>
<g>
</g>
<g>
</g>
<g>
</g>
<g>
</g>
<g>
</g>
<g>
</g>
<g>
</g>
<g>
</g>
<g>
</g>
<g>
</g>
<g>
</g>
<g>
</g>
<g>
</g>
<g>
</g>
<g>
</g>
</svg>
