<?xml version="1.0" encoding="iso-8859-1"?>
<!-- Generator: Adobe Illustrator 19.0.0, SVG Export Plug-In . SVG Version: 6.00 Build 0)  -->
<svg version="1.1" id="Layer_1" xmlns="http://www.w3.org/2000/svg" xmlns:xlink="http://www.w3.org/1999/xlink" x="0px" y="0px"
	 viewBox="0 0 512 512" style="enable-background:new 0 0 512 512;" xml:space="preserve">
<g>
	<g>
		<path d="M410.826,0H101.177C45.388,0,0,45.387,0,101.176v309.649C0,466.613,45.388,512,101.177,512h309.649
			C466.613,512,512,466.613,512,410.824V101.176C512,45.387,466.613,0,410.826,0z M478.609,410.824
			c0,37.377-30.407,67.784-67.783,67.784H101.177c-37.377,0-67.785-30.407-67.785-67.784V101.176
			c0-37.377,30.408-67.784,67.785-67.784h309.649c37.376,0,67.783,30.407,67.783,67.784V410.824z"/>
	</g>
</g>
<g>
	<g>
		<path d="M316.996,66.783H161.615c-4.804,0-9.763,0.44-14.339,1.271c-7.939,1.443-13.71,8.357-13.71,16.426v344.042
			c0,9.22,7.475,16.696,16.696,16.696h66.783c9.22,0,16.696-7.475,16.696-16.696v-116.87h83.257c52.29,0,94.83-42.542,94.83-94.832
			v-55.205C411.826,109.324,369.286,66.783,316.996,66.783z M378.435,216.82c0,33.879-27.561,61.441-61.439,61.441h-99.952
			c-9.22,0-16.696,7.475-16.696,16.696v116.87h-33.391V100.174h150.039c33.878,0,61.439,27.562,61.439,61.441V216.82z"/>
	</g>
</g>
<g>
	<g>
		<path d="M317.001,133.565l-99.951-0.043c-0.002,0-0.004,0-0.007,0c-9.213,0-16.696,7.473-16.696,16.696v77.956
			c0,9.22,7.475,16.696,16.696,16.696h99.951c15.467,0,28.049-12.585,28.049-28.054v-55.196
			C345.043,146.15,332.461,133.565,317.001,133.565z M311.652,211.478h-77.913v-44.557l77.913,0.033V211.478z"/>
	</g>
</g>
<g>
</g>
<g>
</g>
<g>
</g>
<g>
</g>
<g>
</g>
<g>
</g>
<g>
</g>
<g>
</g>
<g>
</g>
<g>
</g>
<g>
</g>
<g>
</g>
<g>
</g>
<g>
</g>
<g>
</g>
</svg>
