<?xml version="1.0" encoding="iso-8859-1"?>
<!-- Generator: Adobe Illustrator 19.0.0, SVG Export Plug-In . SVG Version: 6.00 Build 0)  -->
<svg version="1.1" id="Layer_1" xmlns="http://www.w3.org/2000/svg" xmlns:xlink="http://www.w3.org/1999/xlink" x="0px" y="0px"
	 viewBox="0 0 512 512" style="enable-background:new 0 0 512 512;" xml:space="preserve">
<g>
	<g>
		<path d="M83.244,108.381c-9.195,0-16.649,7.454-16.649,16.649v166.488c0,9.195,7.454,16.649,16.649,16.649
			c9.195,0,16.649-7.454,16.649-16.649V125.03C99.893,115.835,92.438,108.381,83.244,108.381z"/>
	</g>
</g>
<g>
	<g>
		<circle cx="83.244" cy="391.413" r="16.649"/>
	</g>
</g>
<g>
	<g>
		<path d="M216.434,108.381c-9.195,0-16.649,7.454-16.649,16.649v166.488c0,9.195,7.454,16.649,16.649,16.649
			c9.195,0,16.649-7.454,16.649-16.649V125.03C233.083,115.835,225.629,108.381,216.434,108.381z"/>
	</g>
</g>
<g>
	<g>
		<circle cx="216.434" cy="391.413" r="16.649"/>
	</g>
</g>
<g>
	<g>
		<path d="M510.986,435.178L431.323,43.629c-5.503-27.046-31.84-44.49-58.901-38.986L307.163,17.92
			c-7.047,1.434-13.559,4.312-19.224,8.393c-9.169-10.889-22.891-17.825-38.208-17.825h-66.595
			c-12.783,0-24.454,4.831-33.298,12.759c-8.844-7.927-20.515-12.759-33.298-12.759H49.946C22.406,8.488,0,30.894,0,58.434v399.571
			c0,27.54,22.406,49.946,49.946,49.946h66.595c12.783,0,24.454-4.833,33.298-12.759c8.844,7.926,20.515,12.759,33.298,12.759
			h66.595c27.54,0,49.946-22.406,49.946-49.946V231.651L347.84,468.37c5.499,27.027,31.834,44.497,58.901,38.986l65.258-13.277
			C499.048,488.577,516.49,462.232,510.986,435.178z M133.19,458.005c0,9.18-7.469,16.649-16.649,16.649H49.946
			c-9.18,0-16.649-7.469-16.649-16.649V58.434c0-9.18,7.469-16.649,16.649-16.649h66.595c9.18,0,16.649,7.469,16.649,16.649V458.005
			z M266.38,458.005c0,9.18-7.469,16.649-16.649,16.649h-66.595c-9.18,0-16.649-7.469-16.649-16.649V58.434
			c0-9.18,7.469-16.649,16.649-16.649h66.595c9.18,0,16.649,7.469,16.649,16.649V458.005z M465.36,461.45l-65.258,13.277
			c-9.018,1.832-17.799-3.975-19.633-12.996L300.808,70.183c-1.835-9.017,3.977-17.799,12.995-19.633l65.258-13.277
			c9.036-1.836,17.803,3.996,19.633,12.996l79.661,391.548C480.19,450.833,474.379,459.616,465.36,461.45z"/>
	</g>
</g>
<g>
	<g>
		<path d="M412.536,285.31l-33.192-163.146c-1.834-9.01-10.625-14.831-19.633-12.995c-9.01,1.832-14.828,10.623-12.996,19.633
			l33.192,163.146c1.835,9.017,10.633,14.828,19.633,12.995C408.55,303.111,414.368,294.32,412.536,285.31z"/>
	</g>
</g>
<g>
	<g>
		<circle cx="416.131" cy="386.519" r="16.649"/>
	</g>
</g>
<g>
</g>
<g>
</g>
<g>
</g>
<g>
</g>
<g>
</g>
<g>
</g>
<g>
</g>
<g>
</g>
<g>
</g>
<g>
</g>
<g>
</g>
<g>
</g>
<g>
</g>
<g>
</g>
<g>
</g>
</svg>
