<?xml version="1.0" encoding="iso-8859-1"?>
<!-- Generator: Adobe Illustrator 19.0.0, SVG Export Plug-In . SVG Version: 6.00 Build 0)  -->
<svg version="1.1" id="Layer_1" xmlns="http://www.w3.org/2000/svg" xmlns:xlink="http://www.w3.org/1999/xlink" x="0px" y="0px"
	 viewBox="0 0 512 512" style="enable-background:new 0 0 512 512;" xml:space="preserve">
<g>
	<g>
		<path d="M507.109,85.586l-50.087-50.088c-6.519-6.519-17.091-6.519-23.611,0l-50.087,50.087c-3.131,3.131-4.89,7.377-4.89,11.806
			v50.087h-55.652V97.391c0-4.429-1.759-8.675-4.891-11.805l-50.087-50.087c-6.519-6.519-17.091-6.519-23.611,0l-50.087,50.087
			c-3.131,3.13-4.89,7.376-4.89,11.805v50.087h-55.652V97.391c0-4.429-1.759-8.675-4.891-11.805L78.588,35.499
			c-6.519-6.519-17.091-6.519-23.611,0L4.89,85.586C1.759,88.716,0,92.962,0,97.391v367.304c0,9.22,7.475,16.696,16.696,16.696
			H116.87c9.22,0,16.696-7.475,16.696-16.696v-50.087h55.652v50.087c0,9.22,7.475,16.696,16.696,16.696h100.174
			c9.22,0,16.696-7.475,16.696-16.696v-50.087h55.652v50.087c0,9.22,7.475,16.696,16.696,16.696h100.174
			c9.22,0,16.696-7.475,16.696-16.696V97.391C512,92.962,510.241,88.716,507.109,85.586z M100.174,448H33.391V104.306l33.391-33.391
			l33.391,33.391C100.174,120.191,100.174,432.638,100.174,448z M189.217,381.217h-55.652v-33.391h55.652V381.217z M189.217,314.435
			h-55.652v-66.783h55.652V314.435z M189.217,214.261h-55.652v-33.391h55.652V214.261z M289.391,448h-66.783
			c0-13.587,0-331.301,0-343.693L256,70.915l33.391,33.391C289.391,114.759,289.391,438.621,289.391,448z M378.435,381.217h-55.652
			v-33.391h55.652V381.217z M378.435,314.435h-55.652v-66.783h55.652V314.435z M378.435,214.261h-55.652v-33.391h55.652V214.261z
			 M478.609,448h-66.783c0-7.303,0-336.234,0-343.693l33.391-33.391l33.391,33.391V448z"/>
	</g>
</g>
<g>
</g>
<g>
</g>
<g>
</g>
<g>
</g>
<g>
</g>
<g>
</g>
<g>
</g>
<g>
</g>
<g>
</g>
<g>
</g>
<g>
</g>
<g>
</g>
<g>
</g>
<g>
</g>
<g>
</g>
</svg>
