<?xml version="1.0" encoding="iso-8859-1"?>
<!-- Generator: Adobe Illustrator 19.0.0, SVG Export Plug-In . SVG Version: 6.00 Build 0)  -->
<svg version="1.1" id="Layer_1" xmlns="http://www.w3.org/2000/svg" xmlns:xlink="http://www.w3.org/1999/xlink" x="0px" y="0px"
	 viewBox="0 0 512 512" style="enable-background:new 0 0 512 512;" xml:space="preserve">
<g>
	<g>
		<path d="M139.13,0H38.957c-9.22,0-16.696,7.475-16.696,16.696v478.609c0,9.22,7.475,16.696,16.696,16.696H139.13
			c9.22,0,16.696-7.475,16.696-16.696V16.696C155.826,7.475,148.351,0,139.13,0z M122.435,478.609H55.652V33.391h66.783V478.609z"/>
	</g>
</g>
<g>
	<g>
		<path d="M306.087,267.13H205.913c-9.22,0-16.696,7.475-16.696,16.696v211.478c0,9.22,7.475,16.696,16.696,16.696h100.174
			c9.22,0,16.696-7.475,16.696-16.696V283.826C322.783,274.606,315.307,267.13,306.087,267.13z M289.391,478.609h-66.783V300.522
			h66.783V478.609z"/>
	</g>
</g>
<g>
	<g>
		<path d="M473.043,133.565H372.87c-9.22,0-16.696,7.475-16.696,16.696v345.043c0,9.22,7.475,16.696,16.696,16.696h100.174
			c9.22,0,16.696-7.475,16.696-16.696V150.261C489.739,141.04,482.264,133.565,473.043,133.565z M456.348,478.609h-66.783V166.957
			h66.783V478.609z"/>
	</g>
</g>
<g>
</g>
<g>
</g>
<g>
</g>
<g>
</g>
<g>
</g>
<g>
</g>
<g>
</g>
<g>
</g>
<g>
</g>
<g>
</g>
<g>
</g>
<g>
</g>
<g>
</g>
<g>
</g>
<g>
</g>
</svg>
