<?xml version="1.0" encoding="iso-8859-1"?>
<!-- Generator: Adobe Illustrator 19.0.0, SVG Export Plug-In . SVG Version: 6.00 Build 0)  -->
<svg version="1.1" id="Layer_1" xmlns="http://www.w3.org/2000/svg" xmlns:xlink="http://www.w3.org/1999/xlink" x="0px" y="0px"
	 viewBox="0 0 512 512" style="enable-background:new 0 0 512 512;" xml:space="preserve">
<g>
	<g>
		<path d="M495.304,38.957H16.696C7.475,38.957,0,46.432,0,55.652v400.696c0,9.22,7.475,16.696,16.696,16.696h478.609
			c9.22,0,16.696-7.475,16.696-16.696V55.652C512,46.432,504.525,38.957,495.304,38.957z M233.739,72.348h144.696v66.783H233.739
			V72.348z M278.261,239.304H133.565v-66.783h144.696V239.304z M378.435,272.696v66.783H233.739v-66.783H378.435z M33.391,72.348
			h166.957v66.783H33.391V72.348z M33.391,172.522h66.783v66.783H33.391V172.522z M33.391,272.696h166.957v66.783H33.391V272.696z
			 M100.174,439.652H33.391V372.87h66.783V439.652z M278.261,439.652H133.565V372.87h144.696V439.652z M478.609,439.652H311.652
			V372.87h166.957V439.652z M478.609,339.478h-66.783v-66.783h66.783V339.478z M478.609,239.304H311.652v-66.783h166.957V239.304z
			 M478.609,139.13h-66.783V72.348h66.783V139.13z"/>
	</g>
</g>
<g>
</g>
<g>
</g>
<g>
</g>
<g>
</g>
<g>
</g>
<g>
</g>
<g>
</g>
<g>
</g>
<g>
</g>
<g>
</g>
<g>
</g>
<g>
</g>
<g>
</g>
<g>
</g>
<g>
</g>
</svg>
