<?xml version="1.0" encoding="iso-8859-1"?>
<!-- Generator: Adobe Illustrator 19.0.0, SVG Export Plug-In . SVG Version: 6.00 Build 0)  -->
<svg version="1.1" id="Layer_1" xmlns="http://www.w3.org/2000/svg" xmlns:xlink="http://www.w3.org/1999/xlink" x="0px" y="0px"
	 viewBox="0 0 512 512" style="enable-background:new 0 0 512 512;" xml:space="preserve">
<g>
	<g>
		<path d="M497.45,472.5c-25.608-12.804-56.19-12.804-81.798,0c-16.251,8.126-35.651,8.126-51.902,0
			c-25.608-12.804-56.19-12.804-81.798,0c-16.251,8.126-35.653,8.126-51.901,0c-25.61-12.805-56.189-12.805-81.799,0
			c-16.249,8.126-35.652,8.126-51.901,0c-25.61-12.805-56.189-12.805-81.799,0c-8.256,4.128-11.602,14.167-7.474,22.423
			c4.126,8.255,14.166,11.602,22.422,7.474c16.249-8.126,35.652-8.126,51.901,0c25.609,12.804,56.187,12.805,81.799,0
			c16.249-8.126,35.652-8.126,51.901,0c25.61,12.805,56.189,12.804,81.799,0c16.251-8.126,35.651-8.126,51.902,0
			c25.608,12.804,56.19,12.804,81.798,0c16.251-8.126,35.651-8.126,51.902,0c8.256,4.128,18.294,0.781,22.422-7.474
			C509.052,486.668,505.706,476.629,497.45,472.5z"/>
	</g>
</g>
<g>
	<g>
		<path d="M497.45,405.65c-25.608-12.804-56.19-12.804-81.798,0c-2.986,1.493-6.079,2.706-9.239,3.65v-75.05h16.713
			c9.23,0,16.712-7.483,16.712-16.712c0-9.23-7.483-16.713-16.712-16.713h-16.713V133.7h16.713c16.892,0,23.08-22.355,8.599-31.043
			L264.6,2.382c-5.292-3.176-11.905-3.175-17.197,0L80.278,102.657c-14.484,8.689-8.292,31.043,8.597,31.043h16.713v167.125H88.875
			c-9.23,0-16.712,7.483-16.712,16.713c0,9.23,7.483,16.712,16.712,16.712h16.713v75.05c-3.16-0.945-6.253-2.157-9.239-3.65
			c-25.61-12.805-56.189-12.805-81.799,0c-8.256,4.128-11.602,14.167-7.474,22.423c4.128,8.255,14.168,11.602,22.424,7.474
			c16.249-8.126,35.652-8.126,51.901,0c25.609,12.804,56.187,12.805,81.799,0c16.249-8.126,35.652-8.126,51.901,0
			c25.567,12.783,56.193,12.802,81.799,0c16.251-8.126,35.651-8.126,51.902,0c25.608,12.804,56.19,12.804,81.798,0
			c16.251-8.126,35.651-8.126,51.902,0c8.256,4.128,18.294,0.781,22.422-7.474C509.052,419.818,505.706,409.779,497.45,405.65z
			 M256,36.202l106.789,64.072H149.213L256,36.202z M239.288,409.3c-3.159-0.945-6.253-2.158-9.239-3.65
			c-25.61-12.806-56.187-12.806-81.798,0c-2.986,1.493-6.079,2.706-9.239,3.65v-75.05c12.718,0,85.845,0,100.275,0V409.3z
			 M239.288,300.825v-66.85h33.425v66.85H239.288z M372.988,409.3c-3.16-0.945-6.253-2.158-9.239-3.65
			c-25.608-12.805-56.189-12.805-81.798,0c-2.986,1.493-6.079,2.706-9.239,3.65v-75.05c10.469,0,88.952,0,100.275,0V409.3z
			 M372.988,300.825h-66.85v-83.563c0-9.23-7.483-16.713-16.712-16.713h-66.85c-9.23,0-16.713,7.483-16.713,16.713v83.563h-66.85
			V133.7h233.975V300.825z"/>
	</g>
</g>
<g>
</g>
<g>
</g>
<g>
</g>
<g>
</g>
<g>
</g>
<g>
</g>
<g>
</g>
<g>
</g>
<g>
</g>
<g>
</g>
<g>
</g>
<g>
</g>
<g>
</g>
<g>
</g>
<g>
</g>
</svg>
