<?xml version="1.0" encoding="iso-8859-1"?>
<!-- Generator: Adobe Illustrator 19.0.0, SVG Export Plug-In . SVG Version: 6.00 Build 0)  -->
<svg version="1.1" id="Layer_1" xmlns="http://www.w3.org/2000/svg" xmlns:xlink="http://www.w3.org/1999/xlink" x="0px" y="0px"
	 viewBox="0 0 512.001 512.001" style="enable-background:new 0 0 512.001 512.001;" xml:space="preserve">
<g>
	<g>
		<path d="M441.774,376l-20.246-65.647l86.789-108.485c7.99-9.989,2.279-24.923-10.342-27.028l-20.158-3.36
			C485.797,82.6,415.588,6.856,327.46,6.856c-70.207,0-130.462,48.402-146.695,115.117l-31.306-5.217l-0.98-13.166
			c-3.494-46.957-38.216-86.029-84.439-95.014c-0.263-0.05-0.528-0.095-0.793-0.134L19.186,2.05
			c-9.17-1.33-17.679,5.025-19.01,14.195c-1.33,9.168,5.025,17.679,14.194,19.01l43.643,6.33
			c31.224,6.243,54.643,32.71,57.008,64.494l20.839,280.085c2.068,27.795,22.62,50.921,49.979,56.24
			c26.258,5.101,52.685-7.134,65.802-30.381l28.531-50.563l58.124,10.597c18.453,3.363,36.891-3.78,48.325-18.072l9.563-11.954
			l13.532,43.877c-19.144,11.831-31.932,33.006-31.932,57.117c0,37,30.102,67.103,67.103,67.103c37,0,67.103-30.102,67.103-67.103
			C511.991,405.012,480.201,374.236,441.774,376z M327.46,40.407c67.49,0,121.806,57.224,117.145,125.539l-230.626-38.438
			C227.445,76.882,273.699,40.407,327.46,40.407z M222.42,395.535c-6.021,10.672-18.151,16.273-30.178,13.933
			c-12.548-2.439-21.974-13.046-22.923-25.793l-3.2-43.008l79.123,14.425L222.42,395.535z M360.424,333.024
			c-3.859,4.824-10.029,7.132-16.108,6.025l-46.693-8.513l25.015-44.331c14.402-25.523,52.753-19.747,59.096,8.777
			c0.227,1.026,0.366,1.37,2.498,8.285L360.424,333.024z M408.978,272.33c-23.512-46.469-89.756-48.348-115.561-2.615
			l-30.726,54.452l-99.144-18.075l-11.525-154.896l312.234,52.038L408.978,272.33z M444.89,476.575
			c-18.5,0-33.551-15.051-33.551-33.551s15.051-33.551,33.551-33.551c18.5,0,33.551,15.051,33.551,33.551
			S463.39,476.575,444.89,476.575z"/>
	</g>
</g>
<g>
	<g>
		<path d="M386.752,98.553c-15.856-15.86-36.913-24.594-59.292-24.594c-9.265,0-16.776,7.511-16.776,16.776
			s7.511,16.776,16.776,16.776c13.416,0,26.047,5.243,35.567,14.765c3.276,3.277,7.569,4.915,11.863,4.915
			c4.292,0,8.586-1.637,11.86-4.913C393.301,115.727,393.302,105.105,386.752,98.553z"/>
	</g>
</g>
<g>
</g>
<g>
</g>
<g>
</g>
<g>
</g>
<g>
</g>
<g>
</g>
<g>
</g>
<g>
</g>
<g>
</g>
<g>
</g>
<g>
</g>
<g>
</g>
<g>
</g>
<g>
</g>
<g>
</g>
</svg>
