<?xml version="1.0" encoding="iso-8859-1"?>
<!-- Generator: Adobe Illustrator 19.0.0, SVG Export Plug-In . SVG Version: 6.00 Build 0)  -->
<svg version="1.1" id="Layer_1" xmlns="http://www.w3.org/2000/svg" xmlns:xlink="http://www.w3.org/1999/xlink" x="0px" y="0px"
	 viewBox="0 0 512 512" style="enable-background:new 0 0 512 512;" xml:space="preserve">
<g>
	<g>
		<path d="M439.652,0H72.348C44.73,0,22.261,22.469,22.261,50.087V395.13c0,27.618,22.469,50.087,50.087,50.087h16.696v50.087
			c0,9.22,7.475,16.696,16.696,16.696h66.783c9.22,0,16.696-7.475,16.696-16.696v-50.087h133.565v50.087
			c0,9.22,7.475,16.696,16.696,16.696h66.783c9.22,0,16.696-7.475,16.696-16.696v-50.087h16.696
			c27.618,0,50.087-22.469,50.087-50.087V50.087C489.739,22.469,467.27,0,439.652,0z M155.826,478.609h-33.391v-33.391h33.391
			V478.609z M389.565,478.609h-33.391v-33.391h33.391V478.609z M456.348,395.13c0,9.206-7.49,16.696-16.696,16.696
			c-26.022,0-356.518,0-367.304,0c-9.206,0-16.696-7.49-16.696-16.696V50.087c0-9.206,7.49-16.696,16.696-16.696h367.304
			c9.206,0,16.696,7.49,16.696,16.696V395.13z"/>
	</g>
</g>
<g>
	<g>
		<path d="M406.261,72.348H105.739c-9.22,0-16.696,7.475-16.696,16.696c0,11.739,0,255.416,0,267.13
			c0,9.22,7.475,16.696,16.696,16.696h300.522c9.22,0,16.696-7.475,16.696-16.696c0-11.739,0-255.416,0-267.13
			C422.957,79.823,415.481,72.348,406.261,72.348z M389.565,339.478h-267.13V239.304h267.13V339.478z M389.565,205.913h-267.13
			V105.739h267.13V205.913z"/>
	</g>
</g>
<g>
	<g>
		<circle cx="256" cy="289.391" r="16.696"/>
	</g>
</g>
<g>
	<g>
		<circle cx="256" cy="155.826" r="16.696"/>
	</g>
</g>
<g>
</g>
<g>
</g>
<g>
</g>
<g>
</g>
<g>
</g>
<g>
</g>
<g>
</g>
<g>
</g>
<g>
</g>
<g>
</g>
<g>
</g>
<g>
</g>
<g>
</g>
<g>
</g>
<g>
</g>
</svg>
