<?xml version="1.0" encoding="iso-8859-1"?>
<!-- Generator: Adobe Illustrator 19.0.0, SVG Export Plug-In . SVG Version: 6.00 Build 0)  -->
<svg version="1.1" id="Layer_1" xmlns="http://www.w3.org/2000/svg" xmlns:xlink="http://www.w3.org/1999/xlink" x="0px" y="0px"
	 viewBox="0 0 512 512" style="enable-background:new 0 0 512 512;" xml:space="preserve">
<g>
	<g>
		<path d="M374.783,122.435h-52V72.348c0-30.575-36.257-50.087-61.217-50.087H50.087C22.469,22.261,0,44.73,0,72.348v333.913
			c0,9.22,7.475,16.696,16.696,16.696h52.959c-1.853,5.226-2.872,10.843-2.872,16.696c0,27.618,22.469,50.087,50.087,50.087
			c27.618,0,50.087-22.469,50.087-50.087c0-5.852-1.018-11.47-2.872-16.696h183.83c-1.853,5.226-2.872,10.843-2.872,16.696
			c0,27.618,22.469,50.087,50.087,50.087s50.087-22.469,50.087-50.087c0-5.852-1.018-11.47-2.872-16.696h19.567
			c27.618,0,50.087-22.469,50.087-50.087V259.652C512,183.991,450.444,122.435,374.783,122.435z M116.87,456.348
			c-9.206,0-16.696-7.49-16.696-16.696s7.49-16.696,16.696-16.696s16.696,7.49,16.696,16.696S126.076,456.348,116.87,456.348z
			 M289.391,389.565h-256v-33.391h256V389.565z M289.391,322.783h-256V72.348c0-9.206,7.49-16.696,16.696-16.696h211.478
			c12.011,0,27.826,10.502,27.826,16.696C289.391,78.318,289.391,318.109,289.391,322.783z M389.565,156.883
			c49.095,7.029,87.214,48.529,88.972,99.117h-88.972V156.883z M395.13,456.348c-9.206,0-16.696-7.49-16.696-16.696
			s7.49-16.696,16.696-16.696s16.696,7.49,16.696,16.696S404.336,456.348,395.13,456.348z M478.609,322.783h-16.696
			c-9.22,0-16.696,7.475-16.696,16.696s7.475,16.696,16.696,16.696h16.696v16.696c0,9.206-7.49,16.696-16.696,16.696
			c-7.711,0-134.353,0-139.13,0V155.826h33.391v116.87c0,9.22,7.475,16.696,16.696,16.696h105.739V322.783z"/>
	</g>
</g>
<g>
	<g>
		<path d="M239.992,160.73c-0.006-0.006-0.01-0.011-0.016-0.017l-66.779-66.779c-6.519-6.52-17.091-6.52-23.611,0l-66.779,66.779
			c-0.006,0.006-0.01,0.011-0.016,0.017c-3.114,3.121-4.878,7.437-4.878,11.792v100.174c0,9.22,7.475,16.696,16.696,16.696h133.565
			c9.22,0,16.696-7.475,16.696-16.696V172.522C244.87,168.298,243.188,163.933,239.992,160.73z M161.391,129.35l26.476,26.476
			h-52.951L161.391,129.35z M211.478,256h-33.391v-16.696c0-9.22-7.475-16.696-16.696-16.696s-16.696,7.475-16.696,16.696V256
			h-33.391v-66.783h100.174V256z"/>
	</g>
</g>
<g>
</g>
<g>
</g>
<g>
</g>
<g>
</g>
<g>
</g>
<g>
</g>
<g>
</g>
<g>
</g>
<g>
</g>
<g>
</g>
<g>
</g>
<g>
</g>
<g>
</g>
<g>
</g>
<g>
</g>
</svg>
