<?xml version="1.0" encoding="iso-8859-1"?>
<!-- Generator: Adobe Illustrator 19.0.0, SVG Export Plug-In . SVG Version: 6.00 Build 0)  -->
<svg version="1.1" id="Layer_1" xmlns="http://www.w3.org/2000/svg" xmlns:xlink="http://www.w3.org/1999/xlink" x="0px" y="0px"
	 viewBox="0 0 512 512" style="enable-background:new 0 0 512 512;" xml:space="preserve">
<g>
	<g>
		<path d="M489.739,267.13h-16.696v-36.263c19.433-6.892,33.391-25.45,33.391-47.215c0-9.22-7.475-16.696-16.696-16.696
			c-23.066,0-42.528-15.676-48.322-36.932c18.505-7.366,31.626-25.446,31.626-46.546c0-9.22-7.475-16.696-16.696-16.696
			c-27.618,0-50.087-22.469-50.087-50.087c0-9.22-7.475-16.696-16.696-16.696h-267.13c-9.22,0-16.696,7.475-16.696,16.696
			c0,27.618-22.469,50.087-50.087,50.087c-9.22,0-16.696,7.475-16.696,16.696c0,21.1,13.121,39.18,31.626,46.546
			c-5.793,21.256-25.256,36.932-48.322,36.932c-9.22,0-16.696,7.475-16.696,16.696c0,21.766,13.959,40.323,33.391,47.215v36.263
			H22.261c-9.22,0-16.696,7.475-16.696,16.696v211.478c0,9.22,7.475,16.696,16.696,16.696c6.366,0,464.951,0,467.478,0
			c9.22,0,16.696-7.475,16.696-16.696V283.826C506.435,274.606,498.96,267.13,489.739,267.13z M137.453,33.391h237.094
			c6.195,30.394,28.959,54.839,58.411,63.448c-2.79,2.094-6.254,3.335-10.002,3.335H89.044c-3.748,0-7.211-1.241-10.001-3.335
			C108.494,88.23,131.258,63.785,137.453,33.391z M104.062,133.565h303.876c6.195,30.394,28.959,54.839,58.411,63.448
			c-2.79,2.094-6.254,3.335-10.002,3.335H55.652c-3.748,0-7.211-1.241-10.001-3.335C75.103,188.404,97.867,163.959,104.062,133.565z
			 M439.652,233.739v33.391H72.348v-33.391H439.652z M172.522,417.391v61.217H38.957v-77.913h135.245
			C173.102,406.092,172.522,411.675,172.522,417.391z M306.087,478.609H205.913v-61.217c0-27.6,22.472-50.087,50.087-50.087
			c27.829,0,50.087,22.722,50.087,50.087V478.609z M473.043,478.609H339.478v-61.217c0-5.717-0.58-11.3-1.68-16.696h135.245V478.609
			z M473.043,367.304H322.737c-15.245-20.262-39.485-33.391-66.737-33.391c-27.252,0-51.492,13.129-66.737,33.391H38.957v-66.783
			h434.087V367.304z"/>
	</g>
</g>
<g>
</g>
<g>
</g>
<g>
</g>
<g>
</g>
<g>
</g>
<g>
</g>
<g>
</g>
<g>
</g>
<g>
</g>
<g>
</g>
<g>
</g>
<g>
</g>
<g>
</g>
<g>
</g>
<g>
</g>
</svg>
