<?xml version="1.0" encoding="iso-8859-1"?>
<!-- Generator: Adobe Illustrator 19.0.0, SVG Export Plug-In . SVG Version: 6.00 Build 0)  -->
<svg version="1.1" id="Layer_1" xmlns="http://www.w3.org/2000/svg" xmlns:xlink="http://www.w3.org/1999/xlink" x="0px" y="0px"
	 viewBox="0 0 512 512" style="enable-background:new 0 0 512 512;" xml:space="preserve">
<g>
	<g>
		<path d="M461.913,239.304c27.618,0,50.087-22.469,50.087-50.087c0-27.618-22.469-50.087-50.087-50.087h-16.696v-36.263
			c19.433-6.892,33.391-25.45,33.391-47.215c0-27.618-22.469-50.087-50.087-50.087H294.957c-27.618,0-50.087,22.469-50.087,50.087
			c0,21.766,13.959,40.323,33.391,47.215v36.263H50.087C23.405,139.13,0,162.536,0,189.217s23.405,50.087,50.087,50.087h228.174
			v36.263c-19.433,6.892-33.391,25.45-33.391,47.215c0,27.618,22.469,50.087,50.087,50.087h133.565
			c27.618,0,50.087-22.469,50.087-50.087c0-21.766-13.959-40.323-33.391-47.215v-36.263H461.913z M461.913,172.522
			c9.206,0,16.696,7.49,16.696,16.696s-7.49,16.696-16.696,16.696h-16.696v-33.391H461.913z M50.087,205.913
			c-7.515,0-16.696-7.704-16.696-16.696s9.18-16.696,16.696-16.696h228.174v33.391H50.087z M428.522,339.478H294.957
			c-9.206,0-16.696-7.49-16.696-16.696c0-9.206,7.49-16.696,16.696-16.696h133.565c9.206,0,16.696,7.49,16.696,16.696
			C445.217,331.989,437.728,339.478,428.522,339.478z M311.652,272.696V105.739h100.174c0,16.385,0,150.368,0,166.957H311.652z
			 M428.522,72.348H294.957c-9.206,0-16.696-7.49-16.696-16.696c0-9.206,7.49-16.696,16.696-16.696h133.565
			c9.206,0,16.696,7.49,16.696,16.696C445.217,64.858,437.728,72.348,428.522,72.348z"/>
	</g>
</g>
<g>
	<g>
		<path d="M456.07,406.261H255.722c-27.618,0-50.087,22.469-50.087,50.087v33.391c0,9.22,7.475,16.696,16.696,16.696h267.13
			c9.22,0,16.696-7.475,16.696-16.696v-33.391C506.156,428.73,483.688,406.261,456.07,406.261z M472.765,473.043H239.026v-16.696
			c0-9.206,7.49-16.696,16.696-16.696H456.07c9.206,0,16.696,7.49,16.696,16.696V473.043z"/>
	</g>
</g>
<g>
</g>
<g>
</g>
<g>
</g>
<g>
</g>
<g>
</g>
<g>
</g>
<g>
</g>
<g>
</g>
<g>
</g>
<g>
</g>
<g>
</g>
<g>
</g>
<g>
</g>
<g>
</g>
<g>
</g>
</svg>
