<?xml version="1.0" encoding="iso-8859-1"?>
<!-- Generator: Adobe Illustrator 19.0.0, SVG Export Plug-In . SVG Version: 6.00 Build 0)  -->
<svg version="1.1" id="Layer_1" xmlns="http://www.w3.org/2000/svg" xmlns:xlink="http://www.w3.org/1999/xlink" x="0px" y="0px"
	 viewBox="0 0 512 512" style="enable-background:new 0 0 512 512;" xml:space="preserve">
<g>
	<g>
		<path d="M445.217,142.972V89.044c0-9.22-7.475-16.696-16.696-16.696h-50.087V22.261c0-9.22-7.475-16.696-16.696-16.696H150.261
			c-9.22,0-16.696,7.475-16.696,16.696v50.087H83.478c-9.22,0-16.696,7.475-16.696,16.696v53.928
			C28.221,154.398,0,190.129,0,232.348v190.609c0,27.618,22.469,50.087,50.087,50.087h16.696v16.696
			c0,9.22,7.475,16.696,16.696,16.696s16.696-7.475,16.696-16.696v-16.696h33.391v16.696c0,9.22,7.475,16.696,16.696,16.696h211.478
			c9.22,0,16.696-7.475,16.696-16.696v-16.696h33.391v16.696c0,9.22,7.475,16.696,16.696,16.696s16.696-7.475,16.696-16.696v-16.696
			h16.696c27.618,0,50.087-22.469,50.087-50.087V232.348C512,190.129,483.779,154.398,445.217,142.972z M378.435,105.739h33.391
			v33.391h-33.391V105.739z M166.957,38.957h178.087V139.13H166.957V38.957z M100.174,105.739h33.391v33.391h-33.391V105.739z
			 M133.565,372.87H116.87c-9.206,0-16.696-7.49-16.696-16.696v-33.391c0-9.206,7.49-16.696,16.696-16.696h16.696V372.87z
			 M345.043,473.043H166.957V306.087h178.087V473.043z M478.609,422.957c0,9.206-7.49,16.696-16.696,16.696h-83.478v-33.391h16.696
			c27.618,0,50.087-22.469,50.087-50.087v-33.391c0-27.618-22.469-50.087-50.087-50.087c-10.94,0-268.888,0-278.261,0
			c-27.618,0-50.087,22.469-50.087,50.087v33.391c0,27.618,22.469,50.087,50.087,50.087h16.696v33.391H50.087
			c-9.206,0-16.696-7.49-16.696-16.696V232.348c0-32.988,26.838-59.826,59.826-59.826h325.565c32.988,0,59.826,26.838,59.826,59.826
			V422.957z M378.435,372.87v-66.783h16.696c9.206,0,16.696,7.49,16.696,16.696v33.391c0,9.206-7.49,16.696-16.696,16.696H378.435z"
			/>
	</g>
</g>
<g>
	<g>
		<path d="M294.957,339.478h-77.913c-9.22,0-16.696,7.475-16.696,16.696c0,9.22,7.475,16.696,16.696,16.696h77.913
			c9.22,0,16.696-7.475,16.696-16.696C311.652,346.953,304.177,339.478,294.957,339.478z"/>
	</g>
</g>
<g>
	<g>
		<path d="M294.957,406.261h-77.913c-9.22,0-16.696,7.475-16.696,16.696c0,9.22,7.475,16.696,16.696,16.696h77.913
			c9.22,0,16.696-7.475,16.696-16.696C311.652,413.736,304.177,406.261,294.957,406.261z"/>
	</g>
</g>
<g>
	<g>
		<circle cx="311.652" cy="222.609" r="16.696"/>
	</g>
</g>
<g>
	<g>
		<circle cx="378.435" cy="222.609" r="16.696"/>
	</g>
</g>
<g>
</g>
<g>
</g>
<g>
</g>
<g>
</g>
<g>
</g>
<g>
</g>
<g>
</g>
<g>
</g>
<g>
</g>
<g>
</g>
<g>
</g>
<g>
</g>
<g>
</g>
<g>
</g>
<g>
</g>
</svg>
