<?xml version="1.0" encoding="iso-8859-1"?>
<!-- Generator: Adobe Illustrator 19.0.0, SVG Export Plug-In . SVG Version: 6.00 Build 0)  -->
<svg version="1.1" id="Layer_1" xmlns="http://www.w3.org/2000/svg" xmlns:xlink="http://www.w3.org/1999/xlink" x="0px" y="0px"
	 viewBox="0 0 512 512" style="enable-background:new 0 0 512 512;" xml:space="preserve">
<g>
	<g>
		<path d="M495.304,105.739c9.22,0,16.696-7.475,16.696-16.696c0-9.22-7.475-16.696-16.696-16.696h-16.696V38.957h16.696
			c9.22,0,16.696-7.475,16.696-16.696s-7.475-16.696-16.696-16.696h-66.783c-9.22,0-16.696,7.475-16.696,16.696
			s7.475,16.696,16.696,16.696h16.696v33.391h-16.696c-9.22,0-16.696,7.475-16.696,16.696c0,9.22,7.475,16.696,16.696,16.696h16.696
			v33.391H345.043V22.261c0-9.22-7.475-16.696-16.696-16.696H16.696C7.475,5.565,0,13.04,0,22.261v467.478
			c0,9.22,7.475,16.696,16.696,16.696c20.04,0,458.592,0,478.609,0c9.22,0,16.696-7.475,16.696-16.696V155.826
			c0-9.22-7.475-16.696-16.696-16.696h-16.696v-33.391H495.304z M311.652,473.043c-6.505,0-258.908,0-278.261,0V38.957h278.261
			V473.043z M345.043,239.304h66.783v33.391h-66.783V239.304z M345.043,372.87h66.783v33.391h-66.783V372.87z M478.609,473.043
			H345.043v-33.391h83.478c9.22,0,16.696-7.475,16.696-16.696v-66.783c0-9.22-7.475-16.696-16.696-16.696h-83.478v-33.391h83.478
			c9.22,0,16.696-7.475,16.696-16.696v-66.783c0-9.22-7.475-16.696-16.696-16.696h-83.478v-33.391h133.565V473.043z"/>
	</g>
</g>
<g>
	<g>
		<path d="M261.565,72.348H83.478c-9.22,0-16.696,7.475-16.696,16.696v66.783c0,9.22,7.475,16.696,16.696,16.696h178.087
			c9.22,0,16.696-7.475,16.696-16.696V89.044C278.261,79.823,270.786,72.348,261.565,72.348z M155.826,139.13h-55.652v-33.391
			h55.652V139.13z M244.87,139.13h-55.652v-33.391h55.652V139.13z"/>
	</g>
</g>
<g>
	<g>
		<path d="M261.565,205.913H83.478c-9.22,0-16.696,7.475-16.696,16.696v66.783c0,9.22,7.475,16.696,16.696,16.696h178.087
			c9.22,0,16.696-7.475,16.696-16.696v-66.783C278.261,213.388,270.786,205.913,261.565,205.913z M155.826,272.696h-55.652v-33.391
			h55.652V272.696z M244.87,272.696h-55.652v-33.391h55.652V272.696z"/>
	</g>
</g>
<g>
	<g>
		<path d="M261.565,339.478H83.478c-9.22,0-16.696,7.475-16.696,16.696v66.783c0,9.22,7.475,16.696,16.696,16.696h178.087
			c9.22,0,16.696-7.475,16.696-16.696v-66.783C278.261,346.953,270.786,339.478,261.565,339.478z M155.826,406.261h-55.652V372.87
			h55.652V406.261z M244.87,406.261h-55.652V372.87h55.652V406.261z"/>
	</g>
</g>
<g>
</g>
<g>
</g>
<g>
</g>
<g>
</g>
<g>
</g>
<g>
</g>
<g>
</g>
<g>
</g>
<g>
</g>
<g>
</g>
<g>
</g>
<g>
</g>
<g>
</g>
<g>
</g>
<g>
</g>
</svg>
