<?xml version="1.0" encoding="iso-8859-1"?>
<!-- Generator: Adobe Illustrator 19.0.0, SVG Export Plug-In . SVG Version: 6.00 Build 0)  -->
<svg version="1.1" id="Layer_1" xmlns="http://www.w3.org/2000/svg" xmlns:xlink="http://www.w3.org/1999/xlink" x="0px" y="0px"
	 viewBox="0 0 512 512" style="enable-background:new 0 0 512 512;" xml:space="preserve">
<g>
	<g>
		<path d="M361.739,272.696h-39.53c-11.541-24.223-31.128-43.874-55.079-55.407v-44.767h50.087
			c27.618,0,50.087-22.469,50.087-50.087c0-27.618-22.469-50.087-50.087-50.087H267.13V55.652c0-27.618-22.469-50.087-50.087-50.087
			c-27.618,0-50.087,22.469-50.087,50.087v16.696H116.87c-27.618,0-50.087,22.469-50.087,50.087
			c0,27.618,22.469,50.087,50.087,50.087h50.087v44.859c-23.747,11.428-43.42,30.782-55.085,55.315H16.696
			C7.475,272.696,0,280.171,0,289.391v100.174c0,9.22,7.475,16.696,16.696,16.696h94.763c19.29,40.386,60.338,66.783,105.584,66.783
			c45.089,0,85.935-26.395,105.084-66.783h39.612c9.206,0,16.696,7.49,16.696,16.696v66.783c0,9.22,7.475,16.696,16.696,16.696
			h100.174c9.22,0,16.696-7.475,16.696-16.696v-66.783C512,340.103,444.593,272.696,361.739,272.696z M200.348,55.652
			c0-9.206,7.49-16.696,16.696-16.696c9.206,0,16.696,7.49,16.696,16.696v16.696h-33.391V55.652z M116.87,139.13
			c-9.206,0-16.696-7.49-16.696-16.696s7.49-16.696,16.696-16.696h200.348c9.206,0,16.696,7.49,16.696,16.696
			c0,9.206-7.49,16.696-16.696,16.696H116.87z M233.739,172.522v34.6c-5.506-0.794-11.08-1.209-16.696-1.209
			c-5.642,0-11.219,0.414-16.696,1.217v-34.608H233.739z M478.609,473.043h-66.783v-50.087c0-27.618-22.469-50.087-50.087-50.087
			H310.98c-7.072,0-13.38,4.458-15.74,11.125c-11.782,33.29-43.206,55.658-78.197,55.658c-35.193,0-66.842-22.387-78.752-55.707
			c-2.375-6.643-8.667-11.076-15.722-11.076H33.391v-66.783h89.613c7.066,0,13.365-4.447,15.732-11.104
			c11.837-33.302,43.307-55.679,78.307-55.679c8.499,0,16.86,1.278,24.858,3.801c24.69,7.784,44.671,27.177,53.449,51.877
			c2.366,6.657,8.666,11.105,15.732,11.105h50.657c64.442,0,116.87,52.428,116.87,116.87V473.043z"/>
	</g>
</g>
<g>
</g>
<g>
</g>
<g>
</g>
<g>
</g>
<g>
</g>
<g>
</g>
<g>
</g>
<g>
</g>
<g>
</g>
<g>
</g>
<g>
</g>
<g>
</g>
<g>
</g>
<g>
</g>
<g>
</g>
</svg>
