<?xml version="1.0" encoding="iso-8859-1"?>
<!-- Generator: Adobe Illustrator 19.0.0, SVG Export Plug-In . SVG Version: 6.00 Build 0)  -->
<svg version="1.1" id="Layer_1" xmlns="http://www.w3.org/2000/svg" xmlns:xlink="http://www.w3.org/1999/xlink" x="0px" y="0px"
	 viewBox="0 0 512 512" style="enable-background:new 0 0 512 512;" xml:space="preserve">
<g>
	<g>
		<path d="M83.478,189.217c-9.22,0-16.696,7.475-16.696,16.696v217.044c0,9.22,7.475,16.696,16.696,16.696
			s16.696-7.475,16.696-16.696V205.913C100.174,196.693,92.699,189.217,83.478,189.217z"/>
	</g>
</g>
<g>
	<g>
		<path d="M463.432,139.133l-75.472,0.126c-19.699,0.031-38.916,3.862-57.121,11.384l-130.491,50.205V152.72l131.898-49.278
			c20.674-6.501,35.059-26.065,35.059-47.79c0-27.618-22.469-50.087-50.087-50.087c-0.598,0-1.194,0.032-1.789,0.096L73.407,31.74
			c-0.095,0.011-0.188,0.022-0.283,0.033C31.437,36.985,0,72.596,0,114.607c0,11.418,0,358.294,0,375.132
			c0,9.22,7.475,16.696,16.696,16.696h166.956c9.22,0,16.696-7.475,16.696-16.696v-91.787l153.067-113.924
			c0.156-0.116,0.309-0.235,0.461-0.356c7.084-5.667,15.622-9.288,24.559-10.509v26.665c0,21.864,17.788,39.651,39.652,39.651
			h10.435h10.435c21.865,0,39.652-17.788,39.652-39.652v-28.833C497.847,265.597,512,247.914,512,226.975V187.62
			C512,161.035,490.535,139.126,463.432,139.133z M166.957,473.043H33.391V155.826h133.565V473.043z M185.648,122.566
			c-0.656-0.078-1.319-0.13-1.996-0.13H33.391v-7.828c0-25.164,18.794-46.5,43.742-49.685l240.83-25.95
			c8.861,0.391,15.95,7.722,15.95,16.679c0,7.312-4.881,13.889-11.868,15.992c-0.347,0.105-0.69,0.22-1.029,0.347L185.648,122.566z
			 M445.217,299.826c0,3.453-2.808,6.261-6.261,6.261h-20.87c-3.453,0-6.261-2.808-6.261-6.261v-27.13h33.391V299.826z
			 M478.61,226.975h-0.001c0,6.798-5.531,12.329-12.33,12.329h-81.113c-18.78,0-37.2,6.424-51.907,18.1l-132.911,98.922V236.625
			l142.679-54.894c0.135-0.052,0.269-0.107,0.403-0.163c14.207-5.894,29.207-8.894,44.587-8.92l75.472-0.126
			c0.009,0,0.018,0,0.026,0c8.28,0,15.095,6.692,15.095,15.096V226.975z"/>
	</g>
</g>
<g>
	<g>
		<path d="M440.948,345.022c-3.167-3.527-7.684-5.544-12.426-5.544s-9.259,2.017-12.426,5.544
			c-18.504,20.644-54.357,65.857-54.357,94.63c0,36.824,29.959,66.783,66.783,66.783s66.783-29.959,66.783-66.783
			C495.304,410.971,459.543,365.768,440.948,345.022z M428.522,473.043c-18.412,0-33.391-14.979-33.391-33.391
			c0-10.642,15.692-35.497,33.391-57.627c17.701,22.132,33.391,46.985,33.391,57.627
			C461.913,458.064,446.934,473.043,428.522,473.043z"/>
	</g>
</g>
<g>
</g>
<g>
</g>
<g>
</g>
<g>
</g>
<g>
</g>
<g>
</g>
<g>
</g>
<g>
</g>
<g>
</g>
<g>
</g>
<g>
</g>
<g>
</g>
<g>
</g>
<g>
</g>
<g>
</g>
</svg>
