<?xml version="1.0" encoding="iso-8859-1"?>
<!-- Generator: Adobe Illustrator 19.0.0, SVG Export Plug-In . SVG Version: 6.00 Build 0)  -->
<svg version="1.1" id="Layer_1" xmlns="http://www.w3.org/2000/svg" xmlns:xlink="http://www.w3.org/1999/xlink" x="0px" y="0px"
	 viewBox="0 0 512 512" style="enable-background:new 0 0 512 512;" xml:space="preserve">
<g>
	<g>
		<circle cx="256" cy="239.304" r="16.696"/>
	</g>
</g>
<g>
	<g>
		<path d="M50.087,289.389H16.696C7.475,289.389,0,296.864,0,306.085s7.475,16.696,16.696,16.696h33.391
			c9.22,0,16.696-7.475,16.696-16.696S59.307,289.389,50.087,289.389z"/>
	</g>
</g>
<g>
	<g>
		<path d="M495.304,289.389h-33.391c-9.22,0-16.696,7.475-16.696,16.696s7.475,16.696,16.696,16.696h33.391
			c9.22,0,16.696-7.475,16.696-16.696S504.525,289.389,495.304,289.389z"/>
	</g>
</g>
<g>
	<g>
		<path d="M256,50.085c-9.22,0-16.696,7.475-16.696,16.696v33.391c0,9.22,7.475,16.696,16.696,16.696s16.696-7.475,16.696-16.696
			V66.78C272.696,57.56,265.22,50.085,256,50.085z"/>
	</g>
</g>
<g>
	<g>
		<path d="M167.502,119.411l-16.696-28.917c-4.609-7.985-14.82-10.723-22.806-6.111c-7.985,4.61-10.721,14.821-6.111,22.806
			l16.696,28.917c4.614,7.991,14.827,10.72,22.806,6.111C169.376,137.607,172.112,127.396,167.502,119.411z"/>
	</g>
</g>
<g>
	<g>
		<path d="M471.591,411.278l-28.917-16.696c-7.986-4.612-18.196-1.877-22.806,6.111c-4.61,7.985-1.874,18.197,6.111,22.806
			l28.917,16.696c7.985,4.611,18.196,1.875,22.806-6.111C482.312,426.1,479.576,415.888,471.591,411.278z"/>
	</g>
</g>
<g>
	<g>
		<path d="M86.022,188.67l-28.917-16.696c-7.986-4.614-18.197-1.877-22.806,6.111c-4.61,7.985-1.874,18.197,6.111,22.806
			l28.917,16.696c7.985,4.611,18.196,1.875,22.806-6.111C96.742,203.491,94.007,193.279,86.022,188.67z"/>
	</g>
</g>
<g>
	<g>
		<path d="M92.132,400.693c-4.609-7.985-14.821-10.724-22.806-6.111l-28.917,16.696c-7.985,4.61-10.721,14.821-6.111,22.806
			c4.614,7.991,14.827,10.72,22.806,6.111L86.022,423.5C94.007,418.889,96.742,408.678,92.132,400.693z"/>
	</g>
</g>
<g>
	<g>
		<path d="M477.703,178.085c-4.61-7.986-14.821-10.724-22.806-6.111L425.98,188.67c-7.985,4.61-10.721,14.821-6.111,22.806
			c4.614,7.991,14.827,10.72,22.806,6.111l28.917-16.696C479.577,196.282,482.313,186.07,477.703,178.085z"/>
	</g>
</g>
<g>
	<g>
		<path d="M384,84.383c-7.986-4.614-18.196-1.877-22.806,6.111l-16.696,28.917c-4.61,7.985-1.874,18.197,6.111,22.806
			c7.985,4.611,18.196,1.875,22.806-6.111l16.696-28.917C394.721,99.204,391.985,88.992,384,84.383z"/>
	</g>
</g>
<g>
	<g>
		<path d="M255.996,150.263c-85.922,0-155.826,69.904-155.826,155.826s69.904,155.826,155.826,155.826
			s155.826-69.904,155.826-155.826S341.918,150.263,255.996,150.263z M255.996,428.524c-67.51,0-122.435-54.924-122.435-122.435
			s54.924-122.435,122.435-122.435S378.43,238.579,378.43,306.089S323.506,428.524,255.996,428.524z"/>
	</g>
</g>
<g>
</g>
<g>
</g>
<g>
</g>
<g>
</g>
<g>
</g>
<g>
</g>
<g>
</g>
<g>
</g>
<g>
</g>
<g>
</g>
<g>
</g>
<g>
</g>
<g>
</g>
<g>
</g>
<g>
</g>
</svg>
