<?xml version="1.0" encoding="iso-8859-1"?>
<!-- Generator: Adobe Illustrator 19.0.0, SVG Export Plug-In . SVG Version: 6.00 Build 0)  -->
<svg version="1.1" id="Layer_1" xmlns="http://www.w3.org/2000/svg" xmlns:xlink="http://www.w3.org/1999/xlink" x="0px" y="0px"
	 viewBox="0 0 512 512" style="enable-background:new 0 0 512 512;" xml:space="preserve">
<g>
	<g>
		<path d="M389.043,0H122.957C95.051,0,72.348,22.703,72.348,50.609v410.783c0,27.905,22.703,50.608,50.609,50.608h266.086
			c27.906,0,50.609-22.703,50.609-50.609V50.609C439.652,22.703,416.949,0,389.043,0z M406.261,461.392
			c0,9.493-7.723,17.218-17.218,17.218H122.957c-9.494-0.001-17.218-7.724-17.218-17.219V50.609c0-9.494,7.723-17.218,17.218-17.218
			h266.088c9.493,0,17.217,7.723,17.217,17.218V461.392z"/>
	</g>
</g>
<g>
	<g>
		<path d="M256,66.783c-27.618,0-50.087,22.469-50.087,50.087c0,27.618,22.469,50.087,50.087,50.087
			c27.618,0,50.087-22.469,50.087-50.087C306.087,89.252,283.618,66.783,256,66.783z M256,133.565
			c-9.206,0-16.696-7.49-16.696-16.696s7.49-16.696,16.696-16.696s16.696,7.49,16.696,16.696S265.206,133.565,256,133.565z"/>
	</g>
</g>
<g>
	<g>
		<path d="M256,211.478c-64.442,0-116.87,52.428-116.87,116.87s52.428,116.87,116.87,116.87s116.87-52.428,116.87-116.87
			S320.442,211.478,256,211.478z M256,411.826c-46.03,0-83.478-37.448-83.478-83.478S209.97,244.87,256,244.87
			s83.478,37.448,83.478,83.478C339.478,374.378,302.03,411.826,256,411.826z"/>
	</g>
</g>
<g>
	<g>
		<path d="M256,278.261c-27.618,0-50.087,22.469-50.087,50.087s22.469,50.087,50.087,50.087c27.618,0,50.087-22.469,50.087-50.087
			S283.618,278.261,256,278.261z M256,345.043c-9.206,0-16.696-7.49-16.696-16.696s7.49-16.696,16.696-16.696
			s16.696,7.49,16.696,16.696S265.206,345.043,256,345.043z"/>
	</g>
</g>
<g>
	<g>
		<circle cx="155.826" cy="83.478" r="16.696"/>
	</g>
</g>
<g>
	<g>
		<circle cx="356.174" cy="83.478" r="16.696"/>
	</g>
</g>
<g>
</g>
<g>
</g>
<g>
</g>
<g>
</g>
<g>
</g>
<g>
</g>
<g>
</g>
<g>
</g>
<g>
</g>
<g>
</g>
<g>
</g>
<g>
</g>
<g>
</g>
<g>
</g>
<g>
</g>
</svg>
