<?xml version="1.0" encoding="iso-8859-1"?>
<!-- Generator: Adobe Illustrator 19.0.0, SVG Export Plug-In . SVG Version: 6.00 Build 0)  -->
<svg version="1.1" id="Layer_1" xmlns="http://www.w3.org/2000/svg" xmlns:xlink="http://www.w3.org/1999/xlink" x="0px" y="0px"
	 viewBox="0 0 512.001 512.001" style="enable-background:new 0 0 512.001 512.001;" xml:space="preserve">
<g>
	<g>
		<path d="M314.637,291.691l177.858-177.858c26.006-26.006,26.006-68.321,0-94.328c-26.006-26.006-68.322-26.006-94.328,0.001
			L220.31,197.363L28.466,5.52C18.003-4.943,0,2.464,0,17.31v478.015C0,504.535,7.466,512,16.675,512H494.69
			c14.805,0,22.282-17.974,11.79-28.465L314.637,291.691z M421.75,43.087c13.002-13.002,34.16-13.003,47.165,0
			c13.002,13.003,13.002,34.16,0,47.165l-23.582,23.582l-47.165-47.165L421.75,43.087z M374.586,90.251l47.165,47.165
			L291.056,268.109l-47.165-47.164L374.586,90.251z M225.752,249.969l36.279,36.279l-53.04,16.761L225.752,249.969z
			 M209.868,378.601H133.4v-76.468L209.868,378.601z M33.35,478.652v-0.001v-33.35h16.675c9.209,0,16.675-7.466,16.675-16.675
			c0-9.209-7.466-16.675-16.675-16.675H33.35v-33.35h16.675c9.209,0,16.675-7.466,16.675-16.675c0-9.209-7.466-16.675-16.675-16.675
			H33.35v-33.35h16.675c9.209,0,16.675-7.466,16.675-16.675c0-9.209-7.466-16.675-16.675-16.675H33.35v-33.35h16.675
			c9.209,0,16.675-7.466,16.675-16.675c0-9.209-7.466-16.675-16.675-16.675H33.35v-33.35h16.675c9.209,0,16.675-7.466,16.675-16.675
			c0-9.209-7.466-16.675-16.675-16.675H33.35V57.568l165.825,165.825l-23.377,73.976l-47.282-47.282
			c-10.466-10.469-28.465-3.05-28.465,11.79v133.4c0,9.209,7.466,16.675,16.675,16.675h133.4c14.805,0,22.282-17.974,11.79-28.465
			l-47.284-47.284l73.976-23.376l165.825,165.826H33.35z"/>
	</g>
</g>
<g>
</g>
<g>
</g>
<g>
</g>
<g>
</g>
<g>
</g>
<g>
</g>
<g>
</g>
<g>
</g>
<g>
</g>
<g>
</g>
<g>
</g>
<g>
</g>
<g>
</g>
<g>
</g>
<g>
</g>
</svg>
