<?xml version="1.0" encoding="iso-8859-1"?>
<!-- Generator: Adobe Illustrator 19.0.0, SVG Export Plug-In . SVG Version: 6.00 Build 0)  -->
<svg version="1.1" id="Layer_1" xmlns="http://www.w3.org/2000/svg" xmlns:xlink="http://www.w3.org/1999/xlink" x="0px" y="0px"
	 viewBox="0 0 511.999 511.999" style="enable-background:new 0 0 511.999 511.999;" xml:space="preserve">
<g>
	<g>
		<path d="M495.313,139.162h-61.184v-16.687c0-7.657-5.212-14.332-12.64-16.188l-55.453-13.863
			c-6.207-30.422-33.173-53.381-65.4-53.381H50.338c-27.603,0-50.06,22.457-50.06,50.06v133.493c0,27.603,22.457,50.06,50.06,50.06
			h12.001L36.845,374.631C15.635,380.482,0,400.047,0,423.23c0,27.418,22.457,49.726,50.06,49.726h133.493
			c27.603,0,50.06-22.308,50.06-49.726c0-20.427-12.142-38.041-29.537-45.946l26.157-104.629h70.404
			c32.228,0,59.193-22.961,65.4-53.382l55.453-13.863c7.428-1.857,12.64-8.531,12.64-16.188v-16.687h61.184
			c9.215,0,16.687-7.471,16.687-16.687C511.999,146.633,504.529,139.162,495.313,139.162z M183.552,439.583H50.06
			c-9.357,0-16.687-7.183-16.687-16.353c0-9.386,7.486-17.02,16.687-17.02h133.493c9.201,0,16.687,7.635,16.687,17.02
			C200.239,432.4,192.909,439.583,183.552,439.583z M161.582,339.401h17.563l-8.359,33.435H71.694L96.74,272.655h99.093
			l-8.343,33.373h-25.908c-9.215,0-16.687,7.471-16.687,16.687C144.895,331.93,152.366,339.401,161.582,339.401z M334.01,205.909
			c0,18.402-14.971,33.373-33.373,33.373c-15.991,0-241.941,0-250.299,0c-9.201,0-16.687-7.486-16.687-16.687V89.102
			c0-9.201,7.486-16.687,16.687-16.687h250.299c18.402,0,33.373,14.971,33.373,33.373V205.909z M400.756,176.193l-33.373,8.343
			v-57.375l33.373,8.343V176.193z"/>
	</g>
</g>
<g>
	<g>
		<path d="M217.204,105.789H83.711c-9.215,0-16.687,7.471-16.687,16.687s7.471,16.687,16.687,16.687h133.493
			c9.215,0,16.687-7.471,16.687-16.687S226.419,105.789,217.204,105.789z"/>
	</g>
</g>
<g>
	<g>
		<path d="M217.204,172.535H83.711c-9.215,0-16.687,7.471-16.687,16.687s7.471,16.687,16.687,16.687h133.493
			c9.215,0,16.687-7.471,16.687-16.687S226.419,172.535,217.204,172.535z"/>
	</g>
</g>
<g>
</g>
<g>
</g>
<g>
</g>
<g>
</g>
<g>
</g>
<g>
</g>
<g>
</g>
<g>
</g>
<g>
</g>
<g>
</g>
<g>
</g>
<g>
</g>
<g>
</g>
<g>
</g>
<g>
</g>
</svg>
