<?xml version="1.0" encoding="iso-8859-1"?>
<!-- Generator: Adobe Illustrator 19.0.0, SVG Export Plug-In . SVG Version: 6.00 Build 0)  -->
<svg version="1.1" id="Layer_1" xmlns="http://www.w3.org/2000/svg" xmlns:xlink="http://www.w3.org/1999/xlink" x="0px" y="0px"
	 viewBox="0 0 512 512" style="enable-background:new 0 0 512 512;" xml:space="preserve">
<g>
	<g>
		<path d="M356.174,200.348h-96.439c-26.386,0-49.22-17.849-53.114-41.519v0.001c-5.284-32.12,19.601-58.656,49.379-58.656
			c21.594,0,40.696,13.776,47.535,34.281c6.485,19.44,25.639,32.502,47.665,32.502c33.294,0,58.066-32.797,47.102-65.066
			C377.567,40.877,318.002-3.642,247.523,0.235c-79.55,4.384-141.784,79.204-141.784,156.581v305.097
			C105.74,489.531,128.209,512,155.826,512h200.348c27.618,0,50.087-22.469,50.087-50.087V250.435
			C406.261,222.817,383.792,200.348,356.174,200.348z M372.87,461.913c0,9.206-7.49,16.696-16.696,16.696H155.826
			c-9.206,0-16.696-7.49-16.696-16.696V156.816c0-62.415,51.509-120.003,110.23-123.24c52.172-2.896,100.504,29.557,117.325,79.057
			c3.447,10.146-4.535,20.932-15.487,20.932c-7.394,0-14.118-4.069-15.988-9.675C323.82,89.733,291.988,66.783,256,66.783
			c-51.061,0-90.832,45.766-82.326,97.468c6.518,39.614,43.517,69.488,86.063,69.488h96.437c9.206,0,16.696,7.49,16.696,16.696
			V461.913z"/>
	</g>
</g>
<g>
</g>
<g>
</g>
<g>
</g>
<g>
</g>
<g>
</g>
<g>
</g>
<g>
</g>
<g>
</g>
<g>
</g>
<g>
</g>
<g>
</g>
<g>
</g>
<g>
</g>
<g>
</g>
<g>
</g>
</svg>
