<?xml version="1.0" encoding="iso-8859-1"?>
<!-- Generator: Adobe Illustrator 19.0.0, SVG Export Plug-In . SVG Version: 6.00 Build 0)  -->
<svg version="1.1" id="Layer_1" xmlns="http://www.w3.org/2000/svg" xmlns:xlink="http://www.w3.org/1999/xlink" x="0px" y="0px"
	 viewBox="0 0 512 512" style="enable-background:new 0 0 512 512;" xml:space="preserve">
<g>
	<g>
		<path d="M356.721,268.59h-83.934v-22.383h16.787c9.271,0,16.787-7.516,16.787-16.787V50.361C306.361,22.592,283.769,0,256,0
			s-50.361,22.592-50.361,50.361v179.06c0,9.271,7.516,16.787,16.787,16.787h16.787v22.383h-83.934
			c-9.271,0-16.787,7.516-16.787,16.787v21.636c0,81.424,40.447,157.001,108.197,202.168C249.508,511.06,252.755,512,256,512
			c3.245,0,6.492-0.94,9.311-2.819c67.75-45.167,108.197-120.744,108.197-202.167v-21.637
			C373.508,276.106,365.992,268.59,356.721,268.59z M239.213,50.361c0-9.256,7.531-16.787,16.787-16.787
			c9.256,0,16.787,7.531,16.787,16.787v162.273h-33.574V50.361z M339.934,307.013c0,66.356-31.173,128.21-83.934,167.655
			c-52.761-39.445-83.934-101.298-83.934-167.655v-4.849h67.148v61.552c0,9.271,7.516,16.787,16.787,16.787
			c9.271,0,16.787-7.516,16.787-16.787v-61.552h67.148V307.013z"/>
	</g>
</g>
<g>
</g>
<g>
</g>
<g>
</g>
<g>
</g>
<g>
</g>
<g>
</g>
<g>
</g>
<g>
</g>
<g>
</g>
<g>
</g>
<g>
</g>
<g>
</g>
<g>
</g>
<g>
</g>
<g>
</g>
</svg>
