<?xml version="1.0" encoding="iso-8859-1"?>
<!-- Generator: Adobe Illustrator 19.0.0, SVG Export Plug-In . SVG Version: 6.00 Build 0)  -->
<svg version="1.1" id="Layer_1" xmlns="http://www.w3.org/2000/svg" xmlns:xlink="http://www.w3.org/1999/xlink" x="0px" y="0px"
	 viewBox="0 0 512 512" style="enable-background:new 0 0 512 512;" xml:space="preserve">
<g>
	<g>
		<path d="M374.783,82.532h-35.305c-18.491,0-34.661,10.08-43.339,25.025l-1.643-6.13c-5.277-19.694-21.295-34.064-40.806-36.609
			c-82.615-10.779-166.13,11.521-232.44,62.281C5.626,139.062-1.061,159.515,4.216,179.207l26.294,98.134
			c0.509,1.899,1.119,3.745,1.821,5.54H16.696C7.475,282.88,0,290.356,0,299.576v66.783c0,9.22,7.475,16.696,16.696,16.696h52.959
			c-1.853,5.226-2.872,10.843-2.872,16.696c0,27.618,22.469,50.087,50.087,50.087c27.618,0,50.087-22.469,50.087-50.087
			c0-5.852-1.018-11.47-2.872-16.696h142.002h41.828c-1.853,5.226-2.872,10.843-2.872,16.696c0,27.618,22.469,50.087,50.087,50.087
			c27.618,0,50.087-22.469,50.087-50.087c0-5.852-1.018-11.47-2.872-16.696h19.567c27.618,0,50.087-22.469,50.087-50.087V219.75
			C512,144.087,450.444,82.532,374.783,82.532z M249.372,97.929c5.963,0.778,11.135,5.658,12.872,12.14l26.294,98.135
			c1.737,6.482-0.304,13.294-5.079,16.949c-6.827,5.226-13.846,10.1-21.025,14.642L223.84,95.757
			C232.329,96.102,240.848,96.817,249.372,97.929z M189.456,96.445l42.856,159.94c-30.467,14.429-63.155,23.203-96.758,25.939
			l-42.856-159.94C123.165,107.955,155.853,99.183,189.456,96.445z M41.549,153.616c6.827-5.226,13.846-10.1,21.025-14.642
			l38.559,143.906c-7.307-0.001-18.295-1.102-25.496-2.041c-5.963-0.777-11.135-5.656-12.872-12.139L36.47,170.566
			C34.733,164.083,36.774,157.271,41.549,153.616z M116.87,416.446c-9.206,0-16.696-7.49-16.696-16.696
			c0-9.206,7.49-16.696,16.696-16.696s16.696,7.489,16.696,16.696C133.565,408.956,126.076,416.446,116.87,416.446z
			 M289.391,349.663h-256v-33.391c0.002,0,256,0,256,0V349.663z M289.391,282.88h-35.404c12.215-6.155,24.03-13.112,35.404-20.857
			V282.88z M389.565,116.98c49.095,7.03,87.214,48.53,88.972,99.117h-88.972V116.98z M395.13,416.446
			c-9.206,0-16.696-7.49-16.696-16.696c0-9.206,7.49-16.696,16.696-16.696s16.696,7.489,16.696,16.696
			C411.826,408.956,404.336,416.446,395.13,416.446z M478.609,282.88h-16.696c-9.22,0-16.696,7.475-16.696,16.696
			c0,9.22,7.475,16.696,16.696,16.696h16.696v16.696c0,9.206-7.49,16.696-16.696,16.696h-139.13c0-10.782,0-206.717,0-217.043
			c0-9.206,7.49-16.696,16.696-16.696h16.696v116.87c0,9.22,7.475,16.696,16.696,16.696h105.739V282.88z"/>
	</g>
</g>
<g>
</g>
<g>
</g>
<g>
</g>
<g>
</g>
<g>
</g>
<g>
</g>
<g>
</g>
<g>
</g>
<g>
</g>
<g>
</g>
<g>
</g>
<g>
</g>
<g>
</g>
<g>
</g>
<g>
</g>
</svg>
