<?xml version="1.0" encoding="iso-8859-1"?>
<!-- Generator: Adobe Illustrator 19.0.0, SVG Export Plug-In . SVG Version: 6.00 Build 0)  -->
<svg version="1.1" id="Layer_1" xmlns="http://www.w3.org/2000/svg" xmlns:xlink="http://www.w3.org/1999/xlink" x="0px" y="0px"
	 viewBox="0 0 512 512" style="enable-background:new 0 0 512 512;" xml:space="preserve">
<g>
	<g>
		<path d="M456.348,0c-21.766,0-40.323,13.96-47.215,33.391h-39.135C363.106,13.96,344.548,0,322.783,0s-40.323,13.96-47.215,33.391
			h-39.135C229.541,13.96,210.983,0,189.217,0s-40.323,13.96-47.215,33.391h-39.135C95.976,13.96,77.418,0,55.652,0
			C28.034,0,5.565,22.469,5.565,50.087c0,5.363,0,438.043,0,445.217c0,9.22,7.475,16.696,16.696,16.696h55.652
			c9.22,0,16.696-7.475,16.696-16.696s-7.475-16.696-16.696-16.696H38.957v-47.393c5.226,1.853,10.842,2.872,16.696,2.872
			c21.766,0,40.323-13.96,47.215-33.391h39.135c6.892,19.432,25.45,33.391,47.215,33.391s40.323-13.96,47.215-33.391h39.135
			c6.892,19.432,25.45,33.391,47.215,33.391s40.323-13.96,47.215-33.391h39.135c6.892,19.432,25.45,33.391,47.215,33.391
			c5.853,0,11.47-1.018,16.696-2.872v47.393h-27.826c-9.22,0-16.696,7.475-16.696,16.696S435.997,512,445.217,512h44.522
			c9.22,0,16.696-7.475,16.696-16.696c0-7.562,0-439.752,0-445.217C506.435,22.469,483.966,0,456.348,0z M72.348,384
			c0,9.206-7.49,16.696-16.696,16.696c-9.206,0-16.696-7.49-16.696-16.696V50.087c0-9.206,7.49-16.696,16.696-16.696
			c9.206,0,16.696,7.49,16.696,16.696V384z M139.13,367.304h-33.391V66.783h33.391V367.304z M205.913,384
			c0,9.206-7.49,16.696-16.696,16.696s-16.696-7.49-16.696-16.696V50.087c0-9.206,7.49-16.696,16.696-16.696
			s16.696,7.49,16.696,16.696V384z M272.696,367.304h-33.391V66.783h33.391V367.304z M339.478,384
			c0,9.206-7.49,16.696-16.696,16.696c-9.206,0-16.696-7.49-16.696-16.696V50.087c0-9.206,7.49-16.696,16.696-16.696
			c9.206,0,16.696,7.49,16.696,16.696V384z M406.261,367.304H372.87V66.783h33.391V367.304z M473.043,384
			c0,9.206-7.49,16.696-16.696,16.696c-9.206,0-16.696-7.49-16.696-16.696V50.087c0-9.206,7.49-16.696,16.696-16.696
			c9.206,0,16.696,7.49,16.696,16.696V384z"/>
	</g>
</g>
<g>
</g>
<g>
</g>
<g>
</g>
<g>
</g>
<g>
</g>
<g>
</g>
<g>
</g>
<g>
</g>
<g>
</g>
<g>
</g>
<g>
</g>
<g>
</g>
<g>
</g>
<g>
</g>
<g>
</g>
</svg>
