<?xml version="1.0" encoding="iso-8859-1"?>
<!-- Generator: Adobe Illustrator 19.0.0, SVG Export Plug-In . SVG Version: 6.00 Build 0)  -->
<svg version="1.1" id="Layer_1" xmlns="http://www.w3.org/2000/svg" xmlns:xlink="http://www.w3.org/1999/xlink" x="0px" y="0px"
	 viewBox="0 0 512 512" style="enable-background:new 0 0 512 512;" xml:space="preserve">
<g>
	<g>
		<path d="M356.174,311.652h-16.696v-50.087c0-9.22-7.475-16.696-16.696-16.696s-16.696,7.475-16.696,16.696v50.087H205.913v-50.087
			c0-9.22-7.475-16.696-16.696-16.696s-16.696,7.475-16.696,16.696v50.087h-16.696c-9.22,0-16.696,7.475-16.696,16.696v38.956
			c0,58.773,43.613,107.546,100.174,115.672v12.328c0,9.22,7.475,16.696,16.696,16.696s16.696-7.475,16.696-16.696v-12.328
			c56.562-8.126,100.174-56.898,100.174-115.672v-38.956C372.87,319.127,365.394,311.652,356.174,311.652z M339.478,367.304
			c0,46.03-37.448,83.478-83.478,83.478s-83.478-37.448-83.478-83.478v-22.261h166.957V367.304z"/>
	</g>
</g>
<g>
	<g>
		<path d="M189.217,66.783c-27.618,0-50.087,22.469-50.087,50.087c0,27.618,22.469,50.087,50.087,50.087
			c27.618,0,50.087-22.469,50.087-50.087C239.304,89.252,216.835,66.783,189.217,66.783z M189.217,133.565
			c-9.206,0-16.696-7.49-16.696-16.696s7.49-16.696,16.696-16.696s16.696,7.49,16.696,16.696S198.423,133.565,189.217,133.565z"/>
	</g>
</g>
<g>
	<g>
		<path d="M322.783,66.783c-27.618,0-50.087,22.469-50.087,50.087c0,27.618,22.469,50.087,50.087,50.087
			s50.087-22.469,50.087-50.087C372.87,89.252,350.401,66.783,322.783,66.783z M322.783,133.565c-9.206,0-16.696-7.49-16.696-16.696
			s7.49-16.696,16.696-16.696c9.206,0,16.696,7.49,16.696,16.696S331.989,133.565,322.783,133.565z"/>
	</g>
</g>
<g>
	<g>
		<path d="M389.565,0h-267.13C94.817,0,72.348,22.469,72.348,50.087v133.565c0,27.618,22.469,50.087,50.087,50.087h267.13
			c27.618,0,50.087-22.469,50.087-50.087V50.087C439.652,22.469,417.183,0,389.565,0z M406.261,183.652
			c0,9.206-7.49,16.696-16.696,16.696h-267.13c-9.206,0-16.696-7.49-16.696-16.696V50.087c0-9.206,7.49-16.696,16.696-16.696h267.13
			c9.206,0,16.696,7.49,16.696,16.696V183.652z"/>
	</g>
</g>
<g>
</g>
<g>
</g>
<g>
</g>
<g>
</g>
<g>
</g>
<g>
</g>
<g>
</g>
<g>
</g>
<g>
</g>
<g>
</g>
<g>
</g>
<g>
</g>
<g>
</g>
<g>
</g>
<g>
</g>
</svg>
