<?xml version="1.0" encoding="iso-8859-1"?>
<!-- Generator: Adobe Illustrator 19.0.0, SVG Export Plug-In . SVG Version: 6.00 Build 0)  -->
<svg version="1.1" id="Layer_1" xmlns="http://www.w3.org/2000/svg" xmlns:xlink="http://www.w3.org/1999/xlink" x="0px" y="0px"
	 viewBox="0 0 512 512" style="enable-background:new 0 0 512 512;" xml:space="preserve">
<g>
	<g>
		<path d="M422.957,0H89.044c-9.22,0-16.696,7.475-16.696,16.696v478.609c0,9.22,7.475,16.696,16.696,16.696h333.913
			c9.22,0,16.696-7.475,16.696-16.696V16.696C439.652,7.475,432.177,0,422.957,0z M406.261,478.609H105.739V33.391h300.522V478.609z
			"/>
	</g>
</g>
<g>
	<g>
		<path d="M222.609,66.783h-66.783c-9.22,0-16.696,7.475-16.696,16.696v111.304c0,9.22,7.475,16.696,16.696,16.696h66.783
			c9.22,0,16.696-7.475,16.696-16.696V83.478C239.304,74.258,231.829,66.783,222.609,66.783z M205.913,178.087h-33.391v-77.913
			h33.391V178.087z"/>
	</g>
</g>
<g>
	<g>
		<path d="M356.174,66.783h-66.783c-9.22,0-16.696,7.475-16.696,16.696v111.304c0,9.22,7.475,16.696,16.696,16.696h66.783
			c9.22,0,16.696-7.475,16.696-16.696V83.478C372.87,74.258,365.394,66.783,356.174,66.783z M339.478,178.087h-33.391v-77.913
			h33.391V178.087z"/>
	</g>
</g>
<g>
	<g>
		<path d="M222.609,300.522h-66.783c-9.22,0-16.696,7.475-16.696,16.696v111.304c0,9.22,7.475,16.696,16.696,16.696h66.783
			c9.22,0,16.696-7.475,16.696-16.696V317.217C239.304,307.997,231.829,300.522,222.609,300.522z M205.913,411.826h-33.391v-77.913
			h33.391V411.826z"/>
	</g>
</g>
<g>
	<g>
		<path d="M356.174,300.522h-66.783c-9.22,0-16.696,7.475-16.696,16.696v111.304c0,9.22,7.475,16.696,16.696,16.696h66.783
			c9.22,0,16.696-7.475,16.696-16.696V317.217C372.87,307.997,365.394,300.522,356.174,300.522z M339.478,411.826h-33.391v-77.913
			h33.391V411.826z"/>
	</g>
</g>
<g>
	<g>
		<path d="M222.609,239.304h-66.783c-9.22,0-16.696,7.475-16.696,16.696c0,9.22,7.475,16.696,16.696,16.696h66.783
			c9.22,0,16.696-7.475,16.696-16.696C239.304,246.78,231.829,239.304,222.609,239.304z"/>
	</g>
</g>
<g>
</g>
<g>
</g>
<g>
</g>
<g>
</g>
<g>
</g>
<g>
</g>
<g>
</g>
<g>
</g>
<g>
</g>
<g>
</g>
<g>
</g>
<g>
</g>
<g>
</g>
<g>
</g>
<g>
</g>
</svg>
