<?xml version="1.0" encoding="iso-8859-1"?>
<!-- Generator: Adobe Illustrator 19.0.0, SVG Export Plug-In . SVG Version: 6.00 Build 0)  -->
<svg version="1.1" id="Layer_1" xmlns="http://www.w3.org/2000/svg" xmlns:xlink="http://www.w3.org/1999/xlink" x="0px" y="0px"
	 viewBox="0 0 512 512" style="enable-background:new 0 0 512 512;" xml:space="preserve">
<g>
	<g>
		<path d="M339.478,278.261v-6.496c30.324-24.145,50.087-63.632,50.087-104.809v-33.391C389.565,59.927,329.613,0,256,0
			c-73.952,0-133.565,60.249-133.565,133.565v33.391c0,40.017,18.37,78.845,50.087,104.372v6.932
			c-82.854,0-150.261,67.407-150.261,150.261v33.391C22.261,489.531,44.73,512,72.348,512h367.304
			c27.618,0,50.087-22.469,50.087-50.087v-33.391C489.739,345.668,422.332,278.261,339.478,278.261z M287.391,38.434
			c29.358,9.712,52.74,32.658,63.053,61.739h-10.966c-24.592,0-47.63-10.748-63.407-29.175
			C281.436,60.798,285.255,49.844,287.391,38.434z M254.303,33.412c-7.808,37.986-41.655,66.761-81.781,66.761h-10.966
			C175.159,61.813,211.505,34.128,254.303,33.412z M239.304,478.609H72.348c-9.206,0-16.696-7.49-16.696-16.696v-33.391
			c0-59.027,43.989-107.965,100.905-115.774c-12.468,29.732-7.151,66.185,17.99,91.324l19.56,19.561
			c6.516,6.517,17.093,6.519,23.611,0l21.586-21.586V478.609z M190.35,319.699l42.04,42.04l-26.477,26.476l-7.755-7.755
			C181.319,363.62,179.335,338.41,190.35,319.699z M210.814,292.942c2.415,0.878,4.847,1.71,7.312,2.443
			c8.841,2.63,18.135-2.405,20.764-11.24c2.63-8.838-2.402-18.134-11.241-20.765c-40.013-11.908-71.822-50.384-71.822-96.424
			v-33.391h16.696c30.627,0,60.631-11.785,83.47-35.073c21.78,22.255,51.705,35.073,83.486,35.073h16.696v33.391
			c0,32.564-16.059,63.232-42.958,82.038c-1.158,0.809-2.187,1.756-3.088,2.804c-7.827,5.008-16.328,8.936-25.223,11.582
			c-8.836,2.63-13.87,11.927-11.24,20.765c2.63,8.836,11.926,13.87,20.765,11.24c2.165-0.644,4.305-1.366,6.433-2.123L256,338.128
			L210.814,292.942z M313.84,380.459l-7.753,7.756l-26.476-26.476l42.039-42.04C332.663,338.41,330.68,363.62,313.84,380.459z
			 M456.348,461.913c0,9.206-7.49,16.696-16.696,16.696H272.696v-76.563l21.586,21.586c6.516,6.517,17.093,6.519,23.611,0
			l19.56-19.56c25.078-25.077,30.494-61.509,17.99-91.324c56.917,7.808,100.905,56.746,100.905,115.773V461.913z"/>
	</g>
</g>
<g>
</g>
<g>
</g>
<g>
</g>
<g>
</g>
<g>
</g>
<g>
</g>
<g>
</g>
<g>
</g>
<g>
</g>
<g>
</g>
<g>
</g>
<g>
</g>
<g>
</g>
<g>
</g>
<g>
</g>
</svg>
