<?xml version="1.0" encoding="iso-8859-1"?>
<!-- Generator: Adobe Illustrator 19.0.0, SVG Export Plug-In . SVG Version: 6.00 Build 0)  -->
<svg version="1.1" id="Layer_1" xmlns="http://www.w3.org/2000/svg" xmlns:xlink="http://www.w3.org/1999/xlink" x="0px" y="0px"
	 viewBox="0 0 512 512" style="enable-background:new 0 0 512 512;" xml:space="preserve">
<g>
	<g>
		<path d="M422.957,66.783H89.044c-9.22,0-16.696,7.475-16.696,16.696s7.475,16.696,16.696,16.696h333.913
			c9.22,0,16.696-7.475,16.696-16.696S432.177,66.783,422.957,66.783z"/>
	</g>
</g>
<g>
	<g>
		<path d="M422.957,133.565H89.044c-9.22,0-16.696,7.475-16.696,16.696s7.475,16.696,16.696,16.696h333.913
			c9.22,0,16.696-7.475,16.696-16.696S432.177,133.565,422.957,133.565z"/>
	</g>
</g>
<g>
	<g>
		<path d="M422.957,200.348H89.044c-9.22,0-16.696,7.475-16.696,16.696c0,9.22,7.475,16.696,16.696,16.696h333.913
			c9.22,0,16.696-7.475,16.696-16.696C439.652,207.823,432.177,200.348,422.957,200.348z"/>
	</g>
</g>
<g>
	<g>
		<path d="M422.957,267.13H89.044c-9.22,0-16.696,7.475-16.696,16.696c0,9.22,7.475,16.696,16.696,16.696h333.913
			c9.22,0,16.696-7.475,16.696-16.696C439.652,274.606,432.177,267.13,422.957,267.13z"/>
	</g>
</g>
<g>
	<g>
		<path d="M456.348,0H55.652C28.034,0,5.565,22.469,5.565,50.087v445.217c0,9.22,7.475,16.696,16.696,16.696h66.783
			c9.22,0,16.696-7.475,16.696-16.696v-128h33.391v61.217c0,9.22,7.475,16.696,16.696,16.696h66.783
			c9.22,0,16.696-7.475,16.696-16.696v-61.217h33.391v128c0,9.22,7.475,16.696,16.696,16.696h66.783
			c9.22,0,16.696-7.475,16.696-16.696v-128h33.391v94.609c0,9.22,7.475,16.696,16.696,16.696h66.783
			c9.22,0,16.696-7.475,16.696-16.696V50.087C506.435,22.469,483.966,0,456.348,0z M473.043,445.217h-33.391v-94.609
			c0-9.22-7.475-16.696-16.696-16.696h-66.783c-9.22,0-16.696,7.475-16.696,16.696v128h-33.391v-128
			c0-9.22-7.475-16.696-16.696-16.696h-66.783c-9.22,0-16.696,7.475-16.696,16.696v61.217h-33.391v-61.217
			c0-9.22-7.475-16.696-16.696-16.696H89.044c-9.22,0-16.696,7.475-16.696,16.696v128H38.957V50.087
			c0-9.206,7.49-16.696,16.696-16.696h400.696c9.206,0,16.696,7.49,16.696,16.696V445.217z"/>
	</g>
</g>
<g>
</g>
<g>
</g>
<g>
</g>
<g>
</g>
<g>
</g>
<g>
</g>
<g>
</g>
<g>
</g>
<g>
</g>
<g>
</g>
<g>
</g>
<g>
</g>
<g>
</g>
<g>
</g>
<g>
</g>
</svg>
