<?xml version="1.0" encoding="iso-8859-1"?>
<!-- Generator: Adobe Illustrator 19.0.0, SVG Export Plug-In . SVG Version: 6.00 Build 0)  -->
<svg version="1.1" id="Layer_1" xmlns="http://www.w3.org/2000/svg" xmlns:xlink="http://www.w3.org/1999/xlink" x="0px" y="0px"
	 viewBox="0 0 512 512" style="enable-background:new 0 0 512 512;" xml:space="preserve">
<g>
	<g>
		<path d="M389.565,144.696c-5.853,0-11.47,1.018-16.696,2.872V116.87C372.87,52.428,320.442,0,256,0S139.13,52.428,139.13,116.87
			v30.698c-5.226-1.853-10.842-2.872-16.696-2.872c-27.618,0-50.087,22.469-50.087,50.087v100.174
			c0,27.618,22.469,50.087,50.087,50.087c11.706,0,105.196,0,116.87,0v66.783h-83.478c-27.618,0-50.087,22.469-50.087,50.087
			S128.208,512,155.826,512c27.618,0,50.087-22.469,50.087-50.087c0-5.852-1.018-11.47-2.872-16.696h36.263v50.087
			c0,9.22,7.475,16.696,16.696,16.696s16.696-7.475,16.696-16.696v-50.087h36.263c-1.853,5.226-2.872,10.843-2.872,16.696
			c0,27.618,22.469,50.087,50.087,50.087s50.087-22.469,50.087-50.087s-22.469-50.087-50.087-50.087h-83.478v-66.783
			c11.674,0,105.164,0,116.87,0c27.618,0,50.087-22.469,50.087-50.087V194.783C439.652,167.165,417.183,144.696,389.565,144.696z
			 M139.13,311.652h-16.696c-9.206,0-16.696-7.49-16.696-16.696V194.783c0-9.206,7.49-16.696,16.696-16.696
			c9.206,0,16.696,7.49,16.696,16.696C139.13,212.975,139.13,295.867,139.13,311.652z M155.826,478.609
			c-9.206,0-16.696-7.49-16.696-16.696s7.49-16.696,16.696-16.696c9.206,0,16.696,7.49,16.696,16.696
			S165.032,478.609,155.826,478.609z M356.174,445.217c9.206,0,16.696,7.49,16.696,16.696s-7.49,16.696-16.696,16.696
			c-9.206,0-16.696-7.49-16.696-16.696S346.968,445.217,356.174,445.217z M339.478,311.652H172.522v-33.391h166.957V311.652z
			 M339.478,194.783v50.087H172.522v-50.087V116.87c0-46.03,37.448-83.478,83.478-83.478s83.478,37.448,83.478,83.478V194.783z
			 M406.261,294.957c0,9.206-7.49,16.696-16.696,16.696H372.87c0-15.823,0-98.755,0-116.87c0-9.206,7.49-16.696,16.696-16.696
			c9.206,0,16.696,7.49,16.696,16.696V294.957z"/>
	</g>
</g>
<g>
	<g>
		<circle cx="222.609" cy="116.87" r="16.696"/>
	</g>
</g>
<g>
	<g>
		<circle cx="222.609" cy="183.652" r="16.696"/>
	</g>
</g>
<g>
	<g>
		<circle cx="289.391" cy="183.652" r="16.696"/>
	</g>
</g>
<g>
	<g>
		<circle cx="289.391" cy="116.87" r="16.696"/>
	</g>
</g>
<g>
</g>
<g>
</g>
<g>
</g>
<g>
</g>
<g>
</g>
<g>
</g>
<g>
</g>
<g>
</g>
<g>
</g>
<g>
</g>
<g>
</g>
<g>
</g>
<g>
</g>
<g>
</g>
<g>
</g>
</svg>
