<?xml version="1.0" encoding="iso-8859-1"?>
<!-- Generator: Adobe Illustrator 19.0.0, SVG Export Plug-In . SVG Version: 6.00 Build 0)  -->
<svg version="1.1" id="Layer_1" xmlns="http://www.w3.org/2000/svg" xmlns:xlink="http://www.w3.org/1999/xlink" x="0px" y="0px"
	 viewBox="0 0 512 512" style="enable-background:new 0 0 512 512;" xml:space="preserve">
<g>
	<g>
		<path d="M489.739,233.739c9.001,0,16.664-7.312,16.693-16.647c0-0.017,0.002-0.032,0.002-0.049V116.87
			c0-9.22-7.475-16.696-16.696-16.696h-218.82c-9.197-9.002-19.867-16.504-31.615-22.099V16.696c0-9.22-7.475-16.696-16.696-16.696
			H122.435c-9.22,0-16.696,7.475-16.696,16.696v52.959c-14.207,5.039-25.481,16.313-30.52,30.52H22.261
			c-9.22,0-16.696,7.475-16.696,16.696v100.174c0,9.22,7.475,16.696,16.696,16.696h52.959c5.039,14.207,16.313,25.481,30.52,30.52
			c0,17.712,0,207.048,0,214.35H55.652c-9.22,0-16.696,7.475-16.696,16.696S46.432,512,55.652,512c20.358,0,222.563,0,233.739,0
			c9.22,0,16.696-7.475,16.696-16.696s-7.475-16.696-16.696-16.696h-50.087c0-17.504,0-204.599,0-211.478H256
			c21.766,0,40.323-13.959,47.215-33.391h136.437v83.478c0,9.22,7.475,16.696,16.696,16.696c9.226,0,16.696,7.466,16.696,16.696
			c0,4.46-1.736,8.652-4.891,11.805c-6.526,6.526-17.085,6.526-23.611,0c-6.52-6.518-17.091-6.519-23.611-0.001
			c-6.52,6.52-6.521,17.091-0.001,23.612c19.572,19.574,51.259,19.578,70.834,0c9.461-9.46,14.67-22.038,14.67-35.416
			c0-22.249-14.353-40.534-33.391-47.245v-69.624H489.739z M72.348,200.348H38.957v-66.783h33.391V200.348z M271.016,166.957
			h-98.494v-66.783h16.696C229.531,100.174,263.259,128.899,271.016,166.957z M139.13,33.391h66.783V67.98
			c-5.455-0.784-11.027-1.198-16.696-1.198H139.13V33.391z M205.913,478.609h-61.728l61.728-41.153V478.609z M139.13,441.848
			v-71.175l53.379,35.587L139.13,441.848z M205.913,375.065l-53.379-35.586l53.379-35.587V375.065z M139.13,308.283V267.13h61.728
			L139.13,308.283z M272.696,217.043c0,9.206-7.49,16.696-16.696,16.696H122.435c-9.206,0-16.696-7.49-16.696-16.696V116.87
			c0-9.206,7.49-16.696,16.696-16.696h16.696v83.478c0,9.22,7.475,16.696,16.696,16.696h116.87V217.043z M294.795,133.565h54.463
			l-43.37,43.37C305.01,161.491,301.119,146.843,294.795,133.565z M329.698,200.348l59.867-59.867l59.867,59.867H329.698z
			 M429.872,133.565h43.172v43.172L429.872,133.565z"/>
	</g>
</g>
<g>
</g>
<g>
</g>
<g>
</g>
<g>
</g>
<g>
</g>
<g>
</g>
<g>
</g>
<g>
</g>
<g>
</g>
<g>
</g>
<g>
</g>
<g>
</g>
<g>
</g>
<g>
</g>
<g>
</g>
</svg>
