<?xml version="1.0" encoding="iso-8859-1"?>
<!-- Generator: Adobe Illustrator 19.0.0, SVG Export Plug-In . SVG Version: 6.00 Build 0)  -->
<svg version="1.1" id="Layer_1" xmlns="http://www.w3.org/2000/svg" xmlns:xlink="http://www.w3.org/1999/xlink" x="0px" y="0px"
	 viewBox="0 0 511.999 511.999" style="enable-background:new 0 0 511.999 511.999;" xml:space="preserve">
<g>
	<g>
		<path d="M439.483,492.943c-0.077-0.54-28.769-201.538-28.902-202.067c-4.4-25.707-20.784-47.86-44.19-59.564
			c-16.601-8.301-26.913-24.987-26.913-43.547V87.051c0-42.529-29.913-79.467-69.58-85.92
			c-51.778-8.425-97.377,31.312-97.377,82.347v104.286c0,18.56-10.312,35.246-26.913,43.547
			c-23.408,11.705-39.792,33.859-44.191,59.567c-0.133,0.529-28.824,201.525-28.901,202.065
			c-1.437,10.062,6.384,19.056,16.528,19.056h333.912C433.12,511.999,440.919,502.985,439.483,492.943z M160.543,261.178
			c27.986-13.992,45.371-42.123,45.371-73.412V83.48c0-29.949,26.573-54.601,58.623-49.389c23.688,3.853,41.55,26.622,41.55,52.961
			v100.715c0,31.29,17.386,59.42,45.372,73.412c7.885,3.943,14.417,9.893,19.076,17.084H141.465
			C146.125,271.07,152.657,265.121,160.543,261.178z M108.295,478.609l23.851-166.956h247.71l23.85,166.956H108.295z"/>
	</g>
</g>
<g>
	<g>
		<circle cx="256" cy="83.478" r="16.696"/>
	</g>
</g>
<g>
</g>
<g>
</g>
<g>
</g>
<g>
</g>
<g>
</g>
<g>
</g>
<g>
</g>
<g>
</g>
<g>
</g>
<g>
</g>
<g>
</g>
<g>
</g>
<g>
</g>
<g>
</g>
<g>
</g>
</svg>
